<svg xmlns="http://www.w3.org/2000/svg" xmlns:xlink="http://www.w3.org/1999/xlink" zoomAndPan="magnify" preserveAspectRatio="xMidYMid meet" version="1.0" viewBox="16 49.51 347.85 185.25"><defs><g/><clipPath id="89f9b0911c"><path d="M 178.597656 49.507812 L 363.847656 49.507812 L 363.847656 234.757812 L 178.597656 234.757812 Z M 178.597656 49.507812 " clip-rule="nonzero"/></clipPath></defs><g clip-path="url(#89f9b0911c)"><path fill="#00d8ff" d="M 178.597656 49.507812 L 178.597656 234.757812 L 363.847656 234.757812 L 363.847656 49.507812 Z M 359.117188 230.027344 L 183.328125 230.027344 L 183.328125 54.238281 L 359.113281 54.238281 L 359.113281 230.027344 Z M 359.117188 230.027344 " fill-opacity="1" fill-rule="nonzero"/></g><g fill="#ffffff" fill-opacity="1"><g transform="translate(6.947406, 176.590205)"><g><path d="M 37.695312 -34.054688 C 45.066406 -35.640625 49.636719 -40.867188 49.636719 -48.796875 C 49.636719 -57.847656 43.386719 -63.351562 33.496094 -64.191406 C 30.324219 -64.378906 28.644531 -64.378906 25.9375 -64.378906 L 9.050781 -64.378906 L 9.050781 0 L 27.710938 0 C 30.136719 0 31.910156 0 34.519531 -0.28125 C 43.851562 -1.027344 52.0625 -6.902344 52.0625 -17.539062 C 52.0625 -26.402344 47.210938 -32.28125 37.695312 -34.054688 Z M 12.59375 -61.300781 L 26.125 -61.300781 C 28.363281 -61.300781 29.949219 -61.300781 32.003906 -61.207031 C 39 -60.832031 45.8125 -57.566406 45.8125 -48.328125 C 45.8125 -39.28125 39.1875 -35.921875 32.46875 -35.359375 C 30.417969 -35.269531 28.828125 -35.175781 27.335938 -35.175781 L 12.59375 -35.175781 Z M 33.402344 -3.265625 C 32.1875 -3.171875 30.601562 -3.078125 29.109375 -3.078125 L 12.59375 -3.078125 L 12.59375 -32.09375 L 28.550781 -32.09375 C 30.042969 -32.09375 31.347656 -32.09375 33.496094 -31.910156 C 44.410156 -31.347656 48.238281 -24.816406 48.238281 -17.261719 C 48.238281 -7.929688 40.867188 -3.824219 33.402344 -3.265625 Z M 33.402344 -3.265625 "/></g></g></g><g fill="#ffffff" fill-opacity="1"><g transform="translate(62.643985, 176.590205)"><g><path d="M 49.824219 -3.078125 L 12.59375 -3.078125 L 12.59375 -30.695312 L 46.742188 -30.695312 L 46.742188 -33.683594 L 12.59375 -33.683594 L 12.59375 -61.390625 L 48.890625 -61.390625 L 48.890625 -64.378906 L 9.050781 -64.378906 L 9.050781 0 L 49.824219 0 Z M 49.824219 -3.078125 "/></g></g></g><g fill="#ffffff" fill-opacity="1"><g transform="translate(115.355146, 176.590205)"><g><path d="M 54.582031 0 L 54.488281 -64.378906 L 51.035156 -64.378906 L 51.035156 -30.136719 C 51.035156 -21.738281 51.035156 -11.757812 51.222656 -3.359375 L 14.460938 -64.378906 L 9.050781 -64.378906 L 9.050781 0 L 12.59375 0 L 12.59375 -34.335938 C 12.59375 -42.730469 12.59375 -52.621094 12.410156 -61.019531 L 49.078125 0 Z M 54.582031 0 "/></g></g></g><g fill="#ffffff" fill-opacity="1"><g transform="translate(183.154168, 177.892949)"><g><path d="M 64.984375 -34.65625 C 64.984375 -27 63.515625 -20.601562 60.578125 -15.46875 C 57.648438 -10.332031 53.410156 -6.46875 47.859375 -3.875 C 42.304688 -1.289062 35.625 0 27.8125 0 L 8.5625 0 L 8.5625 -68 L 29.90625 -68 C 37.039062 -68 43.226562 -66.734375 48.46875 -64.203125 C 53.707031 -61.679688 57.769531 -57.945312 60.65625 -53 C 63.539062 -48.0625 64.984375 -41.945312 64.984375 -34.65625 Z M 50 -34.28125 C 50 -39.300781 49.265625 -43.429688 47.796875 -46.671875 C 46.328125 -49.921875 44.15625 -52.316406 41.28125 -53.859375 C 38.414062 -55.410156 34.875 -56.1875 30.65625 -56.1875 L 22.984375 -56.1875 L 22.984375 -11.90625 L 29.171875 -11.90625 C 36.203125 -11.90625 41.429688 -13.78125 44.859375 -17.53125 C 48.285156 -21.289062 50 -26.875 50 -34.28125 Z M 50 -34.28125 "/></g></g></g><g fill="#ffffff" fill-opacity="1"><g transform="translate(253.670162, 177.892949)"><g><path d="M 47.71875 0 L 8.5625 0 L 8.5625 -68 L 47.71875 -68 L 47.71875 -56.1875 L 22.984375 -56.1875 L 22.984375 -41.265625 L 46 -41.265625 L 46 -29.4375 L 22.984375 -29.4375 L 22.984375 -11.90625 L 47.71875 -11.90625 Z M 47.71875 0 "/></g></g></g><g fill="#ffffff" fill-opacity="1"><g transform="translate(307.022308, 177.892949)"><g><path d="M 48.703125 -18.890625 C 48.703125 -14.859375 47.722656 -11.351562 45.765625 -8.375 C 43.816406 -5.394531 40.972656 -3.097656 37.234375 -1.484375 C 33.492188 0.128906 28.957031 0.9375 23.625 0.9375 C 21.269531 0.9375 18.96875 0.78125 16.71875 0.46875 C 14.46875 0.15625 12.3125 -0.300781 10.25 -0.90625 C 8.1875 -1.507812 6.226562 -2.257812 4.375 -3.15625 L 4.375 -16.5625 C 7.59375 -15.132812 10.9375 -13.847656 14.40625 -12.703125 C 17.882812 -11.554688 21.332031 -10.984375 24.75 -10.984375 C 27.101562 -10.984375 29 -11.289062 30.4375 -11.90625 C 31.882812 -12.53125 32.929688 -13.382812 33.578125 -14.46875 C 34.234375 -15.550781 34.5625 -16.789062 34.5625 -18.1875 C 34.5625 -19.894531 33.988281 -21.351562 32.84375 -22.5625 C 31.695312 -23.769531 30.125 -24.898438 28.125 -25.953125 C 26.125 -27.003906 23.863281 -28.140625 21.34375 -29.359375 C 19.769531 -30.097656 18.050781 -31 16.1875 -32.0625 C 14.320312 -33.132812 12.550781 -34.445312 10.875 -36 C 9.207031 -37.550781 7.835938 -39.4375 6.765625 -41.65625 C 5.691406 -43.875 5.15625 -46.535156 5.15625 -49.640625 C 5.15625 -53.703125 6.085938 -57.171875 7.953125 -60.046875 C 9.816406 -62.929688 12.476562 -65.140625 15.9375 -66.671875 C 19.394531 -68.210938 23.476562 -68.984375 28.1875 -68.984375 C 31.71875 -68.984375 35.085938 -68.570312 38.296875 -67.75 C 41.515625 -66.925781 44.875 -65.738281 48.375 -64.1875 L 43.71875 -52.984375 C 40.59375 -54.253906 37.785156 -55.238281 35.296875 -55.9375 C 32.816406 -56.632812 30.289062 -56.984375 27.71875 -56.984375 C 25.925781 -56.984375 24.394531 -56.695312 23.125 -56.125 C 21.851562 -55.550781 20.890625 -54.742188 20.234375 -53.703125 C 19.578125 -52.660156 19.25 -51.457031 19.25 -50.09375 C 19.25 -48.476562 19.722656 -47.117188 20.671875 -46.015625 C 21.617188 -44.921875 23.046875 -43.863281 24.953125 -42.84375 C 26.859375 -41.820312 29.238281 -40.628906 32.09375 -39.265625 C 35.570312 -37.617188 38.539062 -35.898438 41 -34.109375 C 43.46875 -32.328125 45.367188 -30.234375 46.703125 -27.828125 C 48.035156 -25.429688 48.703125 -22.453125 48.703125 -18.890625 Z M 48.703125 -18.890625 "/></g></g></g></svg>