<svg xmlns="http://www.w3.org/2000/svg" xmlns:xlink="http://www.w3.org/1999/xlink" width="500" zoomAndPan="magnify" viewBox="0 0 375 374.999991" height="500" preserveAspectRatio="xMidYMid meet" version="1.0"><defs><clipPath id="d402b7280d"><path d="M 0 0.707031 L 374.335938 0.707031 L 374.335938 374.957031 L 0 374.957031 Z M 0 0.707031 " clip-rule="nonzero"/></clipPath></defs><path fill="#010101" d="M 335.660156 146.851562 C 335.660156 118.15625 324.5 91.144531 304.199219 70.84375 C 283.226562 49.871094 255.707031 39.382812 228.105469 39.382812 C 200.589844 39.382812 173.074219 49.871094 152.097656 70.84375 C 131.796875 91.144531 120.558594 118.15625 120.558594 146.851562 C 120.558594 175.628906 131.796875 202.640625 152.097656 222.941406 C 172.402344 243.246094 199.417969 254.402344 228.105469 254.402344 C 256.882812 254.402344 283.894531 243.246094 304.199219 222.941406 C 324.5 202.640625 335.660156 175.628906 335.660156 146.851562 Z M 312.921875 62.035156 C 335.574219 84.683594 348.074219 114.804688 348.074219 146.851562 C 348.074219 178.898438 335.574219 209.015625 312.921875 231.667969 C 290.273438 254.320312 260.15625 266.820312 228.105469 266.820312 C 196.140625 266.820312 166.027344 254.320312 143.375 231.667969 C 120.636719 209.015625 108.222656 178.898438 108.222656 146.851562 C 108.222656 114.804688 120.636719 84.683594 143.375 62.035156 C 190.105469 15.308594 266.195312 15.308594 312.921875 62.035156 " fill-opacity="1" fill-rule="nonzero"/><g clip-path="url(#d402b7280d)"><path fill="#010101" d="M 119.800781 280.410156 L 94.632812 255.15625 L 17.617188 332.171875 C 14.261719 335.527344 12.417969 340.058594 12.417969 344.757812 C 12.417969 349.539062 14.261719 353.984375 17.617188 357.425781 C 24.328125 364.136719 36.074219 364.136719 42.871094 357.425781 Z M 322.824219 241.484375 C 375.007812 189.300781 375.007812 104.398438 322.824219 52.21875 C 270.558594 0.0390625 185.65625 0.0390625 133.472656 52.21875 C 90.855469 94.835938 81.964844 161.195312 112 213.464844 C 113.425781 215.898438 113.003906 218.917969 110.992188 220.929688 L 98.992188 232.925781 C 96.480469 235.441406 96.480469 239.554688 98.992188 242.070312 L 132.972656 276.046875 C 135.488281 278.566406 139.515625 278.480469 142.03125 276.046875 L 154.113281 263.964844 C 155.285156 262.792969 156.882812 262.121094 158.476562 262.121094 C 159.566406 262.121094 160.574219 262.457031 161.578125 262.957031 C 213.84375 292.992188 280.121094 284.183594 322.824219 241.484375 Z M 331.550781 43.496094 C 388.597656 100.457031 388.597656 193.242188 331.550781 250.292969 C 303.445312 278.398438 265.859375 293.078125 228.023438 293.078125 C 204.617188 293.078125 181.125 287.457031 159.566406 276.046875 L 150.84375 284.773438 C 145.050781 290.5625 136.410156 291.734375 129.363281 288.378906 L 51.59375 366.152344 C 45.722656 372.023438 38.003906 374.957031 30.199219 374.957031 C 22.484375 374.957031 14.765625 372.023438 8.894531 366.152344 C 3.101562 360.445312 0 352.894531 0 344.757812 C 0 336.703125 3.101562 329.152344 8.894531 323.445312 L 86.664062 245.59375 C 83.304688 238.628906 84.398438 229.988281 90.183594 224.199219 L 98.992188 215.476562 C 68.960938 159.015625 79.28125 88.964844 124.75 43.496094 C 181.714844 -13.554688 274.5 -13.554688 331.550781 43.496094 " fill-opacity="1" fill-rule="nonzero"/></g><path fill="#00d8ff" d="M 293.964844 116.316406 C 295.976562 113.542969 295.304688 109.6875 292.453125 107.671875 L 267.117188 89.972656 C 265.773438 89.050781 264.097656 88.710938 262.503906 88.964844 C 260.824219 89.300781 259.398438 90.222656 258.476562 91.5625 L 220.558594 145.925781 L 200.839844 125.289062 C 198.492188 122.773438 194.550781 122.691406 192.117188 125.039062 L 169.71875 146.429688 C 168.542969 147.605469 167.871094 149.113281 167.789062 150.796875 C 167.789062 152.472656 168.375 153.984375 169.550781 155.242188 L 207.554688 195.007812 C 211.664062 199.203125 217.371094 201.632812 223.242188 201.632812 C 223.746094 201.632812 224.335938 201.632812 224.917969 201.550781 C 231.378906 201.046875 237.25 197.691406 241.027344 192.402344 Z M 304.199219 70.84375 C 324.5 91.144531 335.660156 118.15625 335.660156 146.851562 C 335.660156 175.628906 324.5 202.640625 304.199219 222.941406 C 283.894531 243.246094 256.882812 254.402344 228.105469 254.402344 C 199.417969 254.402344 172.402344 243.246094 152.097656 222.941406 C 131.796875 202.640625 120.558594 175.628906 120.558594 146.851562 C 120.558594 118.15625 131.796875 91.144531 152.097656 70.84375 C 173.074219 49.871094 200.589844 39.382812 228.105469 39.382812 C 255.707031 39.382812 283.226562 49.871094 304.199219 70.84375 " fill-opacity="1" fill-rule="nonzero"/><path fill="#ff4800" d="M 348.074219 146.851562 C 348.074219 114.804688 335.574219 84.683594 312.921875 62.035156 C 266.195312 15.308594 190.105469 15.308594 143.375 62.035156 C 120.636719 84.683594 108.222656 114.804688 108.222656 146.851562 C 108.222656 178.898438 120.636719 209.015625 143.375 231.667969 C 166.027344 254.320312 196.140625 266.820312 228.105469 266.820312 C 260.15625 266.820312 290.273438 254.320312 312.921875 231.667969 C 335.574219 209.015625 348.074219 178.898438 348.074219 146.851562 Z M 322.824219 52.21875 C 375.007812 104.398438 375.007812 189.300781 322.824219 241.484375 C 280.121094 284.183594 213.84375 292.992188 161.578125 262.957031 C 160.574219 262.457031 159.566406 262.121094 158.476562 262.121094 C 156.882812 262.121094 155.285156 262.792969 154.113281 263.964844 L 142.03125 276.046875 C 139.515625 278.480469 135.488281 278.566406 132.972656 276.046875 L 98.992188 242.070312 C 96.480469 239.554688 96.480469 235.441406 98.992188 232.925781 L 110.992188 220.929688 C 113.003906 218.917969 113.425781 215.898438 112 213.464844 C 81.964844 161.195312 90.855469 94.835938 133.472656 52.21875 C 185.65625 0.0390625 270.558594 0.0390625 322.824219 52.21875 " fill-opacity="1" fill-rule="nonzero"/><path fill="#010101" d="M 230.789062 185.273438 L 280.289062 114.300781 L 265.105469 103.730469 L 226.429688 159.183594 C 225.339844 160.691406 223.660156 161.699219 221.816406 161.867188 C 219.96875 161.953125 218.125 161.28125 216.863281 159.9375 L 196.140625 138.292969 L 182.804688 151.128906 L 216.527344 186.363281 C 218.460938 188.378906 221.144531 189.386719 223.996094 189.214844 C 226.679688 189.050781 229.199219 187.539062 230.789062 185.273438 Z M 292.453125 107.671875 C 295.304688 109.6875 295.976562 113.542969 293.964844 116.316406 L 241.027344 192.402344 C 237.25 197.691406 231.378906 201.046875 224.917969 201.550781 C 224.335938 201.632812 223.746094 201.632812 223.242188 201.632812 C 217.371094 201.632812 211.664062 199.203125 207.554688 195.007812 L 169.550781 155.242188 C 168.375 153.984375 167.789062 152.472656 167.789062 150.796875 C 167.871094 149.113281 168.542969 147.605469 169.71875 146.429688 L 192.117188 125.039062 C 194.550781 122.691406 198.492188 122.773438 200.839844 125.289062 L 220.558594 145.925781 L 258.476562 91.5625 C 259.398438 90.222656 260.824219 89.300781 262.503906 88.964844 C 264.097656 88.710938 265.773438 89.050781 267.117188 89.972656 L 292.453125 107.671875 " fill-opacity="1" fill-rule="nonzero"/><path fill="#ffffff" d="M 280.289062 114.300781 L 230.789062 185.273438 C 229.199219 187.539062 226.679688 189.050781 223.996094 189.214844 C 221.144531 189.386719 218.460938 188.378906 216.527344 186.363281 L 182.804688 151.128906 L 196.140625 138.292969 L 216.863281 159.9375 C 218.125 161.28125 219.96875 161.953125 221.816406 161.867188 C 223.660156 161.699219 225.339844 160.691406 226.429688 159.183594 L 265.105469 103.730469 L 280.289062 114.300781 " fill-opacity="1" fill-rule="nonzero"/><path fill="#edd39c" d="M 94.632812 255.15625 L 119.800781 280.410156 L 42.871094 357.425781 C 36.074219 364.136719 24.328125 364.136719 17.617188 357.425781 C 14.261719 353.984375 12.417969 349.539062 12.417969 344.757812 C 12.417969 340.058594 14.261719 335.527344 17.617188 332.171875 L 94.632812 255.15625 " fill-opacity="1" fill-rule="nonzero"/></svg>