<svg xmlns="http://www.w3.org/2000/svg" xmlns:xlink="http://www.w3.org/1999/xlink" width="500" zoomAndPan="magnify" viewBox="0 0 375 374.999991" height="500" preserveAspectRatio="xMidYMid meet" version="1.0"><defs><g/><clipPath id="c9221a43c0"><path d="M 187.5 172.171875 L 321.75 172.171875 L 321.75 306.421875 L 187.5 306.421875 Z M 187.5 172.171875 " clip-rule="nonzero"/></clipPath></defs><path fill="#000000" d="M 375 187.5 C 375 190.570312 374.925781 193.636719 374.773438 196.699219 C 374.625 199.765625 374.398438 202.824219 374.097656 205.878906 C 373.796875 208.933594 373.421875 211.976562 372.96875 215.011719 C 372.519531 218.046875 371.996094 221.070312 371.398438 224.078125 C 370.796875 227.089844 370.125 230.082031 369.378906 233.058594 C 368.636719 236.035156 367.816406 238.992188 366.925781 241.929688 C 366.035156 244.863281 365.074219 247.777344 364.039062 250.667969 C 363.003906 253.554688 361.902344 256.417969 360.726562 259.253906 C 359.554688 262.089844 358.308594 264.894531 356.996094 267.667969 C 355.6875 270.441406 354.308594 273.179688 352.859375 275.886719 C 351.414062 278.59375 349.902344 281.261719 348.324219 283.894531 C 346.746094 286.527344 345.105469 289.117188 343.402344 291.667969 C 341.695312 294.222656 339.929688 296.730469 338.101562 299.195312 C 336.273438 301.660156 334.386719 304.078125 332.4375 306.449219 C 330.492188 308.820312 328.488281 311.144531 326.429688 313.417969 C 324.367188 315.691406 322.253906 317.914062 320.082031 320.082031 C 317.914062 322.253906 315.691406 324.367188 313.417969 326.429688 C 311.144531 328.488281 308.820312 330.492188 306.449219 332.4375 C 304.078125 334.386719 301.660156 336.273438 299.195312 338.101562 C 296.730469 339.929688 294.222656 341.695312 291.667969 343.402344 C 289.117188 345.105469 286.527344 346.746094 283.894531 348.324219 C 281.261719 349.902344 278.59375 351.414062 275.886719 352.859375 C 273.179688 354.308594 270.441406 355.6875 267.667969 356.996094 C 264.894531 358.308594 262.089844 359.554688 259.253906 360.726562 C 256.417969 361.902344 253.554688 363.003906 250.667969 364.039062 C 247.777344 365.074219 244.863281 366.035156 241.929688 366.925781 C 238.992188 367.816406 236.035156 368.636719 233.058594 369.378906 C 230.082031 370.125 227.089844 370.796875 224.078125 371.398438 C 221.070312 371.996094 218.046875 372.519531 215.011719 372.96875 C 211.976562 373.421875 208.933594 373.796875 205.878906 374.097656 C 202.824219 374.398438 199.765625 374.625 196.699219 374.773438 C 193.636719 374.925781 190.570312 375 187.5 375 C 184.429688 375 181.363281 374.925781 178.300781 374.773438 C 175.234375 374.625 172.175781 374.398438 169.121094 374.097656 C 166.066406 373.796875 163.023438 373.421875 159.988281 372.96875 C 156.953125 372.519531 153.929688 371.996094 150.921875 371.398438 C 147.910156 370.796875 144.917969 370.125 141.941406 369.378906 C 138.964844 368.636719 136.007812 367.816406 133.070312 366.925781 C 130.136719 366.035156 127.222656 365.074219 124.332031 364.039062 C 121.445312 363.003906 118.582031 361.902344 115.746094 360.726562 C 112.910156 359.554688 110.105469 358.308594 107.332031 356.996094 C 104.558594 355.6875 101.820312 354.308594 99.113281 352.859375 C 96.40625 351.414062 93.738281 349.902344 91.105469 348.324219 C 88.472656 346.746094 85.882812 345.105469 83.332031 343.402344 C 80.777344 341.695312 78.269531 339.929688 75.804688 338.101562 C 73.339844 336.273438 70.921875 334.386719 68.550781 332.4375 C 66.179688 330.492188 63.855469 328.488281 61.582031 326.429688 C 59.308594 324.367188 57.085938 322.253906 54.917969 320.082031 C 52.746094 317.914062 50.632812 315.691406 48.570312 313.417969 C 46.511719 311.144531 44.507812 308.820312 42.558594 306.449219 C 40.613281 304.078125 38.726562 301.660156 36.898438 299.195312 C 35.070312 296.730469 33.304688 294.222656 31.597656 291.667969 C 29.894531 289.117188 28.253906 286.527344 26.675781 283.894531 C 25.097656 281.261719 23.585938 278.59375 22.140625 275.886719 C 20.691406 273.179688 19.3125 270.441406 18.003906 267.667969 C 16.691406 264.890625 15.445312 262.089844 14.273438 259.253906 C 13.097656 256.417969 11.996094 253.554688 10.960938 250.667969 C 9.925781 247.777344 8.964844 244.863281 8.074219 241.929688 C 7.183594 238.992188 6.363281 236.035156 5.621094 233.058594 C 4.875 230.082031 4.203125 227.089844 3.601562 224.078125 C 3.003906 221.070312 2.480469 218.046875 2.03125 215.011719 C 1.578125 211.976562 1.203125 208.933594 0.902344 205.878906 C 0.601562 202.824219 0.375 199.765625 0.226562 196.699219 C 0.0742188 193.636719 0 190.570312 0 187.5 C 0 184.429688 0.0742188 181.363281 0.226562 178.300781 C 0.375 175.234375 0.601562 172.175781 0.902344 169.121094 C 1.203125 166.066406 1.578125 163.023438 2.03125 159.988281 C 2.480469 156.953125 3.003906 153.929688 3.601562 150.921875 C 4.203125 147.910156 4.875 144.917969 5.621094 141.941406 C 6.363281 138.964844 7.183594 136.007812 8.074219 133.070312 C 8.964844 130.136719 9.925781 127.222656 10.960938 124.332031 C 11.996094 121.445312 13.097656 118.582031 14.273438 115.746094 C 15.445312 112.910156 16.691406 110.105469 18.003906 107.332031 C 19.3125 104.558594 20.691406 101.820312 22.140625 99.113281 C 23.585938 96.40625 25.097656 93.738281 26.675781 91.105469 C 28.253906 88.472656 29.894531 85.882812 31.597656 83.332031 C 33.304688 80.777344 35.070312 78.269531 36.898438 75.804688 C 38.726562 73.339844 40.613281 70.921875 42.558594 68.550781 C 44.507812 66.179688 46.511719 63.855469 48.570312 61.582031 C 50.632812 59.308594 52.746094 57.085938 54.917969 54.917969 C 57.085938 52.746094 59.308594 50.632812 61.582031 48.570312 C 63.855469 46.511719 66.179688 44.507812 68.550781 42.558594 C 70.921875 40.613281 73.339844 38.726562 75.804688 36.898438 C 78.269531 35.070312 80.777344 33.304688 83.332031 31.597656 C 85.882812 29.894531 88.472656 28.253906 91.105469 26.675781 C 93.738281 25.097656 96.40625 23.585938 99.113281 22.140625 C 101.820312 20.691406 104.558594 19.3125 107.332031 18.003906 C 110.105469 16.691406 112.910156 15.445312 115.746094 14.273438 C 118.582031 13.097656 121.445312 11.996094 124.332031 10.960938 C 127.222656 9.925781 130.136719 8.964844 133.070312 8.074219 C 136.007812 7.183594 138.964844 6.363281 141.941406 5.617188 C 144.917969 4.875 147.910156 4.203125 150.921875 3.601562 C 153.929688 3.003906 156.953125 2.480469 159.988281 2.03125 C 163.023438 1.578125 166.066406 1.203125 169.121094 0.902344 C 172.175781 0.601562 175.234375 0.375 178.300781 0.226562 C 181.363281 0.0742188 184.429688 0 187.5 0 C 190.570312 0 193.636719 0.0742188 196.699219 0.226562 C 199.765625 0.375 202.824219 0.601562 205.878906 0.902344 C 208.933594 1.203125 211.976562 1.578125 215.011719 2.03125 C 218.046875 2.480469 221.070312 3.003906 224.078125 3.601562 C 227.089844 4.203125 230.082031 4.875 233.058594 5.617188 C 236.035156 6.363281 238.992188 7.183594 241.929688 8.074219 C 244.863281 8.964844 247.777344 9.925781 250.667969 10.960938 C 253.554688 11.996094 256.417969 13.097656 259.253906 14.273438 C 262.089844 15.445312 264.894531 16.691406 267.667969 18.003906 C 270.441406 19.3125 273.179688 20.691406 275.886719 22.140625 C 278.59375 23.585938 281.261719 25.097656 283.894531 26.675781 C 286.527344 28.253906 289.117188 29.894531 291.667969 31.597656 C 294.222656 33.304688 296.730469 35.070312 299.195312 36.898438 C 301.660156 38.726562 304.078125 40.613281 306.449219 42.558594 C 308.820312 44.507812 311.144531 46.511719 313.417969 48.570312 C 315.691406 50.632812 317.914062 52.746094 320.082031 54.917969 C 322.253906 57.085938 324.367188 59.308594 326.429688 61.582031 C 328.488281 63.855469 330.492188 66.179688 332.4375 68.550781 C 334.386719 70.921875 336.273438 73.339844 338.101562 75.804688 C 339.929688 78.269531 341.695312 80.777344 343.402344 83.332031 C 345.105469 85.882812 346.746094 88.472656 348.324219 91.105469 C 349.902344 93.738281 351.414062 96.40625 352.859375 99.113281 C 354.308594 101.820312 355.6875 104.558594 356.996094 107.332031 C 358.308594 110.105469 359.554688 112.910156 360.726562 115.746094 C 361.902344 118.582031 363.003906 121.445312 364.039062 124.332031 C 365.074219 127.222656 366.035156 130.136719 366.925781 133.070312 C 367.816406 136.007812 368.636719 138.964844 369.378906 141.941406 C 370.125 144.917969 370.796875 147.910156 371.398438 150.921875 C 371.996094 153.929688 372.519531 156.953125 372.96875 159.988281 C 373.421875 163.023438 373.796875 166.066406 374.097656 169.121094 C 374.398438 172.175781 374.625 175.234375 374.773438 178.300781 C 374.925781 181.363281 375 184.429688 375 187.5 Z M 375 187.5 " fill-opacity="1" fill-rule="nonzero"/><g clip-path="url(#c9221a43c0)"><path fill="#f7df1e" d="M 187.5 172.171875 L 321.75 172.171875 L 321.75 306.421875 L 187.5 306.421875 Z M 187.5 172.171875 " fill-opacity="1" fill-rule="nonzero"/></g><path fill="#000000" d="M 222.800781 284.359375 L 233.074219 278.148438 C 235.054688 281.660156 236.859375 284.632812 241.183594 284.632812 C 245.328125 284.632812 247.945312 283.007812 247.945312 276.703125 L 247.945312 233.808594 L 260.554688 233.808594 L 260.554688 276.882812 C 260.554688 289.945312 252.898438 295.898438 241.722656 295.898438 C 231.632812 295.898438 225.773438 290.671875 222.796875 284.359375 " fill-opacity="1" fill-rule="nonzero"/><path fill="#000000" d="M 267.410156 283.007812 L 277.683594 277.0625 C 280.390625 281.476562 283.902344 284.722656 290.117188 284.722656 C 295.347656 284.722656 298.679688 282.113281 298.679688 278.503906 C 298.679688 274.175781 295.257812 272.644531 289.488281 270.125 L 286.335938 268.769531 C 277.234375 264.894531 271.195312 260.035156 271.195312 249.753906 C 271.195312 240.292969 278.402344 233.085938 289.671875 233.085938 C 297.691406 233.085938 303.457031 235.878906 307.601562 243.179688 L 297.777344 249.488281 C 295.617188 245.613281 293.273438 244.082031 289.671875 244.082031 C 285.972656 244.082031 283.628906 246.425781 283.628906 249.488281 C 283.628906 253.273438 285.972656 254.804688 291.382812 257.148438 L 294.53125 258.496094 C 305.257812 263.097656 311.296875 267.777344 311.296875 278.324219 C 311.296875 289.679688 302.378906 295.898438 290.390625 295.898438 C 278.675781 295.898438 271.105469 290.308594 267.410156 283.007812 " fill-opacity="1" fill-rule="nonzero"/><g fill="#ffffff" fill-opacity="1"><g transform="translate(45.00005, 123.485248)"><g><path d="M 33.34375 0 L 5.140625 0 L 5.140625 -47.5 L 33.34375 -47.5 L 33.34375 -37.203125 L 17.96875 -37.203125 L 17.96875 -29.734375 L 32.203125 -29.734375 L 32.203125 -19.4375 L 17.96875 -19.4375 L 17.96875 -10.46875 L 33.34375 -10.46875 Z M 33.34375 0 "/></g></g></g><g fill="#ffffff" fill-opacity="1"><g transform="translate(81.516255, 123.485248)"><g><path d="M 47.921875 0 L 33.078125 0 L 23.8125 -14.84375 L 14.65625 0 L 0.125 0 L 15.890625 -24.3125 L 1.078125 -47.5 L 15.296875 -47.5 L 23.875 -32.8125 L 32.140625 -47.5 L 46.796875 -47.5 L 31.75 -23.296875 Z M 47.921875 0 "/></g></g></g><g fill="#ffffff" fill-opacity="1"><g transform="translate(129.630578, 123.485248)"><g><path d="M 39.609375 -32.390625 C 39.609375 -27.085938 38.039062 -22.988281 34.90625 -20.09375 C 31.78125 -17.207031 27.335938 -15.765625 21.578125 -15.765625 L 17.96875 -15.765625 L 17.96875 0 L 5.140625 0 L 5.140625 -47.5 L 21.578125 -47.5 C 27.578125 -47.5 32.082031 -46.1875 35.09375 -43.5625 C 38.101562 -40.945312 39.609375 -37.222656 39.609375 -32.390625 Z M 17.96875 -26.21875 L 20.3125 -26.21875 C 22.238281 -26.21875 23.769531 -26.757812 24.90625 -27.84375 C 26.039062 -28.925781 26.609375 -30.421875 26.609375 -32.328125 C 26.609375 -35.535156 24.832031 -37.140625 21.28125 -37.140625 L 17.96875 -37.140625 Z M 17.96875 -26.21875 "/></g></g></g><g fill="#ffffff" fill-opacity="1"><g transform="translate(171.669695, 123.485248)"><g><path d="M 17.96875 -17.28125 L 17.96875 0 L 5.140625 0 L 5.140625 -47.5 L 20.703125 -47.5 C 33.609375 -47.5 40.0625 -42.820312 40.0625 -33.46875 C 40.0625 -27.96875 37.375 -23.710938 32 -20.703125 L 45.84375 0 L 31.296875 0 L 21.21875 -17.28125 Z M 17.96875 -26.9375 L 20.375 -26.9375 C 24.851562 -26.9375 27.09375 -28.921875 27.09375 -32.890625 C 27.09375 -36.160156 24.894531 -37.796875 20.5 -37.796875 L 17.96875 -37.796875 Z M 17.96875 -26.9375 "/></g></g></g><g fill="#ffffff" fill-opacity="1"><g transform="translate(216.697684, 123.485248)"><g><path d="M 33.34375 0 L 5.140625 0 L 5.140625 -47.5 L 33.34375 -47.5 L 33.34375 -37.203125 L 17.96875 -37.203125 L 17.96875 -29.734375 L 32.203125 -29.734375 L 32.203125 -19.4375 L 17.96875 -19.4375 L 17.96875 -10.46875 L 33.34375 -10.46875 Z M 33.34375 0 "/></g></g></g><g fill="#ffffff" fill-opacity="1"><g transform="translate(253.213889, 123.485248)"><g><path d="M 36.203125 -14.421875 C 36.203125 -11.484375 35.453125 -8.867188 33.953125 -6.578125 C 32.460938 -4.296875 30.304688 -2.519531 27.484375 -1.25 C 24.671875 0.0195312 21.367188 0.65625 17.578125 0.65625 C 14.410156 0.65625 11.753906 0.429688 9.609375 -0.015625 C 7.472656 -0.460938 5.242188 -1.238281 2.921875 -2.34375 L 2.921875 -13.78125 C 5.367188 -12.519531 7.914062 -11.535156 10.5625 -10.828125 C 13.207031 -10.128906 15.632812 -9.78125 17.84375 -9.78125 C 19.75 -9.78125 21.144531 -10.109375 22.03125 -10.765625 C 22.914062 -11.429688 23.359375 -12.285156 23.359375 -13.328125 C 23.359375 -13.972656 23.179688 -14.539062 22.828125 -15.03125 C 22.472656 -15.519531 21.898438 -16.007812 21.109375 -16.5 C 20.316406 -17 18.207031 -18.019531 14.78125 -19.5625 C 11.6875 -20.96875 9.363281 -22.332031 7.8125 -23.65625 C 6.257812 -24.976562 5.109375 -26.492188 4.359375 -28.203125 C 3.617188 -29.910156 3.25 -31.9375 3.25 -34.28125 C 3.25 -38.65625 4.835938 -42.066406 8.015625 -44.515625 C 11.203125 -46.960938 15.582031 -48.1875 21.15625 -48.1875 C 26.070312 -48.1875 31.085938 -47.050781 36.203125 -44.78125 L 32.265625 -34.859375 C 27.828125 -36.898438 23.992188 -37.921875 20.765625 -37.921875 C 19.097656 -37.921875 17.882812 -37.628906 17.125 -37.046875 C 16.363281 -36.460938 15.984375 -35.734375 15.984375 -34.859375 C 15.984375 -33.929688 16.460938 -33.097656 17.421875 -32.359375 C 18.390625 -31.628906 21.007812 -30.285156 25.28125 -28.328125 C 29.375 -26.492188 32.21875 -24.519531 33.8125 -22.40625 C 35.40625 -20.289062 36.203125 -17.628906 36.203125 -14.421875 Z M 36.203125 -14.421875 "/></g></g></g><g fill="#ffffff" fill-opacity="1"><g transform="translate(291.614382, 123.485248)"><g><path d="M 36.203125 -14.421875 C 36.203125 -11.484375 35.453125 -8.867188 33.953125 -6.578125 C 32.460938 -4.296875 30.304688 -2.519531 27.484375 -1.25 C 24.671875 0.0195312 21.367188 0.65625 17.578125 0.65625 C 14.410156 0.65625 11.753906 0.429688 9.609375 -0.015625 C 7.472656 -0.460938 5.242188 -1.238281 2.921875 -2.34375 L 2.921875 -13.78125 C 5.367188 -12.519531 7.914062 -11.535156 10.5625 -10.828125 C 13.207031 -10.128906 15.632812 -9.78125 17.84375 -9.78125 C 19.75 -9.78125 21.144531 -10.109375 22.03125 -10.765625 C 22.914062 -11.429688 23.359375 -12.285156 23.359375 -13.328125 C 23.359375 -13.972656 23.179688 -14.539062 22.828125 -15.03125 C 22.472656 -15.519531 21.898438 -16.007812 21.109375 -16.5 C 20.316406 -17 18.207031 -18.019531 14.78125 -19.5625 C 11.6875 -20.96875 9.363281 -22.332031 7.8125 -23.65625 C 6.257812 -24.976562 5.109375 -26.492188 4.359375 -28.203125 C 3.617188 -29.910156 3.25 -31.9375 3.25 -34.28125 C 3.25 -38.65625 4.835938 -42.066406 8.015625 -44.515625 C 11.203125 -46.960938 15.582031 -48.1875 21.15625 -48.1875 C 26.070312 -48.1875 31.085938 -47.050781 36.203125 -44.78125 L 32.265625 -34.859375 C 27.828125 -36.898438 23.992188 -37.921875 20.765625 -37.921875 C 19.097656 -37.921875 17.882812 -37.628906 17.125 -37.046875 C 16.363281 -36.460938 15.984375 -35.734375 15.984375 -34.859375 C 15.984375 -33.929688 16.460938 -33.097656 17.421875 -32.359375 C 18.390625 -31.628906 21.007812 -30.285156 25.28125 -28.328125 C 29.375 -26.492188 32.21875 -24.519531 33.8125 -22.40625 C 35.40625 -20.289062 36.203125 -17.628906 36.203125 -14.421875 Z M 36.203125 -14.421875 "/></g></g></g></svg>