<svg xmlns="http://www.w3.org/2000/svg" xmlns:xlink="http://www.w3.org/1999/xlink" width="500" zoomAndPan="magnify" viewBox="0 0 375 374.999991" height="500" preserveAspectRatio="xMidYMid meet" version="1.0"><defs><clipPath id="f9179b68b4"><path d="M 16.703125 0 L 357.953125 0 L 357.953125 342 L 16.703125 342 Z M 16.703125 0 " clip-rule="nonzero"/></clipPath></defs><g clip-path="url(#f9179b68b4)"><path fill="#ff4800" d="M 357.96875 170.808594 C 357.96875 265.121094 281.601562 341.566406 187.382812 341.566406 C 93.167969 341.566406 16.796875 265.121094 16.796875 170.808594 C 16.792969 76.5 93.167969 0.0546875 187.382812 0.0546875 C 281.601562 0.0507812 357.96875 76.5 357.96875 170.808594 " fill-opacity="1" fill-rule="nonzero"/></g><path fill="#00d8ff" d="M 286.902344 342.035156 C 278.472656 348.339844 269.414062 353.863281 259.84375 358.484375 C 258.386719 359.191406 256.921875 359.863281 255.457031 360.527344 C 234.664062 369.855469 211.636719 375.042969 187.382812 375.042969 C 163.128906 375.042969 140.101562 369.855469 119.324219 360.527344 C 117.835938 359.863281 116.367188 359.191406 114.925781 358.484375 C 105.355469 353.851562 96.296875 348.339844 87.867188 342.035156 C 89.34375 309.023438 106.863281 280.191406 132.8125 263.164062 C 148.488281 252.867188 167.234375 246.886719 187.382812 246.886719 C 190.457031 246.886719 193.5 247.027344 196.484375 247.300781 C 213.179688 248.8125 228.667969 254.433594 241.953125 263.164062 C 253.902344 271.003906 264.058594 281.34375 271.683594 293.433594 C 280.632812 307.621094 286.097656 324.222656 286.902344 342.035156 " fill-opacity="1" fill-rule="nonzero"/><path fill="#fbd5c0" d="M 241.953125 263.164062 C 240.433594 274.675781 235.359375 285.082031 227.855469 293.214844 C 217.796875 304.121094 203.394531 310.960938 187.382812 310.960938 C 161.738281 310.960938 140.1875 293.398438 134.074219 269.632812 C 133.53125 267.523438 133.105469 265.359375 132.8125 263.164062 C 148.488281 252.867188 167.234375 246.886719 187.382812 246.886719 C 190.457031 246.886719 193.5 247.015625 196.496094 247.300781 C 197.019531 247.34375 197.539062 247.398438 198.050781 247.453125 C 198.375 247.484375 198.703125 247.515625 199.015625 247.5625 C 199.375 247.59375 199.734375 247.648438 200.082031 247.691406 C 200.296875 247.714844 200.527344 247.746094 200.742188 247.777344 C 201.058594 247.8125 201.386719 247.867188 201.710938 247.910156 C 201.960938 247.941406 202.210938 247.984375 202.472656 248.015625 C 202.6875 248.050781 202.90625 248.082031 203.121094 248.125 C 203.492188 248.179688 203.851562 248.246094 204.21875 248.300781 C 205.804688 248.570312 207.378906 248.875 208.933594 249.222656 L 209.976562 249.453125 C 210.171875 249.507812 210.378906 249.550781 210.574219 249.605469 C 210.941406 249.691406 211.324219 249.777344 211.683594 249.875 C 211.746094 249.886719 211.800781 249.898438 211.84375 249.910156 C 212.3125 250.027344 212.777344 250.148438 213.234375 250.277344 C 213.734375 250.398438 214.222656 250.539062 214.703125 250.679688 C 215.253906 250.832031 215.796875 250.996094 216.351562 251.160156 C 216.777344 251.289062 217.199219 251.421875 217.625 251.5625 C 217.894531 251.648438 218.175781 251.734375 218.4375 251.824219 C 218.882812 251.964844 219.328125 252.117188 219.761719 252.269531 C 220.304688 252.453125 220.839844 252.636719 221.371094 252.835938 C 221.414062 252.855469 221.445312 252.867188 221.480469 252.878906 C 222.035156 253.074219 222.578125 253.28125 223.121094 253.488281 C 223.519531 253.648438 223.933594 253.800781 224.347656 253.976562 C 225.421875 254.398438 226.476562 254.84375 227.519531 255.300781 L 228.886719 255.921875 C 229.300781 256.105469 229.710938 256.300781 230.125 256.5 C 230.503906 256.683594 230.875 256.855469 231.246094 257.042969 C 231.589844 257.203125 231.929688 257.378906 232.265625 257.554688 C 232.484375 257.660156 232.710938 257.769531 232.929688 257.890625 C 233.828125 258.347656 234.710938 258.824219 235.578125 259.304688 C 235.894531 259.476562 236.21875 259.664062 236.523438 259.835938 C 236.730469 259.957031 236.925781 260.066406 237.121094 260.171875 L 237.859375 260.609375 L 238.609375 261.066406 L 239.097656 261.359375 C 239.5625 261.628906 240.019531 261.914062 240.476562 262.207031 C 240.976562 262.523438 241.464844 262.835938 241.953125 263.164062 " fill-opacity="1" fill-rule="nonzero"/><path fill="#fbd5c0" d="M 211.636719 219.542969 L 211.636719 267.304688 C 211.636719 279.386719 201.765625 289.28125 189.699219 289.28125 L 185.070312 289.28125 C 173.003906 289.28125 163.140625 279.386719 163.140625 267.304688 L 163.140625 219.542969 C 163.140625 207.460938 173.003906 197.589844 185.070312 197.589844 L 189.699219 197.589844 C 201.765625 197.589844 211.636719 207.460938 211.636719 219.542969 " fill-opacity="1" fill-rule="nonzero"/><path fill="#f8a29e" d="M 211.636719 219.542969 L 211.636719 244.820312 C 204.425781 248.832031 196.78125 251.160156 189.011719 251.160156 C 179.855469 251.160156 171.125 248.617188 163.140625 244.167969 L 163.140625 219.542969 C 163.140625 207.460938 173.003906 197.589844 185.070312 197.589844 L 189.699219 197.589844 C 201.765625 197.589844 211.636719 207.460938 211.636719 219.542969 " fill-opacity="1" fill-rule="nonzero"/><path fill="#fbd5c0" d="M 246.527344 201.125 C 246.527344 201.125 257.886719 197.253906 265.144531 184.574219 C 273.03125 170.808594 268.078125 162.230469 266.511719 160.371094 C 262.242188 155.296875 255.652344 158.558594 254.566406 160.371094 C 253.476562 162.1875 237.75 190.785156 246.527344 201.125 " fill-opacity="1" fill-rule="nonzero"/><path fill="#f8a29e" d="M 257.660156 164.882812 C 257.660156 164.882812 264.871094 165.808594 262.339844 175.953125 C 259.800781 186.109375 253.140625 190.121094 244.082031 195.304688 C 235.035156 200.492188 248.613281 166.949219 257.660156 164.882812 " fill-opacity="1" fill-rule="nonzero"/><path fill="#fbd5c0" d="M 131.195312 201.125 C 131.195312 201.125 119.832031 197.253906 112.578125 184.574219 C 104.679688 170.808594 109.632812 162.230469 111.199219 160.371094 C 115.46875 155.296875 122.058594 158.558594 123.148438 160.371094 C 124.234375 162.1875 139.972656 190.785156 131.195312 201.125 " fill-opacity="1" fill-rule="nonzero"/><path fill="#f8a29e" d="M 120.050781 164.882812 C 120.050781 164.882812 112.847656 165.808594 115.378906 175.953125 C 117.910156 186.109375 124.582031 190.121094 133.628906 195.304688 C 142.6875 200.492188 129.109375 166.949219 120.050781 164.882812 " fill-opacity="1" fill-rule="nonzero"/><path fill="#fbd5c0" d="M 257.660156 158.1875 C 257.660156 116.511719 226.933594 82.71875 189.011719 82.71875 C 151.105469 82.71875 120.355469 116.511719 120.355469 158.1875 C 120.355469 199.863281 151.105469 243.429688 189.011719 243.429688 C 224.640625 243.429688 257.660156 199.515625 257.660156 158.1875 " fill-opacity="1" fill-rule="nonzero"/><path fill="#010101" d="M 195.195312 127.753906 C 195.195312 127.753906 208.109375 169.34375 256.683594 165.222656 C 256.683594 165.222656 265.164062 152.945312 262.296875 126.253906 C 259.0625 96.167969 232.4375 70.859375 189.011719 79.914062 C 189.011719 79.914062 185.046875 101.300781 195.195312 127.753906 " fill-opacity="1" fill-rule="nonzero"/><path fill="#010101" d="M 197.367188 82.71875 C 197.367188 82.71875 199.167969 74.847656 192.652344 68.683594 C 186.132812 62.519531 99.835938 75.175781 120.355469 158.1875 C 120.355469 158.1875 140.472656 108.542969 193.738281 104.191406 L 197.367188 82.71875 " fill-opacity="1" fill-rule="nonzero"/></svg>