<svg xmlns="http://www.w3.org/2000/svg" xmlns:xlink="http://www.w3.org/1999/xlink" width="500" zoomAndPan="magnify" viewBox="0 0 375 374.999991" height="500" preserveAspectRatio="xMidYMid meet" version="1.0"><defs><clipPath id="f6162645c0"><path d="M 0 23.4375 L 375 23.4375 L 375 351.9375 L 0 351.9375 Z M 0 23.4375 " clip-rule="nonzero"/></clipPath></defs><g clip-path="url(#f6162645c0)"><path fill="#ff4800" d="M 14.867188 75.890625 C -15.539062 126.039062 5.882812 174.851562 32.800781 200.757812 L 190.199219 351.9375 L 344.273438 201.296875 C 369.308594 173.429688 378.90625 143.867188 373.574219 110.949219 C 366.214844 65.414062 328.734375 30.089844 282.433594 25.042969 C 254.035156 21.980469 226.601562 30.027344 205.195312 47.839844 C 199.429688 52.632812 194.28125 57.988281 189.792969 63.8125 C 184.464844 57.183594 178.21875 51.117188 171.15625 45.742188 C 146.539062 27.007812 115.199219 19.570312 85.09375 25.355469 C 56.582031 30.871094 30.992188 49.28125 14.867188 75.890625 " fill-opacity="1" fill-rule="nonzero"/></g></svg>