<svg xmlns="http://www.w3.org/2000/svg" xmlns:xlink="http://www.w3.org/1999/xlink" width="500" zoomAndPan="magnify" viewBox="0 0 375 374.999991" height="500" preserveAspectRatio="xMidYMid meet" version="1.0"><path fill="#ff4800" d="M 375 210.9375 L 375 164.0625 L 337.875 164.0625 C 336.179688 153.144531 333.390625 142.617188 329.496094 132.589844 L 361.585938 114.050781 L 338.148438 73.445312 L 306.105469 91.964844 C 299.238281 83.496094 291.550781 75.757812 283.035156 68.914062 L 301.574219 36.847656 L 260.96875 13.410156 L 242.429688 45.523438 C 232.40625 41.632812 221.878906 38.816406 210.9375 37.148438 L 210.9375 0 L 164.0625 0 L 164.0625 37.148438 C 153.167969 38.816406 142.640625 41.65625 132.613281 45.523438 L 114.074219 13.414062 L 73.46875 36.851562 L 91.964844 68.917969 C 83.496094 75.761719 75.761719 83.496094 68.9375 91.964844 L 36.851562 73.449219 L 13.414062 114.027344 L 45.546875 132.589844 C 41.65625 142.617188 38.839844 153.144531 37.171875 164.0625 L 0 164.0625 L 0 210.9375 L 37.171875 210.9375 C 38.839844 221.855469 41.65625 232.382812 45.546875 242.410156 L 13.414062 260.949219 L 36.851562 301.550781 L 68.941406 283.035156 C 75.761719 291.503906 83.496094 299.242188 91.964844 306.082031 L 73.472656 338.148438 L 114.074219 361.585938 L 132.617188 329.476562 C 142.640625 333.367188 153.167969 336.15625 164.0625 337.851562 L 164.0625 375 L 210.9375 375 L 210.9375 337.851562 C 221.878906 336.15625 232.410156 333.367188 242.433594 329.476562 L 260.972656 361.585938 L 301.578125 338.148438 L 283.035156 306.082031 C 291.550781 299.238281 299.242188 291.503906 306.109375 283.011719 L 338.152344 301.527344 L 361.589844 260.949219 L 329.5 242.40625 C 333.390625 232.382812 336.183594 221.855469 337.878906 210.9375 Z M 187.5 292.96875 C 129.273438 292.96875 82.03125 245.726562 82.03125 187.5 C 82.03125 129.25 129.273438 82.03125 187.5 82.03125 C 245.726562 82.03125 292.96875 129.25 292.96875 187.5 C 292.96875 245.726562 245.726562 292.96875 187.5 292.96875 Z M 187.5 292.96875 " fill-opacity="1" fill-rule="nonzero"/></svg>