<svg xmlns="http://www.w3.org/2000/svg" xmlns:xlink="http://www.w3.org/1999/xlink" width="500" zoomAndPan="magnify" viewBox="0 0 375 374.999991" height="500" preserveAspectRatio="xMidYMid meet" version="1.0"><defs><filter x="0%" y="0%" width="100%" height="100%" id="id1"><feColorMatrix values="0 0 0 0 1 0 0 0 0 1 0 0 0 0 1 0 0 0 1 0" color-interpolation-filters="sRGB"/></filter><clipPath id="id2"><path d="M 320 37.5 L 375 37.5 L 375 197 L 320 197 Z M 320 37.5 " clip-rule="nonzero"/></clipPath><clipPath id="id3"><path d="M 325 37.5 L 370 37.5 L 370 82 L 325 82 Z M 325 37.5 " clip-rule="nonzero"/></clipPath><clipPath id="id4"><path d="M 110 37.5 L 165 37.5 L 165 197 L 110 197 Z M 110 37.5 " clip-rule="nonzero"/></clipPath><clipPath id="id5"><path d="M 114 37.5 L 159 37.5 L 159 82 L 114 82 Z M 114 37.5 " clip-rule="nonzero"/></clipPath><clipPath id="id6"><path d="M 0 37.5 L 55 37.5 L 55 197 L 0 197 Z M 0 37.5 " clip-rule="nonzero"/></clipPath><clipPath id="id7"><path d="M 4 37.5 L 49 37.5 L 49 82 L 4 82 Z M 4 37.5 " clip-rule="nonzero"/></clipPath><clipPath id="id8"><path d="M 215 37.5 L 270 37.5 L 270 197 L 215 197 Z M 215 37.5 " clip-rule="nonzero"/></clipPath><clipPath id="id9"><path d="M 220 37.5 L 264 37.5 L 264 82 L 220 82 Z M 220 37.5 " clip-rule="nonzero"/></clipPath><clipPath id="id10"><path d="M 320 37.5 L 375 37.5 L 375 198 L 320 198 Z M 320 37.5 " clip-rule="nonzero"/></clipPath><mask id="id11"><g filter="url(#id1)"><rect x="-37.5" width="450" fill="#000000" y="-37.499999" height="449.999989" fill-opacity="0.498"/></g></mask><clipPath id="id12"><path d="M 0.398438 0.679688 L 55 0.679688 L 55 160 L 0.398438 160 Z M 0.398438 0.679688 " clip-rule="nonzero"/></clipPath><clipPath id="id13"><path d="M 0.398438 49 L 55 49 L 55 160 L 0.398438 160 Z M 0.398438 49 " clip-rule="nonzero"/></clipPath><clipPath id="id14"><path d="M 5 0.679688 L 50 0.679688 L 50 45 L 5 45 Z M 5 0.679688 " clip-rule="nonzero"/></clipPath><clipPath id="id15"><rect x="0" width="55" y="0" height="161"/></clipPath><clipPath id="id16"><path d="M 109 37.5 L 165 37.5 L 165 198 L 109 198 Z M 109 37.5 " clip-rule="nonzero"/></clipPath><mask id="id17"><g filter="url(#id1)"><rect x="-37.5" width="450" fill="#000000" y="-37.499999" height="449.999989" fill-opacity="0.498"/></g></mask><clipPath id="id18"><path d="M 1 0.679688 L 55.878906 0.679688 L 55.878906 160 L 1 160 Z M 1 0.679688 " clip-rule="nonzero"/></clipPath><clipPath id="id19"><path d="M 1 49 L 55.878906 49 L 55.878906 160 L 1 160 Z M 1 49 " clip-rule="nonzero"/></clipPath><clipPath id="id20"><path d="M 5 0.679688 L 50 0.679688 L 50 45 L 5 45 Z M 5 0.679688 " clip-rule="nonzero"/></clipPath><clipPath id="id21"><rect x="0" width="56" y="0" height="161"/></clipPath><clipPath id="id22"><path d="M 0 37.5 L 55 37.5 L 55 198 L 0 198 Z M 0 37.5 " clip-rule="nonzero"/></clipPath><mask id="id23"><g filter="url(#id1)"><rect x="-37.5" width="450" fill="#000000" y="-37.499999" height="449.999989" fill-opacity="0.498"/></g></mask><clipPath id="id24"><path d="M 0 0.679688 L 54.480469 0.679688 L 54.480469 160 L 0 160 Z M 0 0.679688 " clip-rule="nonzero"/></clipPath><clipPath id="id25"><path d="M 0 49 L 54.480469 49 L 54.480469 160 L 0 160 Z M 0 49 " clip-rule="nonzero"/></clipPath><clipPath id="id26"><path d="M 4 0.679688 L 49 0.679688 L 49 45 L 4 45 Z M 4 0.679688 " clip-rule="nonzero"/></clipPath><clipPath id="id27"><rect x="0" width="55" y="0" height="161"/></clipPath><clipPath id="id28"><path d="M 215 37.5 L 270 37.5 L 270 198 L 215 198 Z M 215 37.5 " clip-rule="nonzero"/></clipPath><mask id="id29"><g filter="url(#id1)"><rect x="-37.5" width="450" fill="#000000" y="-37.499999" height="449.999989" fill-opacity="0.498"/></g></mask><clipPath id="id30"><path d="M 0.28125 0.679688 L 55 0.679688 L 55 160 L 0.28125 160 Z M 0.28125 0.679688 " clip-rule="nonzero"/></clipPath><clipPath id="id31"><path d="M 0.28125 49 L 55 49 L 55 160 L 0.28125 160 Z M 0.28125 49 " clip-rule="nonzero"/></clipPath><clipPath id="id32"><path d="M 5 0.679688 L 49 0.679688 L 49 45 L 5 45 Z M 5 0.679688 " clip-rule="nonzero"/></clipPath><clipPath id="id33"><rect x="0" width="55" y="0" height="161"/></clipPath><mask id="id34"><g filter="url(#id1)"><rect x="-37.5" width="450" fill="#000000" y="-37.499999" height="449.999989" fill-opacity="0.298"/></g></mask><clipPath id="id35"><path d="M 0.558594 0.121094 L 62 0.121094 L 62 179.640625 L 0.558594 179.640625 Z M 0.558594 0.121094 " clip-rule="nonzero"/></clipPath><clipPath id="id36"><path d="M 0.558594 55 L 62 55 L 62 179.640625 L 0.558594 179.640625 Z M 0.558594 55 " clip-rule="nonzero"/></clipPath><clipPath id="id37"><path d="M 5 0.121094 L 56 0.121094 L 56 50 L 5 50 Z M 5 0.121094 " clip-rule="nonzero"/></clipPath><clipPath id="id38"><rect x="0" width="62" y="0" height="180"/></clipPath><mask id="id39"><g filter="url(#id1)"><rect x="-37.5" width="450" fill="#000000" y="-37.499999" height="449.999989" fill-opacity="0.298"/></g></mask><clipPath id="id40"><path d="M 1 0.121094 L 62.761719 0.121094 L 62.761719 179.640625 L 1 179.640625 Z M 1 0.121094 " clip-rule="nonzero"/></clipPath><clipPath id="id41"><path d="M 1 55 L 62.761719 55 L 62.761719 179.640625 L 1 179.640625 Z M 1 55 " clip-rule="nonzero"/></clipPath><clipPath id="id42"><path d="M 6 0.121094 L 56 0.121094 L 56 50 L 6 50 Z M 6 0.121094 " clip-rule="nonzero"/></clipPath><clipPath id="id43"><rect x="0" width="63" y="0" height="180"/></clipPath><mask id="id44"><g filter="url(#id1)"><rect x="-37.5" width="450" fill="#000000" y="-37.499999" height="449.999989" fill-opacity="0.298"/></g></mask><clipPath id="id45"><path d="M 0.679688 0.121094 L 62 0.121094 L 62 179.640625 L 0.679688 179.640625 Z M 0.679688 0.121094 " clip-rule="nonzero"/></clipPath><clipPath id="id46"><path d="M 0.679688 55 L 62 55 L 62 179.640625 L 0.679688 179.640625 Z M 0.679688 55 " clip-rule="nonzero"/></clipPath><clipPath id="id47"><path d="M 5 0.121094 L 56 0.121094 L 56 50 L 5 50 Z M 5 0.121094 " clip-rule="nonzero"/></clipPath><clipPath id="id48"><rect x="0" width="63" y="0" height="180"/></clipPath><mask id="id49"><g filter="url(#id1)"><rect x="-37.5" width="450" fill="#000000" y="-37.499999" height="449.999989" fill-opacity="0.098"/></g></mask><clipPath id="id50"><path d="M 0.238281 1 L 68.640625 1 L 68.640625 200 L 0.238281 200 Z M 0.238281 1 " clip-rule="nonzero"/></clipPath><clipPath id="id51"><path d="M 0.238281 62 L 68.640625 62 L 68.640625 200 L 0.238281 200 Z M 0.238281 62 " clip-rule="nonzero"/></clipPath><clipPath id="id52"><rect x="0" width="69" y="0" height="201"/></clipPath><mask id="id53"><g filter="url(#id1)"><rect x="-37.5" width="450" fill="#000000" y="-37.499999" height="449.999989" fill-opacity="0.098"/></g></mask><clipPath id="id54"><path d="M 0.199219 1 L 68.601562 1 L 68.601562 200 L 0.199219 200 Z M 0.199219 1 " clip-rule="nonzero"/></clipPath><clipPath id="id55"><path d="M 0.199219 62 L 68.601562 62 L 68.601562 200 L 0.199219 200 Z M 0.199219 62 " clip-rule="nonzero"/></clipPath><clipPath id="id56"><rect x="0" width="69" y="0" height="201"/></clipPath><clipPath id="id57"><path d="M 150 137 L 227 137 L 227 358.5 L 150 358.5 Z M 150 137 " clip-rule="nonzero"/></clipPath><clipPath id="id58"><path d="M 150 205 L 227 205 L 227 358.5 L 150 358.5 Z M 150 205 " clip-rule="nonzero"/></clipPath><clipPath id="id59"><path d="M 150 137 L 228 137 L 228 358.5 L 150 358.5 Z M 150 137 " clip-rule="nonzero"/></clipPath><mask id="id60"><g filter="url(#id1)"><rect x="-37.5" width="450" fill="#000000" y="-37.499999" height="449.999989" fill-opacity="0.4"/></g></mask><clipPath id="id61"><path d="M 0.238281 0.28125 L 77 0.28125 L 77 221.5 L 0.238281 221.5 Z M 0.238281 0.28125 " clip-rule="nonzero"/></clipPath><clipPath id="id62"><path d="M 0.238281 68 L 77 68 L 77 221.5 L 0.238281 221.5 Z M 0.238281 68 " clip-rule="nonzero"/></clipPath><clipPath id="id63"><path d="M 7 0.28125 L 69 0.28125 L 69 62 L 7 62 Z M 7 0.28125 " clip-rule="nonzero"/></clipPath><clipPath id="id64"><rect x="0" width="78" y="0" height="222"/></clipPath></defs><g clip-path="url(#id2)"><path fill="#c8a47b" d="M 320.691406 118.808594 C 320.703125 118.808594 320.710938 118.808594 320.722656 118.808594 C 320.722656 123.707031 320.632812 128.613281 320.742188 133.511719 C 320.886719 139.722656 322.953125 145.269531 326.425781 150.449219 C 328.121094 152.976562 329.660156 155.882812 330.25 158.820312 C 332.242188 168.820312 333.785156 178.914062 335.503906 188.972656 C 336.464844 194.613281 338.828125 196.679688 344.429688 196.75 C 346.589844 196.78125 348.757812 196.773438 350.921875 196.753906 C 356.476562 196.6875 359.082031 194.566406 360.023438 189.101562 C 361.289062 181.730469 362.238281 174.304688 363.691406 166.980469 C 364.707031 161.828125 365.191406 156.027344 367.96875 151.890625 C 372.078125 145.757812 374.703125 139.558594 374.824219 132.332031 C 374.988281 122.960938 374.898438 113.585938 374.859375 104.214844 C 374.832031 97.136719 371.691406 91.875 364.933594 89.558594 C 353.421875 85.609375 341.722656 85.617188 330.246094 89.648438 C 323.898438 91.878906 320.789062 96.914062 320.703125 103.664062 C 320.636719 108.707031 320.691406 113.757812 320.691406 118.808594 Z M 369.070312 59.988281 C 369.140625 47.738281 359.535156 37.863281 347.410156 37.722656 C 335.5625 37.582031 325.320312 47.660156 325.152344 59.621094 C 324.988281 71.613281 334.855469 81.5625 347.035156 81.6875 C 359.371094 81.8125 368.996094 72.335938 369.070312 59.988281 Z M 369.070312 59.988281 " fill-opacity="1" fill-rule="nonzero"/></g><path fill="#c8a47b" d="M 320.691406 118.808594 C 320.691406 113.757812 320.636719 108.707031 320.703125 103.664062 C 320.789062 96.914062 323.898438 91.878906 330.246094 89.648438 C 341.722656 85.617188 353.421875 85.609375 364.933594 89.558594 C 371.691406 91.871094 374.835938 97.136719 374.859375 104.214844 C 374.902344 113.585938 374.988281 122.960938 374.824219 132.328125 C 374.703125 139.558594 372.082031 145.757812 367.96875 151.890625 C 365.191406 156.027344 364.707031 161.828125 363.691406 166.980469 C 362.238281 174.304688 361.289062 181.730469 360.023438 189.101562 C 359.082031 194.566406 356.476562 196.6875 350.921875 196.753906 C 348.757812 196.773438 346.59375 196.78125 344.429688 196.75 C 338.832031 196.675781 336.464844 194.613281 335.503906 188.96875 C 333.785156 178.914062 332.242188 168.820312 330.25 158.820312 C 329.660156 155.882812 328.121094 152.972656 326.425781 150.449219 C 322.957031 145.269531 320.886719 139.722656 320.746094 133.511719 C 320.632812 128.613281 320.722656 123.707031 320.722656 118.804688 C 320.710938 118.808594 320.703125 118.808594 320.691406 118.808594 Z M 320.691406 118.808594 " fill-opacity="1" fill-rule="evenodd"/><g clip-path="url(#id3)"><path fill="#c8a47b" d="M 369.070312 59.988281 C 368.996094 72.335938 359.371094 81.8125 347.035156 81.6875 C 334.855469 81.5625 324.988281 71.613281 325.152344 59.621094 C 325.320312 47.660156 335.5625 37.585938 347.410156 37.722656 C 359.535156 37.863281 369.140625 47.738281 369.070312 59.988281 Z M 369.070312 59.988281 " fill-opacity="1" fill-rule="evenodd"/></g><g clip-path="url(#id4)"><path fill="#c8a47b" d="M 110.027344 118.808594 C 110.035156 118.808594 110.042969 118.808594 110.058594 118.808594 C 110.058594 123.707031 109.96875 128.613281 110.078125 133.511719 C 110.21875 139.722656 112.292969 145.269531 115.761719 150.449219 C 117.453125 152.976562 118.996094 155.882812 119.582031 158.820312 C 121.578125 168.820312 123.117188 178.914062 124.839844 188.972656 C 125.800781 194.613281 128.164062 196.679688 133.765625 196.75 C 135.925781 196.78125 138.089844 196.773438 140.253906 196.753906 C 145.808594 196.6875 148.417969 194.566406 149.355469 189.101562 C 150.625 181.730469 151.570312 174.304688 153.027344 166.980469 C 154.042969 161.828125 154.527344 156.027344 157.304688 151.890625 C 161.417969 145.757812 164.039062 139.558594 164.160156 132.332031 C 164.324219 122.960938 164.234375 113.585938 164.199219 104.214844 C 164.167969 97.136719 161.03125 91.875 154.265625 89.558594 C 142.753906 85.609375 131.058594 85.617188 119.578125 89.648438 C 113.230469 91.878906 110.125 96.914062 110.035156 103.664062 C 109.96875 108.707031 110.027344 113.757812 110.027344 118.808594 Z M 158.402344 59.988281 C 158.476562 47.738281 148.871094 37.863281 136.742188 37.722656 C 124.894531 37.582031 114.652344 47.660156 114.484375 59.621094 C 114.324219 71.613281 124.1875 81.5625 136.367188 81.6875 C 148.703125 81.8125 158.328125 72.335938 158.402344 59.988281 Z M 158.402344 59.988281 " fill-opacity="1" fill-rule="nonzero"/></g><path fill="#c8a47b" d="M 110.027344 118.808594 C 110.027344 113.757812 109.96875 108.707031 110.035156 103.664062 C 110.125 96.914062 113.230469 91.878906 119.582031 89.648438 C 131.058594 85.617188 142.753906 85.609375 154.265625 89.558594 C 161.03125 91.871094 164.167969 97.136719 164.199219 104.214844 C 164.234375 113.585938 164.324219 122.960938 164.160156 132.328125 C 164.039062 139.558594 161.417969 145.757812 157.304688 151.890625 C 154.527344 156.027344 154.042969 161.828125 153.027344 166.980469 C 151.574219 174.304688 150.625 181.730469 149.355469 189.101562 C 148.417969 194.566406 145.8125 196.6875 140.257812 196.753906 C 138.089844 196.773438 135.925781 196.78125 133.765625 196.75 C 128.164062 196.675781 125.800781 194.613281 124.839844 188.96875 C 123.117188 178.914062 121.582031 168.820312 119.585938 158.820312 C 118.996094 155.882812 117.457031 152.972656 115.761719 150.449219 C 112.292969 145.269531 110.222656 139.722656 110.078125 133.511719 C 109.96875 128.613281 110.058594 123.707031 110.058594 118.804688 C 110.042969 118.808594 110.035156 118.808594 110.027344 118.808594 Z M 110.027344 118.808594 " fill-opacity="1" fill-rule="evenodd"/><g clip-path="url(#id5)"><path fill="#c8a47b" d="M 158.402344 59.988281 C 158.328125 72.335938 148.703125 81.8125 136.367188 81.6875 C 124.1875 81.5625 114.324219 71.613281 114.484375 59.621094 C 114.652344 47.660156 124.894531 37.585938 136.742188 37.722656 C 148.871094 37.863281 158.472656 47.738281 158.402344 59.988281 Z M 158.402344 59.988281 " fill-opacity="1" fill-rule="evenodd"/></g><g clip-path="url(#id6)"><path fill="#c8a47b" d="M 0.0234375 118.808594 C 0.03125 118.808594 0.0429688 118.808594 0.0546875 118.808594 C 0.0546875 123.707031 -0.0351562 128.613281 0.0742188 133.511719 C 0.21875 139.722656 2.285156 145.269531 5.757812 150.449219 C 7.453125 152.976562 8.992188 155.882812 9.582031 158.820312 C 11.574219 168.820312 13.113281 178.914062 14.835938 188.972656 C 15.796875 194.613281 18.160156 196.679688 23.761719 196.75 C 25.921875 196.78125 28.085938 196.773438 30.253906 196.753906 C 35.808594 196.6875 38.414062 194.566406 39.351562 189.101562 C 40.621094 181.730469 41.570312 174.304688 43.023438 166.980469 C 44.039062 161.828125 44.523438 156.027344 47.300781 151.890625 C 51.410156 145.757812 54.035156 139.558594 54.15625 132.332031 C 54.320312 122.960938 54.230469 113.585938 54.191406 104.214844 C 54.164062 97.136719 51.023438 91.875 44.261719 89.558594 C 32.75 85.609375 21.054688 85.617188 9.578125 89.648438 C 3.226562 91.878906 0.121094 96.914062 0.03125 103.664062 C -0.0351562 108.707031 0.0234375 113.757812 0.0234375 118.808594 Z M 48.398438 59.988281 C 48.472656 47.738281 38.867188 37.863281 26.738281 37.722656 C 14.894531 37.582031 4.648438 47.660156 4.484375 59.621094 C 4.316406 71.613281 14.183594 81.5625 26.363281 81.6875 C 38.699219 81.8125 48.324219 72.335938 48.398438 59.988281 Z M 48.398438 59.988281 " fill-opacity="1" fill-rule="nonzero"/></g><path fill="#c8a47b" d="M 0.0234375 118.808594 C 0.0234375 113.757812 -0.0351562 108.707031 0.03125 103.664062 C 0.121094 96.914062 3.226562 91.878906 9.578125 89.648438 C 21.054688 85.617188 32.75 85.609375 44.261719 89.558594 C 51.023438 91.871094 54.164062 97.136719 54.191406 104.214844 C 54.230469 113.585938 54.320312 122.960938 54.15625 132.328125 C 54.035156 139.558594 51.410156 145.757812 47.300781 151.890625 C 44.523438 156.027344 44.039062 161.828125 43.023438 166.980469 C 41.570312 174.304688 40.621094 181.730469 39.355469 189.101562 C 38.414062 194.566406 35.808594 196.6875 30.253906 196.753906 C 28.089844 196.773438 25.921875 196.78125 23.761719 196.75 C 18.160156 196.675781 15.796875 194.613281 14.835938 188.96875 C 13.117188 178.914062 11.574219 168.820312 9.582031 158.820312 C 8.992188 155.882812 7.453125 152.972656 5.757812 150.449219 C 2.285156 145.269531 0.21875 139.722656 0.0742188 133.511719 C -0.0351562 128.613281 0.0546875 123.707031 0.0546875 118.804688 C 0.0429688 118.808594 0.03125 118.808594 0.0234375 118.808594 Z M 0.0234375 118.808594 " fill-opacity="1" fill-rule="evenodd"/><g clip-path="url(#id7)"><path fill="#c8a47b" d="M 48.398438 59.988281 C 48.324219 72.335938 38.699219 81.8125 26.363281 81.6875 C 14.183594 81.5625 4.316406 71.613281 4.484375 59.621094 C 4.648438 47.660156 14.894531 37.582031 26.738281 37.722656 C 38.867188 37.863281 48.472656 47.738281 48.398438 59.988281 Z M 48.398438 59.988281 " fill-opacity="1" fill-rule="evenodd"/></g><g clip-path="url(#id8)"><path fill="#c8a47b" d="M 215.546875 118.808594 C 215.5625 118.808594 215.570312 118.808594 215.582031 118.808594 C 215.582031 123.707031 215.492188 128.613281 215.605469 133.511719 C 215.746094 139.722656 217.8125 145.269531 221.285156 150.449219 C 222.984375 152.976562 224.523438 155.882812 225.109375 158.820312 C 227.105469 168.820312 228.640625 178.914062 230.363281 188.972656 C 231.328125 194.613281 233.6875 196.679688 239.289062 196.75 C 241.453125 196.78125 243.617188 196.773438 245.78125 196.753906 C 251.332031 196.6875 253.945312 194.566406 254.878906 189.101562 C 256.148438 181.730469 257.097656 174.304688 258.550781 166.980469 C 259.570312 161.828125 260.054688 156.027344 262.828125 151.890625 C 266.941406 145.757812 269.558594 139.558594 269.683594 132.332031 C 269.847656 122.960938 269.765625 113.585938 269.722656 104.214844 C 269.691406 97.136719 266.554688 91.875 259.792969 89.558594 C 248.28125 85.609375 236.582031 85.617188 225.105469 89.648438 C 218.753906 91.878906 215.648438 96.914062 215.558594 103.664062 C 215.492188 108.707031 215.546875 113.757812 215.546875 118.808594 Z M 263.925781 59.988281 C 264 47.738281 254.394531 37.863281 242.265625 37.722656 C 230.425781 37.582031 220.179688 47.660156 220.011719 59.621094 C 219.847656 71.613281 229.710938 81.5625 241.890625 81.6875 C 254.226562 81.8125 263.855469 72.335938 263.925781 59.988281 Z M 263.925781 59.988281 " fill-opacity="1" fill-rule="nonzero"/></g><path fill="#c8a47b" d="M 215.546875 118.808594 C 215.546875 113.757812 215.492188 108.707031 215.5625 103.664062 C 215.648438 96.914062 218.757812 91.878906 225.105469 89.648438 C 236.582031 85.617188 248.285156 85.609375 259.792969 89.558594 C 266.554688 91.871094 269.691406 97.136719 269.722656 104.214844 C 269.765625 113.585938 269.847656 122.960938 269.683594 132.328125 C 269.558594 139.558594 266.941406 145.757812 262.828125 151.890625 C 260.054688 156.027344 259.570312 161.828125 258.550781 166.980469 C 257.097656 174.304688 256.148438 181.730469 254.882812 189.101562 C 253.945312 194.566406 251.335938 196.6875 245.785156 196.753906 C 243.617188 196.773438 241.453125 196.78125 239.289062 196.75 C 233.6875 196.675781 231.328125 194.613281 230.363281 188.96875 C 228.644531 178.914062 227.105469 168.820312 225.109375 158.820312 C 224.523438 155.882812 222.984375 152.972656 221.285156 150.449219 C 217.8125 145.269531 215.746094 139.722656 215.605469 133.511719 C 215.496094 128.613281 215.582031 123.707031 215.582031 118.804688 C 215.574219 118.808594 215.5625 118.808594 215.546875 118.808594 Z M 215.546875 118.808594 " fill-opacity="1" fill-rule="evenodd"/><g clip-path="url(#id9)"><path fill="#c8a47b" d="M 263.925781 59.988281 C 263.855469 72.335938 254.230469 81.8125 241.890625 81.6875 C 229.710938 81.5625 219.847656 71.613281 220.011719 59.621094 C 220.179688 47.660156 230.425781 37.585938 242.265625 37.722656 C 254.394531 37.863281 264 47.738281 263.925781 59.988281 Z M 263.925781 59.988281 " fill-opacity="1" fill-rule="evenodd"/></g><g clip-path="url(#id10)"><g mask="url(#id11)"><g transform="matrix(1, 0, 0, 1, 320, 37)"><g clip-path="url(#id15)"><g clip-path="url(#id12)"><path fill="#7d4c25" d="M 0.691406 81.808594 C 0.703125 81.808594 0.710938 81.808594 0.722656 81.808594 C 0.722656 86.707031 0.632812 91.613281 0.742188 96.511719 C 0.886719 102.722656 2.953125 108.269531 6.425781 113.449219 C 8.121094 115.976562 9.660156 118.882812 10.25 121.820312 C 12.242188 131.820312 13.785156 141.914062 15.503906 151.972656 C 16.464844 157.613281 18.828125 159.679688 24.429688 159.75 C 26.589844 159.78125 28.757812 159.773438 30.921875 159.753906 C 36.476562 159.6875 39.082031 157.566406 40.019531 152.101562 C 41.289062 144.730469 42.238281 137.304688 43.691406 129.980469 C 44.707031 124.828125 45.191406 119.027344 47.96875 114.890625 C 52.078125 108.757812 54.703125 102.558594 54.824219 95.332031 C 54.988281 85.960938 54.898438 76.585938 54.859375 67.214844 C 54.832031 60.136719 51.691406 54.875 44.933594 52.558594 C 33.421875 48.609375 21.722656 48.617188 10.246094 52.648438 C 3.898438 54.878906 0.789062 59.914062 0.703125 66.664062 C 0.636719 71.707031 0.691406 76.757812 0.691406 81.808594 Z M 49.070312 22.988281 C 49.140625 10.738281 39.535156 0.863281 27.410156 0.722656 C 15.5625 0.582031 5.320312 10.660156 5.152344 22.621094 C 4.988281 34.613281 14.855469 44.5625 27.035156 44.6875 C 39.371094 44.8125 48.996094 35.335938 49.070312 22.988281 Z M 49.070312 22.988281 " fill-opacity="1" fill-rule="nonzero"/></g><g clip-path="url(#id13)"><path fill="#7d4c25" d="M 0.691406 81.808594 C 0.691406 76.757812 0.636719 71.707031 0.703125 66.664062 C 0.789062 59.914062 3.898438 54.878906 10.246094 52.648438 C 21.722656 48.617188 33.421875 48.609375 44.933594 52.558594 C 51.691406 54.871094 54.835938 60.136719 54.859375 67.214844 C 54.902344 76.585938 54.988281 85.960938 54.824219 95.328125 C 54.703125 102.558594 52.082031 108.757812 47.96875 114.890625 C 45.191406 119.027344 44.707031 124.828125 43.691406 129.980469 C 42.238281 137.304688 41.289062 144.730469 40.023438 152.101562 C 39.082031 157.566406 36.476562 159.6875 30.921875 159.753906 C 28.757812 159.773438 26.59375 159.78125 24.429688 159.75 C 18.832031 159.675781 16.464844 157.613281 15.503906 151.96875 C 13.785156 141.914062 12.242188 131.820312 10.25 121.820312 C 9.660156 118.882812 8.121094 115.972656 6.425781 113.449219 C 2.957031 108.269531 0.886719 102.722656 0.746094 96.511719 C 0.632812 91.613281 0.722656 86.707031 0.722656 81.804688 C 0.710938 81.808594 0.703125 81.808594 0.691406 81.808594 Z M 0.691406 81.808594 " fill-opacity="1" fill-rule="evenodd"/></g><g clip-path="url(#id14)"><path fill="#7d4c25" d="M 49.070312 22.988281 C 48.996094 35.335938 39.371094 44.8125 27.035156 44.6875 C 14.855469 44.5625 4.988281 34.613281 5.152344 22.621094 C 5.320312 10.660156 15.5625 0.585938 27.410156 0.722656 C 39.535156 0.863281 49.140625 10.738281 49.070312 22.988281 Z M 49.070312 22.988281 " fill-opacity="1" fill-rule="evenodd"/></g></g></g></g></g><g clip-path="url(#id16)"><g mask="url(#id17)"><g transform="matrix(1, 0, 0, 1, 109, 37)"><g clip-path="url(#id21)"><g clip-path="url(#id18)"><path fill="#7d4c25" d="M 1.027344 81.808594 C 1.035156 81.808594 1.042969 81.808594 1.058594 81.808594 C 1.058594 86.707031 0.96875 91.613281 1.078125 96.511719 C 1.21875 102.722656 3.292969 108.269531 6.761719 113.449219 C 8.453125 115.976562 9.996094 118.882812 10.582031 121.820312 C 12.578125 131.820312 14.117188 141.914062 15.839844 151.972656 C 16.800781 157.613281 19.164062 159.679688 24.765625 159.75 C 26.925781 159.78125 29.089844 159.773438 31.253906 159.753906 C 36.808594 159.6875 39.417969 157.566406 40.355469 152.101562 C 41.625 144.730469 42.570312 137.304688 44.027344 129.980469 C 45.042969 124.828125 45.527344 119.027344 48.304688 114.890625 C 52.417969 108.757812 55.039062 102.558594 55.160156 95.332031 C 55.324219 85.960938 55.234375 76.585938 55.199219 67.214844 C 55.167969 60.136719 52.03125 54.875 45.265625 52.558594 C 33.753906 48.609375 22.058594 48.617188 10.578125 52.648438 C 4.230469 54.878906 1.125 59.914062 1.035156 66.664062 C 0.96875 71.707031 1.027344 76.757812 1.027344 81.808594 Z M 49.402344 22.988281 C 49.476562 10.738281 39.871094 0.863281 27.742188 0.722656 C 15.894531 0.582031 5.652344 10.660156 5.484375 22.621094 C 5.324219 34.613281 15.1875 44.5625 27.367188 44.6875 C 39.703125 44.8125 49.328125 35.335938 49.402344 22.988281 Z M 49.402344 22.988281 " fill-opacity="1" fill-rule="nonzero"/></g><g clip-path="url(#id19)"><path fill="#7d4c25" d="M 1.027344 81.808594 C 1.027344 76.757812 0.96875 71.707031 1.035156 66.664062 C 1.125 59.914062 4.230469 54.878906 10.582031 52.648438 C 22.058594 48.617188 33.753906 48.609375 45.265625 52.558594 C 52.03125 54.871094 55.167969 60.136719 55.199219 67.214844 C 55.234375 76.585938 55.324219 85.960938 55.160156 95.328125 C 55.039062 102.558594 52.417969 108.757812 48.304688 114.890625 C 45.527344 119.027344 45.042969 124.828125 44.027344 129.980469 C 42.574219 137.304688 41.625 144.730469 40.355469 152.101562 C 39.417969 157.566406 36.8125 159.6875 31.257812 159.753906 C 29.089844 159.773438 26.925781 159.78125 24.765625 159.75 C 19.164062 159.675781 16.800781 157.613281 15.839844 151.96875 C 14.117188 141.914062 12.582031 131.820312 10.585938 121.820312 C 9.996094 118.882812 8.457031 115.972656 6.761719 113.449219 C 3.292969 108.269531 1.222656 102.722656 1.078125 96.511719 C 0.96875 91.613281 1.058594 86.707031 1.058594 81.804688 C 1.042969 81.808594 1.035156 81.808594 1.027344 81.808594 Z M 1.027344 81.808594 " fill-opacity="1" fill-rule="evenodd"/></g><g clip-path="url(#id20)"><path fill="#7d4c25" d="M 49.402344 22.988281 C 49.328125 35.335938 39.703125 44.8125 27.367188 44.6875 C 15.1875 44.5625 5.324219 34.613281 5.484375 22.621094 C 5.652344 10.660156 15.894531 0.585938 27.742188 0.722656 C 39.871094 0.863281 49.472656 10.738281 49.402344 22.988281 Z M 49.402344 22.988281 " fill-opacity="1" fill-rule="evenodd"/></g></g></g></g></g><g clip-path="url(#id22)"><g mask="url(#id23)"><g transform="matrix(1, 0, 0, 1, 0, 37)"><g clip-path="url(#id27)"><g clip-path="url(#id24)"><path fill="#7d4c25" d="M 0.0234375 81.808594 C 0.03125 81.808594 0.0429688 81.808594 0.0546875 81.808594 C 0.0546875 86.707031 -0.0351562 91.613281 0.0742188 96.511719 C 0.21875 102.722656 2.285156 108.269531 5.757812 113.449219 C 7.453125 115.976562 8.992188 118.882812 9.582031 121.820312 C 11.574219 131.820312 13.113281 141.914062 14.835938 151.972656 C 15.796875 157.613281 18.160156 159.679688 23.761719 159.75 C 25.921875 159.78125 28.085938 159.773438 30.253906 159.753906 C 35.808594 159.6875 38.414062 157.566406 39.351562 152.101562 C 40.621094 144.730469 41.570312 137.304688 43.023438 129.980469 C 44.039062 124.828125 44.523438 119.027344 47.300781 114.890625 C 51.410156 108.757812 54.035156 102.558594 54.15625 95.332031 C 54.320312 85.960938 54.230469 76.585938 54.191406 67.214844 C 54.164062 60.136719 51.023438 54.875 44.261719 52.558594 C 32.75 48.609375 21.054688 48.617188 9.578125 52.648438 C 3.226562 54.878906 0.121094 59.914062 0.03125 66.664062 C -0.0351562 71.707031 0.0234375 76.757812 0.0234375 81.808594 Z M 48.398438 22.988281 C 48.472656 10.738281 38.867188 0.863281 26.738281 0.722656 C 14.894531 0.582031 4.648438 10.660156 4.484375 22.621094 C 4.316406 34.613281 14.183594 44.5625 26.363281 44.6875 C 38.699219 44.8125 48.324219 35.335938 48.398438 22.988281 Z M 48.398438 22.988281 " fill-opacity="1" fill-rule="nonzero"/></g><g clip-path="url(#id25)"><path fill="#7d4c25" d="M 0.0234375 81.808594 C 0.0234375 76.757812 -0.0351562 71.707031 0.03125 66.664062 C 0.121094 59.914062 3.226562 54.878906 9.578125 52.648438 C 21.054688 48.617188 32.75 48.609375 44.261719 52.558594 C 51.023438 54.871094 54.164062 60.136719 54.191406 67.214844 C 54.230469 76.585938 54.320312 85.960938 54.15625 95.328125 C 54.035156 102.558594 51.410156 108.757812 47.300781 114.890625 C 44.523438 119.027344 44.039062 124.828125 43.023438 129.980469 C 41.570312 137.304688 40.621094 144.730469 39.355469 152.101562 C 38.414062 157.566406 35.808594 159.6875 30.253906 159.753906 C 28.089844 159.773438 25.921875 159.78125 23.761719 159.75 C 18.160156 159.675781 15.796875 157.613281 14.835938 151.96875 C 13.117188 141.914062 11.574219 131.820312 9.582031 121.820312 C 8.992188 118.882812 7.453125 115.972656 5.757812 113.449219 C 2.285156 108.269531 0.21875 102.722656 0.0742188 96.511719 C -0.0351562 91.613281 0.0546875 86.707031 0.0546875 81.804688 C 0.0429688 81.808594 0.03125 81.808594 0.0234375 81.808594 Z M 0.0234375 81.808594 " fill-opacity="1" fill-rule="evenodd"/></g><g clip-path="url(#id26)"><path fill="#7d4c25" d="M 48.398438 22.988281 C 48.324219 35.335938 38.699219 44.8125 26.363281 44.6875 C 14.183594 44.5625 4.316406 34.613281 4.484375 22.621094 C 4.648438 10.660156 14.894531 0.582031 26.738281 0.722656 C 38.867188 0.863281 48.472656 10.738281 48.398438 22.988281 Z M 48.398438 22.988281 " fill-opacity="1" fill-rule="evenodd"/></g></g></g></g></g><g clip-path="url(#id28)"><g mask="url(#id29)"><g transform="matrix(1, 0, 0, 1, 215, 37)"><g clip-path="url(#id33)"><g clip-path="url(#id30)"><path fill="#7d4c25" d="M 0.546875 81.808594 C 0.5625 81.808594 0.570312 81.808594 0.582031 81.808594 C 0.582031 86.707031 0.492188 91.613281 0.605469 96.511719 C 0.746094 102.722656 2.8125 108.269531 6.285156 113.449219 C 7.984375 115.976562 9.523438 118.882812 10.109375 121.820312 C 12.105469 131.820312 13.640625 141.914062 15.363281 151.972656 C 16.328125 157.613281 18.6875 159.679688 24.289062 159.75 C 26.453125 159.78125 28.617188 159.773438 30.78125 159.753906 C 36.332031 159.6875 38.945312 157.566406 39.878906 152.101562 C 41.148438 144.730469 42.097656 137.304688 43.550781 129.980469 C 44.570312 124.828125 45.054688 119.027344 47.828125 114.890625 C 51.941406 108.757812 54.558594 102.558594 54.683594 95.332031 C 54.847656 85.960938 54.765625 76.585938 54.722656 67.214844 C 54.691406 60.136719 51.554688 54.875 44.792969 52.558594 C 33.28125 48.609375 21.582031 48.617188 10.105469 52.648438 C 3.753906 54.878906 0.648438 59.914062 0.558594 66.664062 C 0.492188 71.707031 0.546875 76.757812 0.546875 81.808594 Z M 48.925781 22.988281 C 49 10.738281 39.394531 0.863281 27.265625 0.722656 C 15.425781 0.582031 5.179688 10.660156 5.011719 22.621094 C 4.847656 34.613281 14.710938 44.5625 26.890625 44.6875 C 39.226562 44.8125 48.855469 35.335938 48.925781 22.988281 Z M 48.925781 22.988281 " fill-opacity="1" fill-rule="nonzero"/></g><g clip-path="url(#id31)"><path fill="#7d4c25" d="M 0.546875 81.808594 C 0.546875 76.757812 0.492188 71.707031 0.5625 66.664062 C 0.648438 59.914062 3.757812 54.878906 10.105469 52.648438 C 21.582031 48.617188 33.285156 48.609375 44.792969 52.558594 C 51.554688 54.871094 54.691406 60.136719 54.722656 67.214844 C 54.765625 76.585938 54.847656 85.960938 54.683594 95.328125 C 54.558594 102.558594 51.941406 108.757812 47.828125 114.890625 C 45.054688 119.027344 44.570312 124.828125 43.550781 129.980469 C 42.097656 137.304688 41.148438 144.730469 39.882812 152.101562 C 38.945312 157.566406 36.335938 159.6875 30.785156 159.753906 C 28.617188 159.773438 26.453125 159.78125 24.289062 159.75 C 18.6875 159.675781 16.328125 157.613281 15.363281 151.96875 C 13.644531 141.914062 12.105469 131.820312 10.109375 121.820312 C 9.523438 118.882812 7.984375 115.972656 6.285156 113.449219 C 2.8125 108.269531 0.746094 102.722656 0.605469 96.511719 C 0.496094 91.613281 0.582031 86.707031 0.582031 81.804688 C 0.574219 81.808594 0.5625 81.808594 0.546875 81.808594 Z M 0.546875 81.808594 " fill-opacity="1" fill-rule="evenodd"/></g><g clip-path="url(#id32)"><path fill="#7d4c25" d="M 48.925781 22.988281 C 48.855469 35.335938 39.230469 44.8125 26.890625 44.6875 C 14.710938 44.5625 4.847656 34.613281 5.011719 22.621094 C 5.179688 10.660156 15.425781 0.585938 27.265625 0.722656 C 39.394531 0.863281 49 10.738281 48.925781 22.988281 Z M 48.925781 22.988281 " fill-opacity="1" fill-rule="evenodd"/></g></g></g></g></g><path fill="#c8a47b" d="M 280.722656 166.578125 C 280.734375 166.578125 280.742188 166.578125 280.757812 166.578125 C 280.757812 172.089844 280.65625 177.609375 280.78125 183.125 C 280.941406 190.113281 283.269531 196.351562 287.175781 202.179688 C 289.082031 205.019531 290.8125 208.289062 291.476562 211.597656 C 293.71875 222.847656 295.449219 234.199219 297.386719 245.511719 C 298.472656 251.863281 301.128906 254.183594 307.425781 254.265625 C 309.859375 254.300781 312.292969 254.292969 314.730469 254.269531 C 320.976562 254.199219 323.914062 251.808594 324.96875 245.664062 C 326.390625 237.371094 327.460938 229.019531 329.097656 220.777344 C 330.242188 214.984375 330.785156 208.453125 333.910156 203.800781 C 338.535156 196.898438 341.484375 189.929688 341.621094 181.796875 C 341.804688 171.253906 341.710938 160.710938 341.664062 150.164062 C 341.632812 142.207031 338.097656 136.28125 330.492188 133.675781 C 317.546875 129.238281 304.382812 129.242188 291.472656 133.777344 C 284.328125 136.285156 280.835938 141.949219 280.734375 149.542969 C 280.660156 155.21875 280.722656 160.902344 280.722656 166.578125 Z M 335.144531 100.410156 C 335.226562 86.625 324.421875 75.519531 310.777344 75.363281 C 297.453125 75.207031 285.925781 86.539062 285.738281 99.996094 C 285.554688 113.488281 296.652344 124.679688 310.355469 124.820312 C 324.234375 124.964844 335.0625 114.300781 335.144531 100.410156 Z M 335.144531 100.410156 " fill-opacity="1" fill-rule="nonzero"/><path fill="#c8a47b" d="M 280.722656 166.578125 C 280.722656 160.902344 280.660156 155.21875 280.734375 149.542969 C 280.835938 141.949219 284.328125 136.285156 291.472656 133.777344 C 304.382812 129.242188 317.546875 129.238281 330.492188 133.675781 C 338.097656 136.28125 341.632812 142.203125 341.664062 150.164062 C 341.710938 160.707031 341.804688 171.25 341.621094 181.792969 C 341.484375 189.929688 338.535156 196.898438 333.910156 203.800781 C 330.785156 208.453125 330.242188 214.984375 329.097656 220.777344 C 327.460938 229.019531 326.390625 237.371094 324.96875 245.660156 C 323.914062 251.808594 320.976562 254.199219 314.730469 254.269531 C 312.292969 254.292969 309.859375 254.300781 307.425781 254.265625 C 301.128906 254.183594 298.46875 251.863281 297.386719 245.511719 C 295.449219 234.199219 293.71875 222.847656 291.476562 211.597656 C 290.8125 208.289062 289.082031 205.019531 287.175781 202.179688 C 283.269531 196.351562 280.941406 190.113281 280.78125 183.125 C 280.65625 177.609375 280.757812 172.089844 280.757812 166.578125 C 280.742188 166.578125 280.734375 166.578125 280.722656 166.578125 Z M 280.722656 166.578125 " fill-opacity="1" fill-rule="evenodd"/><path fill="#c8a47b" d="M 335.144531 100.410156 C 335.0625 114.300781 324.234375 124.964844 310.355469 124.820312 C 296.652344 124.679688 285.554688 113.488281 285.738281 99.996094 C 285.925781 86.539062 297.453125 75.207031 310.777344 75.363281 C 324.421875 75.519531 335.226562 86.625 335.144531 100.410156 Z M 335.144531 100.410156 " fill-opacity="1" fill-rule="evenodd"/><path fill="#c8a47b" d="M 160.078125 166.578125 C 160.089844 166.578125 160.101562 166.578125 160.113281 166.578125 C 160.113281 172.089844 160.015625 177.609375 160.140625 183.125 C 160.296875 190.113281 162.625 196.351562 166.53125 202.179688 C 168.441406 205.019531 170.171875 208.289062 170.832031 211.597656 C 173.078125 222.847656 174.808594 234.199219 176.746094 245.511719 C 177.828125 251.863281 180.488281 254.183594 186.785156 254.265625 C 189.21875 254.300781 191.65625 254.292969 194.089844 254.269531 C 200.335938 254.199219 203.273438 251.808594 204.324219 245.664062 C 205.75 237.371094 206.820312 229.019531 208.453125 220.777344 C 209.601562 214.984375 210.148438 208.453125 213.269531 203.800781 C 217.894531 196.898438 220.839844 189.929688 220.980469 181.796875 C 221.164062 171.253906 221.070312 160.710938 221.023438 150.164062 C 220.992188 142.207031 217.460938 136.28125 209.851562 133.675781 C 196.90625 129.238281 183.742188 129.242188 170.832031 133.777344 C 163.6875 136.285156 160.1875 141.949219 160.089844 149.542969 C 160.015625 155.21875 160.078125 160.902344 160.078125 166.578125 Z M 214.5 100.410156 C 214.585938 86.625 203.78125 75.519531 190.136719 75.363281 C 176.8125 75.207031 165.285156 86.539062 165.097656 99.996094 C 164.914062 113.488281 176.007812 124.679688 189.710938 124.820312 C 203.59375 124.964844 214.421875 114.300781 214.5 100.410156 Z M 214.5 100.410156 " fill-opacity="1" fill-rule="nonzero"/><path fill="#c8a47b" d="M 160.078125 166.578125 C 160.078125 160.902344 160.015625 155.21875 160.089844 149.542969 C 160.1875 141.949219 163.683594 136.285156 170.832031 133.777344 C 183.742188 129.242188 196.90625 129.238281 209.851562 133.675781 C 217.457031 136.28125 220.988281 142.203125 221.023438 150.164062 C 221.070312 160.707031 221.164062 171.25 220.976562 181.792969 C 220.839844 189.929688 217.894531 196.898438 213.265625 203.800781 C 210.148438 208.453125 209.601562 214.984375 208.453125 220.777344 C 206.816406 229.019531 205.75 237.371094 204.324219 245.660156 C 203.273438 251.808594 200.335938 254.199219 194.089844 254.269531 C 191.65625 254.292969 189.21875 254.300781 186.785156 254.265625 C 180.488281 254.183594 177.824219 251.863281 176.742188 245.511719 C 174.808594 234.199219 173.078125 222.847656 170.828125 211.597656 C 170.171875 208.289062 168.441406 205.019531 166.53125 202.179688 C 162.625 196.351562 160.296875 190.113281 160.136719 183.125 C 160.015625 177.609375 160.113281 172.089844 160.113281 166.578125 C 160.101562 166.578125 160.089844 166.578125 160.078125 166.578125 Z M 160.078125 166.578125 " fill-opacity="1" fill-rule="evenodd"/><path fill="#c8a47b" d="M 214.5 100.410156 C 214.421875 114.300781 203.59375 124.964844 189.710938 124.820312 C 176.007812 124.679688 164.914062 113.488281 165.097656 99.996094 C 165.285156 86.539062 176.8125 75.207031 190.136719 75.363281 C 203.78125 75.519531 214.585938 86.625 214.5 100.410156 Z M 214.5 100.410156 " fill-opacity="1" fill-rule="evenodd"/><path fill="#c8a47b" d="M 43.722656 166.578125 C 43.734375 166.578125 43.742188 166.578125 43.757812 166.578125 C 43.757812 172.089844 43.65625 177.609375 43.78125 183.125 C 43.941406 190.113281 46.269531 196.351562 50.175781 202.179688 C 52.082031 205.019531 53.8125 208.289062 54.476562 211.597656 C 56.71875 222.847656 58.453125 234.199219 60.386719 245.511719 C 61.46875 251.863281 64.125 254.183594 70.425781 254.265625 C 72.859375 254.300781 75.296875 254.292969 77.730469 254.269531 C 83.976562 254.199219 86.910156 251.808594 87.96875 245.664062 C 89.394531 237.371094 90.460938 229.019531 92.097656 220.777344 C 93.242188 214.984375 93.785156 208.453125 96.910156 203.800781 C 101.535156 196.898438 104.484375 189.929688 104.621094 181.796875 C 104.804688 171.253906 104.707031 160.710938 104.664062 150.164062 C 104.632812 142.207031 101.101562 136.28125 93.492188 133.675781 C 80.542969 129.238281 67.382812 129.242188 54.46875 133.777344 C 47.328125 136.285156 43.832031 141.949219 43.734375 149.542969 C 43.65625 155.21875 43.722656 160.902344 43.722656 166.578125 Z M 98.148438 100.410156 C 98.226562 86.625 87.417969 75.519531 73.777344 75.363281 C 60.449219 75.207031 48.929688 86.539062 48.738281 99.996094 C 48.554688 113.488281 59.65625 124.679688 73.355469 124.820312 C 87.230469 124.964844 98.0625 114.300781 98.148438 100.410156 Z M 98.148438 100.410156 " fill-opacity="1" fill-rule="nonzero"/><path fill="#c8a47b" d="M 43.722656 166.578125 C 43.722656 160.902344 43.65625 155.21875 43.734375 149.542969 C 43.832031 141.949219 47.328125 136.285156 54.46875 133.777344 C 67.382812 129.242188 80.542969 129.238281 93.492188 133.675781 C 101.101562 136.28125 104.632812 142.203125 104.664062 150.164062 C 104.707031 160.707031 104.804688 171.25 104.621094 181.792969 C 104.484375 189.929688 101.535156 196.898438 96.910156 203.800781 C 93.785156 208.453125 93.242188 214.984375 92.097656 220.777344 C 90.460938 229.019531 89.394531 237.371094 87.96875 245.660156 C 86.910156 251.808594 83.976562 254.199219 77.730469 254.269531 C 75.296875 254.292969 72.859375 254.300781 70.425781 254.265625 C 64.125 254.183594 61.46875 251.863281 60.386719 245.511719 C 58.453125 234.199219 56.71875 222.847656 54.476562 211.597656 C 53.808594 208.289062 52.082031 205.019531 50.175781 202.179688 C 46.269531 196.351562 43.941406 190.113281 43.78125 183.125 C 43.65625 177.609375 43.757812 172.089844 43.757812 166.578125 C 43.742188 166.578125 43.734375 166.578125 43.722656 166.578125 Z M 43.722656 166.578125 " fill-opacity="1" fill-rule="evenodd"/><path fill="#c8a47b" d="M 98.148438 100.410156 C 98.0625 114.300781 87.230469 124.964844 73.355469 124.820312 C 59.65625 124.679688 48.554688 113.488281 48.738281 99.996094 C 48.929688 86.539062 60.449219 75.207031 73.777344 75.363281 C 87.417969 75.519531 98.226562 86.625 98.148438 100.410156 Z M 98.148438 100.410156 " fill-opacity="1" fill-rule="evenodd"/><g mask="url(#id34)"><g transform="matrix(1, 0, 0, 1, 280, 75)"><g clip-path="url(#id38)"><g clip-path="url(#id35)"><path fill="#7d4c25" d="M 0.722656 91.578125 C 0.734375 91.578125 0.742188 91.578125 0.757812 91.578125 C 0.757812 97.089844 0.65625 102.609375 0.78125 108.125 C 0.941406 115.113281 3.269531 121.351562 7.175781 127.179688 C 9.082031 130.019531 10.8125 133.289062 11.476562 136.597656 C 13.71875 147.847656 15.449219 159.199219 17.386719 170.511719 C 18.472656 176.863281 21.128906 179.183594 27.425781 179.265625 C 29.859375 179.300781 32.292969 179.292969 34.730469 179.269531 C 40.976562 179.199219 43.914062 176.808594 44.96875 170.664062 C 46.390625 162.371094 47.460938 154.019531 49.097656 145.777344 C 50.242188 139.984375 50.785156 133.453125 53.910156 128.800781 C 58.535156 121.898438 61.484375 114.929688 61.621094 106.796875 C 61.804688 96.253906 61.710938 85.710938 61.664062 75.164062 C 61.632812 67.207031 58.097656 61.28125 50.492188 58.675781 C 37.546875 54.238281 24.382812 54.242188 11.472656 58.777344 C 4.328125 61.285156 0.835938 66.949219 0.734375 74.542969 C 0.660156 80.21875 0.722656 85.902344 0.722656 91.578125 Z M 55.144531 25.410156 C 55.226562 11.625 44.421875 0.519531 30.777344 0.363281 C 17.453125 0.207031 5.925781 11.539062 5.738281 24.996094 C 5.554688 38.488281 16.652344 49.679688 30.355469 49.820312 C 44.234375 49.964844 55.0625 39.300781 55.144531 25.410156 Z M 55.144531 25.410156 " fill-opacity="1" fill-rule="nonzero"/></g><g clip-path="url(#id36)"><path fill="#7d4c25" d="M 0.722656 91.578125 C 0.722656 85.902344 0.660156 80.21875 0.734375 74.542969 C 0.835938 66.949219 4.328125 61.285156 11.472656 58.777344 C 24.382812 54.242188 37.546875 54.238281 50.492188 58.675781 C 58.097656 61.28125 61.632812 67.203125 61.664062 75.164062 C 61.710938 85.707031 61.804688 96.25 61.621094 106.792969 C 61.484375 114.929688 58.535156 121.898438 53.910156 128.800781 C 50.785156 133.453125 50.242188 139.984375 49.097656 145.777344 C 47.460938 154.019531 46.390625 162.371094 44.96875 170.660156 C 43.914062 176.808594 40.976562 179.199219 34.730469 179.269531 C 32.292969 179.292969 29.859375 179.300781 27.425781 179.265625 C 21.128906 179.183594 18.46875 176.863281 17.386719 170.511719 C 15.449219 159.199219 13.71875 147.847656 11.476562 136.597656 C 10.8125 133.289062 9.082031 130.019531 7.175781 127.179688 C 3.269531 121.351562 0.941406 115.113281 0.78125 108.125 C 0.65625 102.609375 0.757812 97.089844 0.757812 91.578125 C 0.742188 91.578125 0.734375 91.578125 0.722656 91.578125 Z M 0.722656 91.578125 " fill-opacity="1" fill-rule="evenodd"/></g><g clip-path="url(#id37)"><path fill="#7d4c25" d="M 55.144531 25.410156 C 55.0625 39.300781 44.234375 49.964844 30.355469 49.820312 C 16.652344 49.679688 5.554688 38.488281 5.738281 24.996094 C 5.925781 11.539062 17.453125 0.207031 30.777344 0.363281 C 44.421875 0.519531 55.226562 11.625 55.144531 25.410156 Z M 55.144531 25.410156 " fill-opacity="1" fill-rule="evenodd"/></g></g></g></g><g mask="url(#id39)"><g transform="matrix(1, 0, 0, 1, 159, 75)"><g clip-path="url(#id43)"><g clip-path="url(#id40)"><path fill="#7d4c25" d="M 1.078125 91.578125 C 1.089844 91.578125 1.101562 91.578125 1.113281 91.578125 C 1.113281 97.089844 1.015625 102.609375 1.140625 108.125 C 1.296875 115.113281 3.625 121.351562 7.53125 127.179688 C 9.441406 130.019531 11.171875 133.289062 11.832031 136.597656 C 14.078125 147.847656 15.808594 159.199219 17.746094 170.511719 C 18.828125 176.863281 21.488281 179.183594 27.785156 179.265625 C 30.21875 179.300781 32.65625 179.292969 35.089844 179.269531 C 41.335938 179.199219 44.273438 176.808594 45.324219 170.664062 C 46.75 162.371094 47.820312 154.019531 49.453125 145.777344 C 50.601562 139.984375 51.148438 133.453125 54.269531 128.800781 C 58.894531 121.898438 61.839844 114.929688 61.980469 106.796875 C 62.164062 96.253906 62.070312 85.710938 62.023438 75.164062 C 61.992188 67.207031 58.460938 61.28125 50.851562 58.675781 C 37.90625 54.238281 24.742188 54.242188 11.832031 58.777344 C 4.6875 61.285156 1.1875 66.949219 1.089844 74.542969 C 1.015625 80.21875 1.078125 85.902344 1.078125 91.578125 Z M 55.5 25.410156 C 55.585938 11.625 44.78125 0.519531 31.136719 0.363281 C 17.8125 0.207031 6.285156 11.539062 6.097656 24.996094 C 5.914062 38.488281 17.007812 49.679688 30.710938 49.820312 C 44.59375 49.964844 55.421875 39.300781 55.5 25.410156 Z M 55.5 25.410156 " fill-opacity="1" fill-rule="nonzero"/></g><g clip-path="url(#id41)"><path fill="#7d4c25" d="M 1.078125 91.578125 C 1.078125 85.902344 1.015625 80.21875 1.089844 74.542969 C 1.1875 66.949219 4.683594 61.285156 11.832031 58.777344 C 24.742188 54.242188 37.90625 54.238281 50.851562 58.675781 C 58.457031 61.28125 61.988281 67.203125 62.023438 75.164062 C 62.070312 85.707031 62.164062 96.25 61.976562 106.792969 C 61.839844 114.929688 58.894531 121.898438 54.265625 128.800781 C 51.148438 133.453125 50.601562 139.984375 49.453125 145.777344 C 47.816406 154.019531 46.75 162.371094 45.324219 170.660156 C 44.273438 176.808594 41.335938 179.199219 35.089844 179.269531 C 32.65625 179.292969 30.21875 179.300781 27.785156 179.265625 C 21.488281 179.183594 18.824219 176.863281 17.742188 170.511719 C 15.808594 159.199219 14.078125 147.847656 11.828125 136.597656 C 11.171875 133.289062 9.441406 130.019531 7.53125 127.179688 C 3.625 121.351562 1.296875 115.113281 1.136719 108.125 C 1.015625 102.609375 1.113281 97.089844 1.113281 91.578125 C 1.101562 91.578125 1.089844 91.578125 1.078125 91.578125 Z M 1.078125 91.578125 " fill-opacity="1" fill-rule="evenodd"/></g><g clip-path="url(#id42)"><path fill="#7d4c25" d="M 55.5 25.410156 C 55.421875 39.300781 44.59375 49.964844 30.710938 49.820312 C 17.007812 49.679688 5.914062 38.488281 6.097656 24.996094 C 6.285156 11.539062 17.8125 0.207031 31.136719 0.363281 C 44.78125 0.519531 55.585938 11.625 55.5 25.410156 Z M 55.5 25.410156 " fill-opacity="1" fill-rule="evenodd"/></g></g></g></g><g mask="url(#id44)"><g transform="matrix(1, 0, 0, 1, 43, 75)"><g clip-path="url(#id48)"><g clip-path="url(#id45)"><path fill="#7d4c25" d="M 0.722656 91.578125 C 0.734375 91.578125 0.742188 91.578125 0.757812 91.578125 C 0.757812 97.089844 0.65625 102.609375 0.78125 108.125 C 0.941406 115.113281 3.269531 121.351562 7.175781 127.179688 C 9.082031 130.019531 10.8125 133.289062 11.476562 136.597656 C 13.71875 147.847656 15.453125 159.199219 17.386719 170.511719 C 18.46875 176.863281 21.125 179.183594 27.425781 179.265625 C 29.859375 179.300781 32.296875 179.292969 34.730469 179.269531 C 40.976562 179.199219 43.910156 176.808594 44.96875 170.664062 C 46.394531 162.371094 47.460938 154.019531 49.097656 145.777344 C 50.242188 139.984375 50.785156 133.453125 53.910156 128.800781 C 58.535156 121.898438 61.484375 114.929688 61.621094 106.796875 C 61.804688 96.253906 61.707031 85.710938 61.664062 75.164062 C 61.632812 67.207031 58.101562 61.28125 50.492188 58.675781 C 37.542969 54.238281 24.382812 54.242188 11.46875 58.777344 C 4.328125 61.285156 0.832031 66.949219 0.734375 74.542969 C 0.65625 80.21875 0.722656 85.902344 0.722656 91.578125 Z M 55.148438 25.410156 C 55.226562 11.625 44.417969 0.519531 30.777344 0.363281 C 17.449219 0.207031 5.929688 11.539062 5.738281 24.996094 C 5.554688 38.488281 16.65625 49.679688 30.355469 49.820312 C 44.230469 49.964844 55.0625 39.300781 55.148438 25.410156 Z M 55.148438 25.410156 " fill-opacity="1" fill-rule="nonzero"/></g><g clip-path="url(#id46)"><path fill="#7d4c25" d="M 0.722656 91.578125 C 0.722656 85.902344 0.65625 80.21875 0.734375 74.542969 C 0.832031 66.949219 4.328125 61.285156 11.46875 58.777344 C 24.382812 54.242188 37.542969 54.238281 50.492188 58.675781 C 58.101562 61.28125 61.632812 67.203125 61.664062 75.164062 C 61.707031 85.707031 61.804688 96.25 61.621094 106.792969 C 61.484375 114.929688 58.535156 121.898438 53.910156 128.800781 C 50.785156 133.453125 50.242188 139.984375 49.097656 145.777344 C 47.460938 154.019531 46.394531 162.371094 44.96875 170.660156 C 43.910156 176.808594 40.976562 179.199219 34.730469 179.269531 C 32.296875 179.292969 29.859375 179.300781 27.425781 179.265625 C 21.125 179.183594 18.46875 176.863281 17.386719 170.511719 C 15.453125 159.199219 13.71875 147.847656 11.476562 136.597656 C 10.808594 133.289062 9.082031 130.019531 7.175781 127.179688 C 3.269531 121.351562 0.941406 115.113281 0.78125 108.125 C 0.65625 102.609375 0.757812 97.089844 0.757812 91.578125 C 0.742188 91.578125 0.734375 91.578125 0.722656 91.578125 Z M 0.722656 91.578125 " fill-opacity="1" fill-rule="evenodd"/></g><g clip-path="url(#id47)"><path fill="#7d4c25" d="M 55.148438 25.410156 C 55.0625 39.300781 44.230469 49.964844 30.355469 49.820312 C 16.65625 49.679688 5.554688 38.488281 5.738281 24.996094 C 5.929688 11.539062 17.449219 0.207031 30.777344 0.363281 C 44.417969 0.519531 55.226562 11.625 55.148438 25.410156 Z M 55.148438 25.410156 " fill-opacity="1" fill-rule="evenodd"/></g></g></g></g><path fill="#c8a47b" d="M 222.683594 214.355469 C 222.695312 214.355469 222.707031 214.355469 222.722656 214.355469 C 222.722656 220.476562 222.613281 226.609375 222.75 232.738281 C 222.925781 240.5 225.511719 247.433594 229.851562 253.90625 C 231.972656 257.0625 233.894531 260.699219 234.632812 264.371094 C 237.125 276.871094 239.050781 289.488281 241.199219 302.058594 C 242.402344 309.113281 245.355469 311.691406 252.355469 311.785156 C 255.058594 311.820312 257.765625 311.8125 260.472656 311.785156 C 267.414062 311.707031 270.671875 309.050781 271.847656 302.21875 C 273.429688 293.011719 274.617188 283.726562 276.433594 274.574219 C 277.707031 268.132812 278.308594 260.878906 281.78125 255.710938 C 286.921875 248.039062 290.199219 240.296875 290.351562 231.257812 C 290.554688 219.546875 290.445312 207.832031 290.398438 196.113281 C 290.359375 187.269531 286.4375 180.6875 277.984375 177.792969 C 263.597656 172.859375 248.972656 172.867188 234.625 177.910156 C 226.691406 180.695312 222.808594 186.988281 222.695312 195.425781 C 222.613281 201.730469 222.683594 208.042969 222.683594 214.355469 Z M 283.152344 140.832031 C 283.246094 125.515625 271.238281 113.175781 256.078125 113 C 241.273438 112.824219 228.46875 125.421875 228.261719 140.375 C 228.054688 155.363281 240.386719 167.800781 255.609375 167.953125 C 271.03125 168.113281 283.0625 156.265625 283.152344 140.832031 Z M 283.152344 140.832031 " fill-opacity="1" fill-rule="nonzero"/><path fill="#c8a47b" d="M 222.683594 214.355469 C 222.683594 208.042969 222.613281 201.730469 222.695312 195.425781 C 222.808594 186.988281 226.691406 180.695312 234.625 177.90625 C 248.972656 172.867188 263.597656 172.859375 277.984375 177.792969 C 286.4375 180.683594 290.359375 187.269531 290.398438 196.113281 C 290.445312 207.832031 290.554688 219.546875 290.351562 231.257812 C 290.199219 240.296875 286.921875 248.039062 281.78125 255.707031 C 278.308594 260.878906 277.707031 268.132812 276.433594 274.570312 C 274.617188 283.726562 273.429688 293.011719 271.847656 302.21875 C 270.671875 309.050781 267.414062 311.703125 260.472656 311.785156 C 257.765625 311.8125 255.058594 311.820312 252.355469 311.78125 C 245.355469 311.691406 242.402344 309.113281 241.199219 302.058594 C 239.050781 289.488281 237.125 276.871094 234.632812 264.371094 C 233.894531 260.699219 231.972656 257.0625 229.851562 253.90625 C 225.515625 247.433594 222.925781 240.5 222.75 232.738281 C 222.613281 226.609375 222.722656 220.476562 222.722656 214.355469 C 222.707031 214.355469 222.695312 214.355469 222.683594 214.355469 Z M 222.683594 214.355469 " fill-opacity="1" fill-rule="evenodd"/><path fill="#c8a47b" d="M 283.152344 140.832031 C 283.0625 156.265625 271.03125 168.113281 255.609375 167.953125 C 240.386719 167.800781 228.054688 155.363281 228.257812 140.375 C 228.46875 125.421875 241.273438 112.824219 256.078125 113 C 271.238281 113.175781 283.246094 125.515625 283.152344 140.832031 Z M 283.152344 140.832031 " fill-opacity="1" fill-rule="evenodd"/><path fill="#c8a47b" d="M 91.257812 214.355469 C 91.273438 214.355469 91.285156 214.355469 91.296875 214.355469 C 91.296875 220.476562 91.1875 226.609375 91.324219 232.738281 C 91.5 240.5 94.085938 247.433594 98.425781 253.90625 C 100.546875 257.0625 102.46875 260.699219 103.207031 264.371094 C 105.699219 276.871094 107.625 289.488281 109.777344 302.058594 C 110.980469 309.113281 113.933594 311.691406 120.933594 311.785156 C 123.636719 311.820312 126.339844 311.8125 129.046875 311.785156 C 135.988281 311.707031 139.25 309.050781 140.421875 302.21875 C 142.003906 293.011719 143.191406 283.726562 145.007812 274.574219 C 146.28125 268.132812 146.886719 260.878906 150.355469 255.710938 C 155.496094 248.039062 158.769531 240.296875 158.925781 231.257812 C 159.128906 219.546875 159.023438 207.832031 158.972656 196.113281 C 158.933594 187.269531 155.011719 180.6875 146.5625 177.792969 C 132.171875 172.859375 117.546875 172.867188 103.203125 177.910156 C 95.265625 180.695312 91.378906 186.988281 91.273438 195.425781 C 91.1875 201.730469 91.257812 208.042969 91.257812 214.355469 Z M 151.726562 140.832031 C 151.820312 125.515625 139.8125 113.175781 124.65625 113 C 109.847656 112.824219 97.039062 125.421875 96.835938 140.375 C 96.628906 155.363281 108.960938 167.800781 124.183594 167.953125 C 139.605469 168.113281 151.636719 156.265625 151.726562 140.832031 Z M 151.726562 140.832031 " fill-opacity="1" fill-rule="nonzero"/><path fill="#c8a47b" d="M 91.257812 214.355469 C 91.257812 208.042969 91.1875 201.730469 91.273438 195.425781 C 91.378906 186.988281 95.265625 180.695312 103.203125 177.90625 C 117.546875 172.867188 132.171875 172.859375 146.5625 177.792969 C 155.011719 180.683594 158.933594 187.269531 158.972656 196.113281 C 159.023438 207.832031 159.128906 219.546875 158.925781 231.257812 C 158.769531 240.296875 155.496094 248.039062 150.355469 255.707031 C 146.886719 260.878906 146.28125 268.132812 145.007812 274.570312 C 143.191406 283.726562 142.003906 293.011719 140.421875 302.21875 C 139.25 309.050781 135.988281 311.703125 129.046875 311.785156 C 126.339844 311.8125 123.636719 311.820312 120.933594 311.78125 C 113.933594 311.691406 110.980469 309.113281 109.777344 302.058594 C 107.625 289.488281 105.699219 276.871094 103.207031 264.371094 C 102.472656 260.699219 100.546875 257.0625 98.425781 253.90625 C 94.085938 247.433594 91.5 240.5 91.324219 232.738281 C 91.1875 226.609375 91.296875 220.476562 91.296875 214.355469 C 91.285156 214.355469 91.273438 214.355469 91.257812 214.355469 Z M 91.257812 214.355469 " fill-opacity="1" fill-rule="evenodd"/><path fill="#c8a47b" d="M 151.726562 140.832031 C 151.640625 156.265625 139.605469 168.113281 124.183594 167.953125 C 108.960938 167.800781 96.628906 155.363281 96.835938 140.375 C 97.039062 125.421875 109.847656 112.824219 124.652344 113 C 139.8125 113.175781 151.820312 125.515625 151.726562 140.832031 Z M 151.726562 140.832031 " fill-opacity="1" fill-rule="evenodd"/><g mask="url(#id49)"><g transform="matrix(1, 0, 0, 1, 222, 112)"><g clip-path="url(#id52)"><g clip-path="url(#id50)"><path fill="#7d4c25" d="M 0.683594 102.355469 C 0.695312 102.355469 0.707031 102.355469 0.722656 102.355469 C 0.722656 108.476562 0.613281 114.609375 0.75 120.738281 C 0.925781 128.5 3.511719 135.433594 7.851562 141.90625 C 9.972656 145.0625 11.894531 148.699219 12.632812 152.371094 C 15.125 164.871094 17.050781 177.488281 19.199219 190.058594 C 20.402344 197.113281 23.355469 199.691406 30.355469 199.785156 C 33.058594 199.820312 35.765625 199.8125 38.472656 199.785156 C 45.414062 199.707031 48.671875 197.050781 49.847656 190.21875 C 51.429688 181.011719 52.617188 171.726562 54.433594 162.574219 C 55.707031 156.132812 56.308594 148.878906 59.78125 143.710938 C 64.921875 136.039062 68.199219 128.296875 68.351562 119.257812 C 68.554688 107.546875 68.445312 95.832031 68.398438 84.113281 C 68.359375 75.269531 64.4375 68.6875 55.984375 65.792969 C 41.597656 60.859375 26.972656 60.867188 12.625 65.910156 C 4.691406 68.695312 0.808594 74.988281 0.695312 83.425781 C 0.613281 89.730469 0.683594 96.042969 0.683594 102.355469 Z M 61.152344 28.832031 C 61.246094 13.515625 49.238281 1.175781 34.078125 1 C 19.273438 0.824219 6.46875 13.421875 6.261719 28.375 C 6.054688 43.363281 18.386719 55.800781 33.609375 55.953125 C 49.03125 56.113281 61.0625 44.265625 61.152344 28.832031 Z M 61.152344 28.832031 " fill-opacity="1" fill-rule="nonzero"/></g><g clip-path="url(#id51)"><path fill="#7d4c25" d="M 0.683594 102.355469 C 0.683594 96.042969 0.613281 89.730469 0.695312 83.425781 C 0.808594 74.988281 4.691406 68.695312 12.625 65.90625 C 26.972656 60.867188 41.597656 60.859375 55.984375 65.792969 C 64.4375 68.683594 68.359375 75.269531 68.398438 84.113281 C 68.445312 95.832031 68.554688 107.546875 68.351562 119.257812 C 68.199219 128.296875 64.921875 136.039062 59.78125 143.707031 C 56.308594 148.878906 55.707031 156.132812 54.433594 162.570312 C 52.617188 171.726562 51.429688 181.011719 49.847656 190.21875 C 48.671875 197.050781 45.414062 199.703125 38.472656 199.785156 C 35.765625 199.8125 33.058594 199.820312 30.355469 199.78125 C 23.355469 199.691406 20.402344 197.113281 19.199219 190.058594 C 17.050781 177.488281 15.125 164.871094 12.632812 152.371094 C 11.894531 148.699219 9.972656 145.0625 7.851562 141.90625 C 3.515625 135.433594 0.925781 128.5 0.75 120.738281 C 0.613281 114.609375 0.722656 108.476562 0.722656 102.355469 C 0.707031 102.355469 0.695312 102.355469 0.683594 102.355469 Z M 0.683594 102.355469 " fill-opacity="1" fill-rule="evenodd"/></g><path fill="#7d4c25" d="M 61.152344 28.832031 C 61.0625 44.265625 49.03125 56.113281 33.609375 55.953125 C 18.386719 55.800781 6.054688 43.363281 6.257812 28.375 C 6.46875 13.421875 19.273438 0.824219 34.078125 1 C 49.238281 1.175781 61.246094 13.515625 61.152344 28.832031 Z M 61.152344 28.832031 " fill-opacity="1" fill-rule="evenodd"/></g></g></g><g mask="url(#id53)"><g transform="matrix(1, 0, 0, 1, 91, 112)"><g clip-path="url(#id56)"><g clip-path="url(#id54)"><path fill="#7d4c25" d="M 0.257812 102.355469 C 0.273438 102.355469 0.285156 102.355469 0.296875 102.355469 C 0.296875 108.476562 0.1875 114.609375 0.324219 120.738281 C 0.5 128.5 3.085938 135.433594 7.425781 141.90625 C 9.546875 145.0625 11.46875 148.699219 12.207031 152.371094 C 14.699219 164.871094 16.625 177.488281 18.777344 190.058594 C 19.980469 197.113281 22.933594 199.691406 29.933594 199.785156 C 32.636719 199.820312 35.339844 199.8125 38.046875 199.785156 C 44.988281 199.707031 48.25 197.050781 49.421875 190.21875 C 51.003906 181.011719 52.191406 171.726562 54.007812 162.574219 C 55.28125 156.132812 55.886719 148.878906 59.355469 143.710938 C 64.496094 136.039062 67.769531 128.296875 67.925781 119.257812 C 68.128906 107.546875 68.023438 95.832031 67.972656 84.113281 C 67.933594 75.269531 64.011719 68.6875 55.5625 65.792969 C 41.171875 60.859375 26.546875 60.867188 12.203125 65.910156 C 4.265625 68.695312 0.378906 74.988281 0.273438 83.425781 C 0.1875 89.730469 0.257812 96.042969 0.257812 102.355469 Z M 60.726562 28.832031 C 60.820312 13.515625 48.8125 1.175781 33.65625 1 C 18.847656 0.824219 6.039062 13.421875 5.835938 28.375 C 5.628906 43.363281 17.960938 55.800781 33.183594 55.953125 C 48.605469 56.113281 60.636719 44.265625 60.726562 28.832031 Z M 60.726562 28.832031 " fill-opacity="1" fill-rule="nonzero"/></g><g clip-path="url(#id55)"><path fill="#7d4c25" d="M 0.257812 102.355469 C 0.257812 96.042969 0.1875 89.730469 0.273438 83.425781 C 0.378906 74.988281 4.265625 68.695312 12.203125 65.90625 C 26.546875 60.867188 41.171875 60.859375 55.5625 65.792969 C 64.011719 68.683594 67.933594 75.269531 67.972656 84.113281 C 68.023438 95.832031 68.128906 107.546875 67.925781 119.257812 C 67.769531 128.296875 64.496094 136.039062 59.355469 143.707031 C 55.886719 148.878906 55.28125 156.132812 54.007812 162.570312 C 52.191406 171.726562 51.003906 181.011719 49.421875 190.21875 C 48.25 197.050781 44.988281 199.703125 38.046875 199.785156 C 35.339844 199.8125 32.636719 199.820312 29.933594 199.78125 C 22.933594 199.691406 19.980469 197.113281 18.777344 190.058594 C 16.625 177.488281 14.699219 164.871094 12.207031 152.371094 C 11.472656 148.699219 9.546875 145.0625 7.425781 141.90625 C 3.085938 135.433594 0.5 128.5 0.324219 120.738281 C 0.1875 114.609375 0.296875 108.476562 0.296875 102.355469 C 0.285156 102.355469 0.273438 102.355469 0.257812 102.355469 Z M 0.257812 102.355469 " fill-opacity="1" fill-rule="evenodd"/></g><path fill="#7d4c25" d="M 60.726562 28.832031 C 60.640625 44.265625 48.605469 56.113281 33.183594 55.953125 C 17.960938 55.800781 5.628906 43.363281 5.835938 28.375 C 6.039062 13.421875 18.847656 0.824219 33.652344 1 C 48.8125 1.175781 60.820312 13.515625 60.726562 28.832031 Z M 60.726562 28.832031 " fill-opacity="1" fill-rule="evenodd"/></g></g></g><g clip-path="url(#id57)"><path fill="#c8a47b" d="M 150.867188 250.117188 C 150.882812 250.117188 150.894531 250.117188 150.914062 250.117188 C 150.914062 256.925781 150.789062 263.738281 150.945312 270.542969 C 151.136719 279.171875 154.011719 286.875 158.835938 294.066406 C 161.191406 297.574219 163.328125 301.613281 164.144531 305.699219 C 166.917969 319.585938 169.054688 333.601562 171.441406 347.570312 C 172.777344 355.40625 176.0625 358.277344 183.839844 358.375 C 186.84375 358.414062 189.847656 358.410156 192.855469 358.378906 C 200.566406 358.289062 204.191406 355.339844 205.496094 347.75 C 207.253906 337.515625 208.574219 327.203125 210.589844 317.027344 C 212.003906 309.871094 212.679688 301.816406 216.53125 296.070312 C 222.242188 287.550781 225.882812 278.945312 226.054688 268.902344 C 226.28125 255.890625 226.164062 242.871094 226.105469 229.851562 C 226.0625 220.023438 221.703125 212.710938 212.316406 209.496094 C 196.332031 204.015625 180.082031 204.023438 164.140625 209.625 C 155.320312 212.722656 151.007812 219.714844 150.882812 229.085938 C 150.792969 236.097656 150.867188 243.109375 150.867188 250.117188 Z M 218.054688 168.429688 C 218.160156 151.414062 204.816406 137.699219 187.972656 137.503906 C 171.523438 137.308594 157.296875 151.308594 157.066406 167.917969 C 156.835938 184.574219 170.539062 198.394531 187.453125 198.566406 C 204.589844 198.738281 217.957031 185.578125 218.054688 168.429688 Z M 218.054688 168.429688 " fill-opacity="1" fill-rule="nonzero"/></g><g clip-path="url(#id58)"><path fill="#c8a47b" d="M 150.867188 250.117188 C 150.867188 243.109375 150.792969 236.097656 150.882812 229.085938 C 151.007812 219.714844 155.320312 212.722656 164.140625 209.625 C 180.082031 204.023438 196.332031 204.015625 212.316406 209.496094 C 221.707031 212.710938 226.066406 220.023438 226.109375 229.851562 C 226.164062 242.871094 226.28125 255.890625 226.054688 268.902344 C 225.882812 278.945312 222.242188 287.550781 216.53125 296.070312 C 212.679688 301.816406 212.007812 309.871094 210.589844 317.027344 C 208.574219 327.203125 207.253906 337.515625 205.496094 347.75 C 204.191406 355.339844 200.566406 358.289062 192.855469 358.378906 C 189.847656 358.410156 186.84375 358.414062 183.839844 358.375 C 176.0625 358.277344 172.777344 355.40625 171.441406 347.570312 C 169.054688 333.601562 166.917969 319.585938 164.144531 305.699219 C 163.328125 301.613281 161.191406 297.574219 158.835938 294.066406 C 154.011719 286.875 151.136719 279.171875 150.945312 270.542969 C 150.789062 263.738281 150.914062 256.925781 150.914062 250.117188 C 150.894531 250.117188 150.882812 250.117188 150.867188 250.117188 Z M 150.867188 250.117188 " fill-opacity="1" fill-rule="evenodd"/></g><path fill="#c8a47b" d="M 218.054688 168.429688 C 217.957031 185.578125 204.589844 198.738281 187.453125 198.566406 C 170.539062 198.390625 156.835938 184.574219 157.066406 167.917969 C 157.296875 151.308594 171.523438 137.308594 187.972656 137.503906 C 204.816406 137.699219 218.160156 151.414062 218.054688 168.429688 Z M 218.054688 168.429688 " fill-opacity="1" fill-rule="evenodd"/><g clip-path="url(#id59)"><g mask="url(#id60)"><g transform="matrix(1, 0, 0, 1, 150, 137)"><g clip-path="url(#id64)"><g clip-path="url(#id61)"><path fill="#c8a47b" d="M 0.867188 113.117188 C 0.882812 113.117188 0.894531 113.117188 0.914062 113.117188 C 0.914062 119.925781 0.789062 126.738281 0.945312 133.542969 C 1.136719 142.171875 4.011719 149.875 8.835938 157.066406 C 11.191406 160.574219 13.328125 164.613281 14.144531 168.699219 C 16.917969 182.585938 19.054688 196.601562 21.441406 210.570312 C 22.777344 218.40625 26.0625 221.277344 33.839844 221.375 C 36.84375 221.414062 39.847656 221.410156 42.855469 221.378906 C 50.566406 221.289062 54.191406 218.339844 55.496094 210.75 C 57.253906 200.515625 58.574219 190.203125 60.589844 180.027344 C 62.003906 172.871094 62.679688 164.816406 66.53125 159.070312 C 72.242188 150.550781 75.882812 141.945312 76.054688 131.902344 C 76.28125 118.890625 76.164062 105.871094 76.105469 92.851562 C 76.0625 83.023438 71.703125 75.710938 62.316406 72.496094 C 46.332031 67.015625 30.082031 67.023438 14.140625 72.625 C 5.320312 75.722656 1.007812 82.714844 0.882812 92.085938 C 0.792969 99.097656 0.867188 106.109375 0.867188 113.117188 Z M 68.054688 31.429688 C 68.160156 14.414062 54.816406 0.699219 37.972656 0.503906 C 21.523438 0.308594 7.296875 14.308594 7.066406 30.917969 C 6.835938 47.574219 20.539062 61.394531 37.453125 61.566406 C 54.589844 61.738281 67.957031 48.578125 68.054688 31.429688 Z M 68.054688 31.429688 " fill-opacity="1" fill-rule="nonzero"/></g><g clip-path="url(#id62)"><path fill="#c8a47b" d="M 0.867188 113.117188 C 0.867188 106.109375 0.792969 99.097656 0.882812 92.085938 C 1.007812 82.714844 5.320312 75.722656 14.140625 72.625 C 30.082031 67.023438 46.332031 67.015625 62.316406 72.496094 C 71.707031 75.710938 76.066406 83.023438 76.109375 92.851562 C 76.164062 105.871094 76.28125 118.890625 76.054688 131.902344 C 75.882812 141.945312 72.242188 150.550781 66.53125 159.070312 C 62.679688 164.816406 62.007812 172.871094 60.589844 180.027344 C 58.574219 190.203125 57.253906 200.515625 55.496094 210.75 C 54.191406 218.339844 50.566406 221.289062 42.855469 221.378906 C 39.847656 221.410156 36.84375 221.414062 33.839844 221.375 C 26.0625 221.277344 22.777344 218.40625 21.441406 210.570312 C 19.054688 196.601562 16.917969 182.585938 14.144531 168.699219 C 13.328125 164.613281 11.191406 160.574219 8.835938 157.066406 C 4.011719 149.875 1.136719 142.171875 0.945312 133.542969 C 0.789062 126.738281 0.914062 119.925781 0.914062 113.117188 C 0.894531 113.117188 0.882812 113.117188 0.867188 113.117188 Z M 0.867188 113.117188 " fill-opacity="1" fill-rule="evenodd"/></g><g clip-path="url(#id63)"><path fill="#c8a47b" d="M 68.054688 31.429688 C 67.957031 48.578125 54.589844 61.738281 37.453125 61.566406 C 20.539062 61.390625 6.835938 47.574219 7.066406 30.917969 C 7.296875 14.308594 21.523438 0.308594 37.972656 0.503906 C 54.816406 0.699219 68.160156 14.414062 68.054688 31.429688 Z M 68.054688 31.429688 " fill-opacity="1" fill-rule="evenodd"/></g></g></g></g></g></svg>