<svg xmlns="http://www.w3.org/2000/svg" xmlns:xlink="http://www.w3.org/1999/xlink" width="500" zoomAndPan="magnify" viewBox="0 0 375 374.999991" height="500" preserveAspectRatio="xMidYMid meet" version="1.0"><defs><clipPath id="id1"><path d="M 196 145 L 373 145 L 373 348.1875 L 196 348.1875 Z M 196 145 " clip-rule="nonzero"/></clipPath><clipPath id="id2"><path d="M 3 145 L 180 145 L 180 348.1875 L 3 348.1875 Z M 3 145 " clip-rule="nonzero"/></clipPath><clipPath id="id3"><path d="M 134 27.1875 L 311 27.1875 L 311 180 L 134 180 Z M 134 27.1875 " clip-rule="nonzero"/></clipPath></defs><path fill="#866042" d="M 226.773438 178.4375 C 226.773438 178.4375 218.90625 189.023438 215.652344 210.457031 C 215.652344 210.457031 218.363281 224.023438 215.652344 232.167969 C 212.949219 240.304688 205.28125 250.105469 201.058594 256.320312 C 199.695312 258.324219 198.945312 265.53125 203.726562 266.628906 C 209.695312 267.984375 216.335938 268.527344 216.335938 268.527344 C 216.335938 268.527344 215.925781 274.222656 213.761719 276.671875 C 213.761719 276.671875 214.390625 281.003906 217.332031 282.910156 C 217.332031 282.910156 224.335938 283.992188 224.601562 285.078125 C 224.601562 285.078125 221.941406 286.707031 219.992188 288.332031 C 218.046875 289.964844 217.53125 292.914062 217.804688 294.8125 C 218.078125 296.71875 219.613281 298.574219 221.28125 300.386719 C 223.898438 303.230469 223.980469 303.886719 223.699219 313.746094 C 223.476562 321.617188 225.933594 327.582031 230.199219 327.792969 C 230.199219 327.792969 244.046875 331.753906 267.226562 326.253906 C 267.226562 326.253906 269.25 337.449219 266.203125 344.234375 L 345.007812 344.234375 C 345.007812 344.234375 333.1875 316.941406 337.625 304.070312 C 342.011719 291.339844 352.78125 276.136719 356.867188 267.847656 C 374.757812 231.621094 372.226562 190.328125 342.226562 169.347656 C 286.945312 130.679688 240.054688 157.003906 226.773438 178.4375 " fill-opacity="1" fill-rule="nonzero"/><g clip-path="url(#id1)"><path fill="#866042" d="M 226.773438 178.4375 L 223.574219 176.058594 C 223.269531 176.457031 215.085938 187.664062 211.722656 209.859375 C 211.648438 210.328125 211.660156 210.777344 211.753906 211.242188 L 211.761719 211.28125 C 211.871094 211.828125 212.886719 217.34375 212.878906 222.917969 C 212.886719 225.878906 212.574219 228.863281 211.878906 230.910156 C 210.734375 234.378906 208.296875 238.675781 205.597656 242.777344 C 202.890625 246.898438 199.957031 250.859375 197.769531 254.078125 C 197.40625 254.605469 197.171875 255.109375 196.960938 255.621094 C 196.367188 257.148438 196.0625 258.832031 196.050781 260.714844 C 196.058594 262.457031 196.324219 264.367188 197.320312 266.269531 C 197.816406 267.207031 198.53125 268.136719 199.476562 268.902344 C 200.421875 269.660156 201.59375 270.226562 202.84375 270.515625 C 209.191406 271.945312 215.914062 272.488281 216.015625 272.5 L 216.335938 268.527344 L 212.371094 268.242188 L 213.402344 268.316406 L 212.371094 268.234375 L 212.371094 268.242188 L 213.402344 268.316406 L 212.371094 268.234375 C 212.371094 268.277344 212.257812 269.574219 211.941406 270.972656 C 211.785156 271.671875 211.578125 272.394531 211.351562 272.96875 C 211.125 273.539062 210.859375 273.949219 210.785156 274.023438 C 210 274.902344 209.652344 276.074219 209.820312 277.242188 C 209.855469 277.441406 210.050781 278.789062 210.746094 280.550781 C 211.09375 281.429688 211.578125 282.417969 212.277344 283.421875 C 212.980469 284.417969 213.910156 285.4375 215.175781 286.253906 C 215.640625 286.558594 216.175781 286.757812 216.722656 286.84375 L 216.777344 286.851562 C 217.109375 286.90625 218.789062 287.1875 220.28125 287.542969 C 221.011719 287.710938 221.722656 287.921875 222.050781 288.046875 L 222.203125 288.109375 L 222.203125 288.113281 L 223.027344 286.453125 L 221.847656 287.867188 C 222.109375 288.078125 222.195312 288.109375 222.203125 288.113281 L 223.027344 286.453125 L 221.847656 287.867188 L 223.898438 285.414062 L 221.332031 287.3125 C 221.542969 287.589844 221.714844 287.753906 221.847656 287.867188 L 223.898438 285.414062 L 221.332031 287.3125 L 224.230469 285.167969 L 220.738281 286.035156 C 220.882812 286.621094 221.125 287.039062 221.332031 287.3125 L 224.230469 285.167969 L 220.738281 286.035156 L 224.601562 285.078125 L 222.523438 281.675781 C 222.488281 281.703125 221.785156 282.132812 220.808594 282.785156 C 219.832031 283.445312 218.59375 284.308594 217.445312 285.269531 L 217.4375 285.277344 C 215.96875 286.515625 215.070312 288.046875 214.519531 289.515625 C 213.972656 291.003906 213.757812 292.453125 213.757812 293.824219 C 213.757812 294.351562 213.789062 294.875 213.867188 295.40625 L 213.863281 295.378906 C 214.136719 297.203125 214.90625 298.648438 215.722656 299.863281 C 216.546875 301.089844 217.476562 302.128906 218.359375 303.089844 C 218.824219 303.59375 219.128906 303.953125 219.285156 304.171875 C 219.503906 304.519531 219.515625 304.507812 219.640625 305.023438 C 219.746094 305.527344 219.832031 306.566406 219.824219 308.261719 C 219.824219 309.605469 219.78125 311.367188 219.71875 313.640625 L 219.71875 313.632812 C 219.707031 313.984375 219.703125 314.34375 219.703125 314.71875 C 219.714844 318.847656 220.34375 322.570312 221.820312 325.675781 C 222.574219 327.226562 223.5625 328.652344 224.9375 329.785156 C 226.292969 330.917969 228.109375 331.691406 230.011719 331.769531 L 230.199219 327.792969 L 229.109375 331.621094 C 229.410156 331.707031 234.609375 333.152344 243.761719 333.152344 C 250.097656 333.152344 258.339844 332.460938 268.140625 330.132812 L 267.226562 326.253906 L 263.308594 326.96875 L 264.128906 326.820312 L 263.308594 326.964844 L 263.308594 326.96875 L 264.128906 326.820312 L 263.308594 326.964844 C 263.320312 327.046875 263.910156 330.433594 263.902344 334.316406 C 263.921875 337.304688 263.507812 340.59375 262.578125 342.605469 C 262.027344 343.832031 262.136719 345.269531 262.867188 346.402344 C 263.597656 347.527344 264.863281 348.21875 266.203125 348.21875 L 345.007812 348.21875 C 346.351562 348.21875 347.601562 347.546875 348.335938 346.421875 C 349.074219 345.292969 349.191406 343.886719 348.660156 342.648438 L 348.640625 342.609375 C 348.433594 342.117188 346.386719 337.285156 344.417969 331.015625 C 343.433594 327.886719 342.46875 324.398438 341.761719 320.9375 C 341.054688 317.476562 340.605469 314.039062 340.609375 311.089844 C 340.605469 308.796875 340.886719 306.816406 341.386719 305.371094 C 343.410156 299.476562 347.089844 292.640625 350.796875 286.304688 C 352.652344 283.128906 354.511719 280.058594 356.175781 277.242188 C 357.847656 274.421875 359.324219 271.871094 360.4375 269.617188 C 368 254.296875 372.066406 238.058594 372.066406 222.574219 C 372.066406 211.398438 369.9375 200.601562 365.410156 190.914062 C 360.890625 181.234375 353.945312 172.671875 344.511719 166.078125 C 323.378906 151.292969 303.125 145.582031 285.332031 145.589844 C 270.304688 145.589844 257.089844 149.636719 246.527344 155.464844 C 235.957031 161.316406 228.015625 168.894531 223.390625 176.332031 L 226.773438 178.4375 L 223.574219 176.058594 L 226.773438 178.4375 L 230.15625 180.535156 C 233.867188 174.515625 240.894531 167.660156 250.367188 162.445312 C 259.847656 157.214844 271.746094 153.558594 285.332031 153.558594 C 301.421875 153.570312 319.964844 158.644531 339.953125 172.617188 C 348.242188 178.417969 354.222656 185.804688 358.199219 194.296875 C 362.171875 202.789062 364.105469 212.40625 364.105469 222.574219 C 364.113281 236.652344 360.378906 251.761719 353.304688 266.082031 C 352.371094 267.972656 350.964844 270.421875 349.328125 273.179688 C 346.875 277.324219 343.886719 282.195312 341.082031 287.269531 C 338.273438 292.355469 335.636719 297.632812 333.863281 302.769531 C 332.960938 305.390625 332.652344 308.199219 332.652344 311.089844 C 332.652344 314.941406 333.222656 318.96875 334.042969 322.90625 C 336.519531 334.679688 341.308594 345.6875 341.359375 345.824219 L 345.007812 344.234375 L 345.007812 340.25 L 266.203125 340.25 L 266.203125 344.234375 L 269.835938 345.867188 C 271.515625 342.054688 271.84375 337.914062 271.863281 334.316406 C 271.859375 329.523438 271.160156 325.6875 271.136719 325.546875 C 270.945312 324.46875 270.316406 323.523438 269.402344 322.925781 C 268.488281 322.324219 267.367188 322.125 266.304688 322.382812 C 257.125 324.554688 249.519531 325.183594 243.761719 325.183594 C 239.601562 325.183594 236.410156 324.859375 234.296875 324.542969 C 233.238281 324.378906 232.449219 324.226562 231.945312 324.113281 C 231.691406 324.058594 231.511719 324.011719 231.40625 323.988281 L 231.292969 323.957031 L 231.25 324.121094 L 231.292969 323.957031 L 231.25 324.121094 L 231.292969 323.957031 C 231.019531 323.875 230.683594 323.820312 230.390625 323.808594 C 230.25 323.789062 230.222656 323.800781 229.976562 323.621094 C 229.625 323.359375 228.949219 322.433594 228.464844 320.855469 C 227.972656 319.292969 227.660156 317.152344 227.660156 314.71875 C 227.660156 314.449219 227.667969 314.164062 227.675781 313.859375 L 227.675781 313.851562 C 227.734375 311.582031 227.785156 309.78125 227.785156 308.261719 C 227.785156 306.992188 227.753906 305.921875 227.65625 304.917969 C 227.582031 304.164062 227.460938 303.449219 227.277344 302.738281 C 226.996094 301.679688 226.515625 300.652344 225.957031 299.824219 C 225.398438 298.992188 224.808594 298.335938 224.203125 297.683594 C 223.421875 296.832031 222.742188 296.035156 222.3125 295.398438 C 221.878906 294.765625 221.746094 294.328125 221.746094 294.253906 L 221.742188 294.226562 C 221.730469 294.140625 221.714844 294 221.714844 293.824219 C 221.710938 293.363281 221.808594 292.753906 221.984375 292.292969 C 222.15625 291.820312 222.386719 291.515625 222.550781 291.390625 L 222.542969 291.390625 C 223.339844 290.730469 224.402344 289.96875 225.242188 289.402344 C 225.664062 289.125 226.03125 288.886719 226.285156 288.726562 L 226.585938 288.53125 L 226.660156 288.488281 L 226.671875 288.480469 C 228.152344 287.574219 228.878906 285.804688 228.464844 284.125 C 228.195312 283.097656 227.699219 282.484375 227.320312 282.085938 C 226.578125 281.367188 226.058594 281.140625 225.570312 280.890625 C 224.726562 280.5 223.941406 280.269531 223.121094 280.039062 C 221.902344 279.710938 220.640625 279.453125 219.652344 279.265625 C 218.667969 279.082031 217.972656 278.976562 217.941406 278.96875 L 217.332031 282.910156 L 219.488281 279.558594 C 219.285156 279.429688 219.035156 279.191406 218.792969 278.835938 C 218.421875 278.320312 218.097656 277.5625 217.917969 276.964844 C 217.824219 276.664062 217.761719 276.410156 217.730469 276.246094 L 217.699219 276.078125 L 217.691406 276.0625 L 215.664062 276.390625 L 217.699219 276.09375 L 217.691406 276.0625 L 215.664062 276.390625 L 217.699219 276.09375 L 213.761719 276.671875 L 216.734375 279.316406 C 217.738281 278.171875 218.320312 276.96875 218.78125 275.816406 C 219.453125 274.085938 219.800781 272.414062 220.019531 271.113281 C 220.238281 269.816406 220.304688 268.902344 220.3125 268.820312 C 220.464844 266.636719 218.84375 264.734375 216.667969 264.554688 L 216.605469 264.550781 C 215.953125 264.5 209.851562 263.9375 204.609375 262.738281 C 204.464844 262.699219 204.476562 262.695312 204.464844 262.6875 C 204.460938 262.679688 204.355469 262.59375 204.222656 262.234375 C 204.097656 261.882812 204.003906 261.316406 204.011719 260.714844 C 204.003906 260.140625 204.085938 259.53125 204.199219 259.089844 C 204.25 258.863281 204.308594 258.683594 204.355469 258.578125 L 204.390625 258.492188 L 203.777344 258.167969 L 204.347656 258.558594 L 204.390625 258.492188 L 203.777344 258.167969 L 204.347656 258.558594 L 204.355469 258.558594 C 206.382812 255.558594 209.390625 251.511719 212.25 247.148438 C 215.113281 242.765625 217.867188 238.09375 219.433594 233.425781 C 220.542969 230.046875 220.832031 226.390625 220.839844 222.917969 C 220.832031 216.003906 219.582031 209.824219 219.558594 209.679688 L 215.652344 210.457031 L 219.589844 211.054688 C 221.164062 200.714844 223.832031 193.058594 226.070312 188.03125 C 227.1875 185.515625 228.195312 183.660156 228.910156 182.460938 C 229.265625 181.855469 229.550781 181.421875 229.730469 181.148438 L 229.929688 180.859375 L 229.96875 180.804688 L 229.976562 180.796875 L 228.078125 179.410156 L 229.960938 180.808594 L 229.976562 180.796875 L 228.078125 179.410156 L 229.960938 180.808594 L 230.15625 180.535156 L 226.773438 178.4375 " fill-opacity="1" fill-rule="nonzero"/></g><path fill="#866042" d="M 148.390625 178.4375 C 148.390625 178.4375 156.253906 189.023438 159.503906 210.457031 C 159.503906 210.457031 156.792969 224.023438 159.503906 232.167969 C 162.214844 240.304688 169.882812 250.105469 174.101562 256.320312 C 175.460938 258.324219 176.214844 265.53125 171.425781 266.628906 C 165.46875 267.984375 158.820312 268.527344 158.820312 268.527344 C 158.820312 268.527344 159.230469 274.222656 161.402344 276.671875 C 161.402344 276.671875 160.765625 281.003906 157.824219 282.910156 C 157.824219 282.910156 150.835938 283.992188 150.5625 285.078125 C 150.5625 285.078125 153.222656 286.707031 155.164062 288.332031 C 157.109375 289.964844 157.625 292.914062 157.351562 294.8125 C 157.078125 296.71875 155.550781 298.574219 153.882812 300.386719 C 151.257812 303.230469 151.179688 303.886719 151.457031 313.746094 C 151.683594 321.617188 149.226562 327.582031 144.960938 327.792969 C 144.960938 327.792969 131.117188 331.753906 107.941406 326.253906 C 107.941406 326.253906 105.90625 337.449219 108.953125 344.234375 L 30.148438 344.234375 C 30.148438 344.234375 41.976562 316.941406 37.539062 304.070312 C 33.148438 291.339844 22.382812 276.136719 18.292969 267.847656 C 0.40625 231.621094 2.929688 190.328125 32.929688 169.347656 C 88.21875 130.679688 135.113281 157.003906 148.390625 178.4375 " fill-opacity="1" fill-rule="nonzero"/><g clip-path="url(#id2)"><path fill="#866042" d="M 148.390625 178.4375 L 145.195312 180.808594 L 147.128906 179.371094 L 145.1875 180.796875 L 145.195312 180.808594 L 147.128906 179.371094 L 145.1875 180.796875 L 145.257812 180.902344 C 146.027344 182.011719 152.671875 191.96875 155.566406 211.054688 L 159.503906 210.457031 L 155.605469 209.671875 C 155.582031 209.816406 154.324219 216.003906 154.320312 222.917969 C 154.332031 226.390625 154.617188 230.046875 155.730469 233.433594 L 155.730469 233.425781 C 157.296875 238.09375 160.046875 242.765625 162.914062 247.148438 C 165.773438 251.511719 168.777344 255.558594 170.808594 258.558594 L 171.382812 258.167969 L 170.761719 258.484375 L 170.808594 258.554688 L 171.382812 258.167969 L 170.761719 258.484375 C 170.777344 258.511719 170.914062 258.839844 170.996094 259.257812 C 171.089844 259.679688 171.144531 260.210938 171.144531 260.714844 C 171.160156 261.523438 170.972656 262.253906 170.816406 262.511719 L 170.691406 262.6875 C 170.671875 262.695312 170.6875 262.699219 170.542969 262.738281 C 167.761719 263.371094 164.710938 263.839844 162.382812 264.132812 C 161.226562 264.28125 160.238281 264.386719 159.554688 264.457031 C 159.207031 264.492188 158.9375 264.519531 158.757812 264.53125 L 158.554688 264.550781 L 158.496094 264.554688 C 156.316406 264.734375 154.691406 266.628906 154.851562 268.8125 C 154.859375 268.933594 154.972656 270.5 155.40625 272.523438 C 155.625 273.539062 155.921875 274.667969 156.375 275.816406 C 156.835938 276.96875 157.421875 278.171875 158.421875 279.316406 L 161.402344 276.671875 L 157.464844 276.09375 L 158.890625 276.296875 L 157.464844 276.0625 L 157.464844 276.09375 L 158.890625 276.296875 L 157.464844 276.0625 C 157.464844 276.097656 157.308594 276.9375 156.949219 277.765625 C 156.773438 278.183594 156.550781 278.59375 156.320312 278.90625 C 156.089844 279.222656 155.859375 279.4375 155.667969 279.558594 L 157.824219 282.910156 L 157.214844 278.96875 C 157.167969 278.980469 155.363281 279.253906 153.410156 279.703125 C 152.429688 279.925781 151.421875 280.183594 150.445312 280.539062 C 149.945312 280.722656 149.460938 280.921875 148.863281 281.277344 C 148.574219 281.464844 148.238281 281.6875 147.84375 282.085938 C 147.464844 282.484375 146.96875 283.097656 146.699219 284.117188 C 146.277344 285.8125 147 287.566406 148.484375 288.480469 L 148.503906 288.488281 C 148.621094 288.5625 149.261719 288.960938 150.078125 289.515625 C 150.886719 290.0625 151.875 290.765625 152.613281 291.390625 L 152.609375 291.382812 C 152.769531 291.515625 153 291.8125 153.175781 292.292969 C 153.347656 292.753906 153.441406 293.363281 153.441406 293.824219 C 153.441406 293.992188 153.429688 294.152344 153.410156 294.285156 L 153.417969 294.246094 C 153.417969 294.328125 153.28125 294.765625 152.84375 295.40625 C 152.414062 296.039062 151.742188 296.832031 150.953125 297.683594 L 150.960938 297.675781 C 150.417969 298.261719 149.902344 298.84375 149.394531 299.550781 C 148.621094 300.605469 147.988281 302.015625 147.714844 303.457031 C 147.433594 304.898438 147.371094 306.363281 147.371094 308.269531 C 147.371094 309.78125 147.414062 311.585938 147.484375 313.863281 L 147.484375 313.851562 C 147.492188 314.140625 147.492188 314.429688 147.492188 314.722656 C 147.507812 317.972656 146.917969 320.6875 146.164062 322.21875 C 145.792969 322.984375 145.40625 323.433594 145.175781 323.621094 C 144.933594 323.800781 144.910156 323.789062 144.765625 323.808594 C 144.472656 323.828125 144.136719 323.875 143.863281 323.957031 L 143.894531 324.074219 L 143.863281 323.957031 L 143.894531 324.074219 L 143.863281 323.957031 C 143.597656 324.03125 139.1875 325.183594 131.402344 325.183594 C 125.636719 325.183594 118.03125 324.554688 108.855469 322.382812 C 107.789062 322.125 106.675781 322.324219 105.761719 322.925781 C 104.847656 323.523438 104.222656 324.46875 104.023438 325.546875 C 104.003906 325.6875 103.300781 329.523438 103.292969 334.316406 C 103.3125 337.914062 103.636719 342.0625 105.320312 345.871094 L 108.953125 344.234375 L 108.953125 340.25 L 30.148438 340.25 L 30.148438 344.234375 L 33.800781 345.824219 C 33.835938 345.742188 35.976562 340.796875 38.136719 334.050781 C 39.210938 330.667969 40.292969 326.832031 41.121094 322.90625 C 41.941406 318.96875 42.511719 314.9375 42.511719 311.089844 C 42.507812 308.191406 42.195312 305.390625 41.300781 302.777344 C 38.929688 295.929688 35.03125 288.792969 31.238281 282.28125 C 29.339844 279.03125 27.46875 275.941406 25.828125 273.179688 C 24.191406 270.421875 22.789062 267.972656 21.859375 266.082031 C 14.785156 251.753906 11.046875 236.652344 11.050781 222.574219 C 11.050781 212.40625 12.988281 202.789062 16.960938 194.296875 C 20.933594 185.804688 26.917969 178.417969 35.207031 172.617188 C 55.199219 158.644531 73.738281 153.570312 89.824219 153.558594 C 103.414062 153.558594 115.308594 157.214844 124.785156 162.445312 C 134.261719 167.660156 141.289062 174.515625 145.007812 180.535156 L 145.195312 180.808594 L 148.390625 178.4375 L 151.769531 176.332031 C 147.140625 168.894531 139.199219 161.316406 128.628906 155.464844 C 118.070312 149.636719 104.855469 145.589844 89.824219 145.589844 C 72.03125 145.582031 51.777344 151.292969 30.648438 166.078125 C 21.214844 172.671875 14.265625 181.234375 9.746094 190.914062 C 5.21875 200.601562 3.09375 211.398438 3.09375 222.574219 C 3.09375 238.058594 7.164062 254.296875 14.722656 269.617188 C 15.839844 271.871094 17.316406 274.429688 18.980469 277.242188 C 21.488281 281.464844 24.421875 286.253906 27.117188 291.128906 C 29.808594 295.996094 32.257812 300.953125 33.777344 305.371094 C 34.277344 306.816406 34.558594 308.804688 34.554688 311.089844 C 34.558594 314.132812 34.082031 317.695312 33.328125 321.269531 C 32.207031 326.632812 30.492188 332.027344 29.054688 336.042969 C 28.335938 338.054688 27.695312 339.722656 27.226562 340.878906 C 26.996094 341.453125 26.8125 341.90625 26.6875 342.207031 C 26.625 342.359375 26.574219 342.472656 26.542969 342.546875 L 26.507812 342.628906 L 26.5 342.648438 C 25.964844 343.886719 26.082031 345.292969 26.824219 346.421875 C 27.5625 347.546875 28.808594 348.21875 30.148438 348.21875 L 108.953125 348.21875 C 110.308594 348.21875 111.558594 347.542969 112.292969 346.394531 C 113.03125 345.257812 113.136719 343.835938 112.578125 342.597656 C 111.652344 340.59375 111.234375 337.3125 111.253906 334.316406 C 111.253906 332.320312 111.410156 330.4375 111.558594 329.085938 C 111.640625 328.410156 111.714844 327.867188 111.769531 327.492188 C 111.796875 327.3125 111.820312 327.171875 111.832031 327.082031 L 111.851562 326.988281 L 111.855469 326.96875 L 111.125 326.839844 L 111.855469 326.96875 L 111.125 326.839844 L 111.855469 326.96875 L 107.941406 326.253906 L 107.019531 330.132812 C 116.820312 332.460938 125.058594 333.152344 131.402344 333.152344 C 140.550781 333.152344 145.75 331.707031 146.054688 331.621094 L 144.960938 327.792969 L 145.144531 331.769531 C 147.046875 331.691406 148.863281 330.917969 150.21875 329.785156 C 152.277344 328.074219 153.484375 325.769531 154.289062 323.234375 C 155.082031 320.6875 155.449219 317.820312 155.457031 314.722656 C 155.449219 314.371094 155.449219 314.007812 155.4375 313.640625 L 155.4375 313.628906 C 155.371094 311.375 155.332031 309.617188 155.332031 308.269531 C 155.332031 307.140625 155.363281 306.300781 155.417969 305.714844 C 155.460938 305.28125 155.519531 304.992188 155.566406 304.8125 C 155.648438 304.53125 155.679688 304.484375 155.824219 304.253906 C 155.960938 304.039062 156.269531 303.660156 156.804688 303.089844 L 156.8125 303.082031 C 157.6875 302.121094 158.609375 301.082031 159.4375 299.863281 C 160.25 298.644531 161.023438 297.210938 161.296875 295.386719 L 161.300781 295.347656 C 161.363281 294.863281 161.402344 294.359375 161.402344 293.824219 C 161.394531 292.460938 161.183594 291.007812 160.636719 289.523438 C 160.09375 288.050781 159.195312 286.519531 157.726562 285.28125 L 157.71875 285.277344 C 156.5625 284.308594 155.332031 283.445312 154.355469 282.785156 C 153.378906 282.132812 152.671875 281.703125 152.640625 281.675781 L 150.5625 285.078125 L 154.425781 286.042969 L 151.011719 285.1875 L 153.535156 287.660156 C 153.777344 287.40625 154.195312 286.929688 154.425781 286.042969 L 151.011719 285.1875 L 153.535156 287.660156 L 151.632812 285.796875 L 153.050781 288.058594 C 153.136719 288.003906 153.285156 287.910156 153.535156 287.660156 L 151.632812 285.796875 L 153.050781 288.058594 L 152.320312 286.894531 L 152.976562 288.101562 L 153.050781 288.058594 L 152.320312 286.894531 L 152.976562 288.101562 L 152.714844 287.628906 L 152.960938 288.113281 L 152.976562 288.101562 L 152.714844 287.628906 L 152.960938 288.113281 L 153.039062 288.078125 C 153.25 287.988281 153.765625 287.820312 154.347656 287.671875 C 155.226562 287.441406 156.277344 287.230469 157.085938 287.082031 C 157.488281 287 157.832031 286.945312 158.074219 286.902344 L 158.355469 286.855469 L 158.441406 286.84375 C 158.988281 286.757812 159.523438 286.558594 159.988281 286.253906 C 161.253906 285.4375 162.183594 284.417969 162.882812 283.421875 C 163.925781 281.917969 164.492188 280.445312 164.847656 279.316406 C 165.195312 278.191406 165.3125 277.394531 165.335938 277.242188 C 165.503906 276.078125 165.15625 274.902344 164.375 274.019531 C 164.292969 273.945312 164.011719 273.515625 163.789062 272.910156 C 163.429688 272.007812 163.148438 270.769531 162.992188 269.808594 C 162.914062 269.332031 162.855469 268.914062 162.832031 268.632812 L 162.792969 268.316406 L 162.789062 268.242188 L 158.820312 268.527344 L 159.144531 272.5 C 159.242188 272.488281 165.972656 271.945312 172.308594 270.515625 C 173.566406 270.226562 174.734375 269.660156 175.679688 268.894531 C 177.105469 267.742188 177.96875 266.253906 178.453125 264.84375 C 178.945312 263.417969 179.105469 262.023438 179.105469 260.714844 C 179.105469 259.460938 178.957031 258.292969 178.695312 257.203125 C 178.566406 256.660156 178.402344 256.136719 178.199219 255.628906 C 177.992188 255.109375 177.75 254.613281 177.394531 254.082031 C 175.207031 250.859375 172.265625 246.898438 169.566406 242.777344 C 166.863281 238.675781 164.421875 234.378906 163.28125 230.90625 C 162.582031 228.863281 162.273438 225.878906 162.277344 222.917969 C 162.277344 219.953125 162.5625 216.984375 162.851562 214.792969 C 162.992188 213.695312 163.136719 212.792969 163.242188 212.171875 C 163.292969 211.859375 163.335938 211.617188 163.367188 211.460938 L 163.398438 211.285156 L 163.410156 211.242188 C 163.503906 210.777344 163.507812 210.328125 163.441406 209.859375 C 160.070312 187.660156 151.886719 176.457031 151.582031 176.058594 L 148.390625 178.4375 L 151.769531 176.332031 L 148.390625 178.4375 " fill-opacity="1" fill-rule="nonzero"/></g><path fill="#dbd0c0" d="M 306.730469 93.265625 C 306.730469 58.949219 269.078125 31.144531 222.617188 31.144531 C 176.164062 31.144531 138.503906 58.949219 138.503906 93.265625 C 138.503906 127.578125 176.164062 155.390625 222.617188 155.390625 C 223.140625 155.390625 223.648438 155.382812 224.160156 155.378906 C 228.542969 161.453125 236.175781 168.925781 249.371094 175.277344 C 249.371094 175.277344 244.75 164.851562 242.40625 153.660156 C 279.3125 147.085938 306.730469 122.542969 306.730469 93.265625 " fill-opacity="1" fill-rule="nonzero"/><g clip-path="url(#id3)"><path fill="#866042" d="M 306.730469 93.265625 L 310.710938 93.265625 C 310.71875 83.953125 308.148438 75.074219 303.578125 67.097656 C 296.714844 55.132812 285.433594 45.179688 271.421875 38.1875 C 257.410156 31.195312 240.632812 27.160156 222.617188 27.160156 C 198.59375 27.167969 176.78125 34.320312 160.78125 46.128906 C 152.777344 52.039062 146.226562 59.125 141.664062 67.097656 C 137.09375 75.074219 134.519531 83.953125 134.523438 93.265625 C 134.519531 102.582031 137.09375 111.460938 141.664062 119.429688 C 148.523438 131.394531 159.804688 141.355469 173.8125 148.347656 C 187.832031 155.339844 204.601562 159.375 222.617188 159.375 C 223.171875 159.375 223.699219 159.367188 224.210938 159.363281 L 224.160156 155.378906 L 220.9375 157.710938 C 225.691406 164.3125 233.886719 172.257812 247.648438 178.863281 C 249.152344 179.589844 250.945312 179.296875 252.144531 178.132812 C 253.339844 176.96875 253.6875 175.183594 253.007812 173.65625 L 253.003906 173.636719 C 252.777344 173.160156 248.457031 163.183594 246.296875 152.84375 L 242.40625 153.660156 L 243.101562 157.582031 C 262.226562 154.167969 278.984375 146.113281 291.109375 134.898438 C 297.167969 129.289062 302.066406 122.882812 305.457031 115.859375 C 308.847656 108.84375 310.71875 101.210938 310.710938 93.265625 L 302.75 93.265625 C 302.75 99.960938 301.199219 106.371094 298.292969 112.394531 C 293.933594 121.421875 286.503906 129.578125 276.769531 136.0625 C 267.042969 142.550781 255.042969 147.363281 241.710938 149.738281 C 240.644531 149.921875 239.707031 150.535156 239.105469 151.429688 C 238.5 152.320312 238.289062 153.421875 238.507812 154.472656 C 240.976562 166.191406 245.675781 176.746094 245.734375 176.886719 L 249.371094 175.277344 L 251.09375 171.683594 C 238.457031 165.601562 231.398438 158.589844 227.386719 153.042969 C 226.636719 151.996094 225.402344 151.375 224.117188 151.394531 C 223.601562 151.398438 223.101562 151.40625 222.617188 151.40625 C 200.179688 151.410156 179.9375 144.664062 165.5 133.992188 C 158.28125 128.65625 152.507812 122.355469 148.566406 115.46875 C 144.625 108.570312 142.484375 101.113281 142.484375 93.265625 C 142.484375 85.421875 144.625 77.957031 148.566406 71.066406 C 154.472656 60.738281 164.515625 51.722656 177.363281 45.316406 C 190.199219 38.910156 205.789062 35.125 222.617188 35.128906 C 245.054688 35.117188 265.296875 41.867188 279.738281 52.542969 C 286.957031 57.878906 292.726562 64.179688 296.671875 71.066406 C 300.613281 77.957031 302.75 85.421875 302.75 93.265625 L 306.730469 93.265625 " fill-opacity="1" fill-rule="nonzero"/></g><path fill="#dbd0c0" d="M 90.515625 127.125 C 90.515625 102.9375 117.070312 83.332031 149.816406 83.332031 C 182.558594 83.332031 209.105469 102.9375 209.105469 127.125 C 209.105469 151.3125 182.558594 170.917969 149.816406 170.917969 C 149.449219 170.917969 149.082031 170.910156 148.722656 170.90625 C 145.636719 175.1875 140.257812 180.457031 130.953125 184.925781 C 130.953125 184.925781 134.207031 177.589844 135.863281 169.695312 C 109.847656 165.058594 90.515625 147.761719 90.515625 127.125 " fill-opacity="1" fill-rule="nonzero"/><path fill="#866042" d="M 90.515625 127.125 L 94.496094 127.125 C 94.5 121.8125 95.9375 116.757812 98.628906 112.058594 C 102.652344 105.015625 109.550781 98.800781 118.4375 94.375 C 127.3125 89.941406 138.125 87.316406 149.816406 87.316406 C 165.394531 87.308594 179.429688 92.003906 189.371094 99.363281 C 194.355469 103.035156 198.304688 107.363281 200.988281 112.058594 C 203.683594 116.757812 205.117188 121.8125 205.125 127.125 C 205.117188 132.433594 203.683594 137.488281 200.988281 142.191406 C 196.964844 149.230469 190.070312 155.445312 181.1875 159.871094 C 172.316406 164.304688 161.496094 166.933594 149.816406 166.933594 C 149.492188 166.933594 149.136719 166.925781 148.753906 166.921875 C 147.464844 166.914062 146.246094 167.53125 145.492188 168.578125 C 142.78125 172.332031 137.96875 177.128906 129.230469 181.332031 L 130.953125 184.925781 L 134.59375 186.542969 C 134.648438 186.40625 137.988281 178.925781 139.761719 170.511719 C 139.976562 169.460938 139.765625 168.363281 139.164062 167.46875 C 138.558594 166.570312 137.621094 165.960938 136.5625 165.773438 C 124.226562 163.582031 113.566406 158.371094 106.136719 151.484375 C 102.417969 148.042969 99.5 144.1875 97.523438 140.09375 C 95.546875 135.996094 94.496094 131.65625 94.496094 127.125 L 86.535156 127.125 C 86.535156 132.90625 87.898438 138.472656 90.359375 143.558594 C 94.054688 151.210938 100.171875 157.804688 107.878906 162.949219 C 115.589844 168.089844 124.902344 171.789062 135.164062 173.621094 L 135.863281 169.695312 L 131.96875 168.882812 C 131.199219 172.554688 130.023438 176.214844 129.046875 178.917969 C 128.554688 180.269531 128.117188 181.382812 127.800781 182.15625 C 127.644531 182.535156 127.523438 182.832031 127.433594 183.03125 L 127.339844 183.25 L 127.324219 183.300781 L 127.316406 183.3125 C 126.640625 184.839844 126.980469 186.625 128.179688 187.789062 C 129.382812 188.953125 131.171875 189.246094 132.675781 188.519531 C 142.539062 183.785156 148.492188 178.046875 151.949219 173.238281 L 148.722656 170.90625 L 148.691406 174.890625 C 149.027344 174.894531 149.40625 174.902344 149.816406 174.902344 C 166.980469 174.894531 182.589844 169.789062 194.097656 161.296875 C 199.851562 157.050781 204.582031 151.941406 207.898438 146.152344 C 211.214844 140.371094 213.085938 133.902344 213.085938 127.125 C 213.085938 120.34375 211.214844 113.875 207.898438 108.097656 C 202.917969 99.417969 194.785156 92.257812 184.738281 87.242188 C 174.683594 82.230469 162.6875 79.347656 149.816406 79.347656 C 132.644531 79.351562 117.03125 84.457031 105.519531 92.949219 C 99.769531 97.195312 95.035156 102.308594 91.722656 108.089844 C 88.40625 113.875 86.527344 120.34375 86.535156 127.125 L 90.515625 127.125 " fill-opacity="1" fill-rule="nonzero"/><path fill="#866042" d="M 131.609375 128.886719 C 131.609375 131.78125 129.261719 134.128906 126.367188 134.128906 C 123.472656 134.128906 121.128906 131.78125 121.128906 128.886719 C 121.128906 125.992188 123.472656 123.636719 126.367188 123.636719 C 129.261719 123.636719 131.609375 125.992188 131.609375 128.886719 " fill-opacity="1" fill-rule="nonzero"/><path fill="#866042" d="M 155.046875 128.886719 C 155.046875 131.78125 152.703125 134.128906 149.816406 134.128906 C 146.917969 134.128906 144.574219 131.78125 144.574219 128.886719 C 144.574219 125.992188 146.917969 123.636719 149.816406 123.636719 C 152.703125 123.636719 155.046875 125.992188 155.046875 128.886719 " fill-opacity="1" fill-rule="nonzero"/><path fill="#866042" d="M 178.496094 128.886719 C 178.496094 131.78125 176.152344 134.128906 173.253906 134.128906 C 170.363281 134.128906 168.019531 131.78125 168.019531 128.886719 C 168.019531 125.992188 170.363281 123.636719 173.253906 123.636719 C 176.152344 123.636719 178.496094 125.992188 178.496094 128.886719 " fill-opacity="1" fill-rule="nonzero"/></svg>