<svg xmlns="http://www.w3.org/2000/svg" xmlns:xlink="http://www.w3.org/1999/xlink" width="500" zoomAndPan="magnify" viewBox="0 0 375 374.999991" height="500" preserveAspectRatio="xMidYMid meet" version="1.0"><path fill="#866042" d="M 143.4375 310.355469 L 156.304688 310.355469 L 156.304688 336.085938 L 143.4375 336.085938 Z M 143.4375 310.355469 " fill-opacity="1" fill-rule="nonzero"/><path fill="#866042" d="M 124.140625 181.710938 L 143.4375 181.710938 L 143.4375 297.492188 L 124.140625 297.492188 Z M 124.140625 181.710938 " fill-opacity="1" fill-rule="nonzero"/><path fill="#866042" d="M 98.414062 368.246094 C 98.414062 371.789062 101.300781 374.679688 104.84375 374.679688 L 169.167969 374.679688 C 172.710938 374.679688 175.601562 371.789062 175.601562 368.246094 L 175.601562 348.949219 L 98.414062 348.949219 Z M 98.414062 368.246094 " fill-opacity="1" fill-rule="nonzero"/><path fill="#866042" d="M 101.628906 149.550781 C 96.308594 149.550781 91.980469 153.878906 91.980469 159.199219 C 91.980469 164.515625 96.308594 168.847656 101.628906 168.847656 L 111.277344 168.847656 L 111.277344 159.199219 C 111.277344 153.878906 106.949219 149.550781 101.628906 149.550781 Z M 101.628906 149.550781 " fill-opacity="1" fill-rule="nonzero"/><path fill="#866042" d="M 85.550781 310.355469 L 104.84375 310.355469 L 104.84375 336.085938 L 85.550781 336.085938 Z M 85.550781 310.355469 " fill-opacity="1" fill-rule="nonzero"/><path fill="#866042" d="M 117.710938 310.355469 L 130.574219 310.355469 L 130.574219 336.085938 L 117.710938 336.085938 Z M 117.710938 310.355469 " fill-opacity="1" fill-rule="nonzero"/><path fill="#866042" d="M 284.949219 1.609375 C 235.292969 1.609375 194.898438 42.003906 194.898438 91.660156 C 194.898438 113.097656 202.621094 133.894531 216.636719 150.230469 C 218.324219 152.199219 218.671875 154.980469 217.511719 157.300781 L 208.667969 174.988281 L 228.796875 166.042969 C 229.632812 165.667969 230.523438 165.488281 231.40625 165.488281 C 232.660156 165.488281 233.910156 165.855469 234.984375 166.570312 C 249.808594 176.476562 267.085938 181.710938 284.949219 181.710938 C 334.605469 181.710938 375 141.316406 375 91.660156 C 375 42.003906 334.605469 1.609375 284.949219 1.609375 Z M 284.949219 162.414062 C 277.839844 162.414062 272.085938 156.65625 272.085938 149.550781 C 272.085938 142.441406 277.839844 136.683594 284.949219 136.683594 C 292.054688 136.683594 297.8125 142.441406 297.8125 149.550781 C 297.8125 156.65625 292.054688 162.414062 284.949219 162.414062 Z M 303.46875 98.871094 C 299.84375 102.492188 297.8125 107.398438 297.8125 112.519531 L 297.8125 117.386719 L 272.085938 117.386719 L 272.085938 112.519531 C 272.085938 99.164062 277.390625 86.359375 286.832031 76.910156 C 289.746094 73.996094 291.378906 70.046875 291.378906 65.929688 C 291.378906 58.824219 285.625 53.066406 278.515625 53.066406 C 271.410156 53.066406 265.652344 58.824219 265.652344 65.929688 L 265.652344 72.363281 L 239.921875 72.363281 L 239.921875 65.929688 C 239.921875 44.613281 257.199219 27.335938 278.515625 27.335938 C 299.832031 27.335938 317.109375 44.613281 317.109375 65.929688 C 317.109375 78.285156 312.203125 90.136719 303.46875 98.871094 Z M 303.46875 98.871094 " fill-opacity="1" fill-rule="nonzero"/><path fill="#866042" d="M 175.601562 159.199219 C 175.601562 153.878906 171.269531 149.550781 165.953125 149.550781 C 160.632812 149.550781 156.304688 153.878906 156.304688 159.199219 L 156.304688 168.847656 L 165.953125 168.847656 C 171.269531 168.847656 175.601562 164.515625 175.601562 159.199219 Z M 175.601562 159.199219 " fill-opacity="1" fill-rule="nonzero"/><path fill="#866042" d="M 197.507812 194.023438 C 196.664062 194.394531 195.777344 194.574219 194.898438 194.574219 C 193.171875 194.574219 191.480469 193.886719 190.238281 192.589844 C 188.363281 190.625 187.925781 187.691406 189.140625 185.269531 L 204.132812 155.28125 C 189.855469 137.15625 182.03125 114.730469 182.03125 91.660156 C 182.03125 65.015625 192.296875 40.78125 208.972656 22.488281 C 184.921875 7.261719 157.222656 0.0898438 128.367188 1.878906 C 60.792969 6.070312 5.320312 62.378906 2.089844 130.058594 C 0.25 168.484375 14.890625 205.96875 42.242188 232.898438 C 60.28125 250.660156 70.871094 273.390625 72.472656 297.492188 L 111.277344 297.492188 L 111.277344 181.710938 L 101.628906 181.710938 C 89.214844 181.710938 79.117188 171.613281 79.117188 159.199219 C 79.117188 146.785156 89.214844 136.683594 101.628906 136.683594 C 114.042969 136.683594 124.140625 146.785156 124.140625 159.199219 L 124.140625 168.847656 L 143.4375 168.847656 L 143.4375 159.199219 C 143.4375 146.785156 153.539062 136.683594 165.953125 136.683594 C 178.367188 136.683594 188.464844 146.785156 188.464844 159.199219 C 188.464844 171.613281 178.367188 181.710938 165.953125 181.710938 L 156.304688 181.710938 L 156.304688 297.492188 L 201.546875 297.492188 C 203.167969 273.460938 213.859375 250.632812 232.054688 232.621094 C 244.097656 220.695312 253.46875 206.839844 260.28125 191.53125 C 249.9375 188.980469 240.011719 184.882812 230.851562 179.207031 Z M 197.507812 194.023438 " fill-opacity="1" fill-rule="nonzero"/><path fill="#866042" d="M 169.167969 310.355469 L 188.464844 310.355469 L 188.464844 336.085938 L 169.167969 336.085938 Z M 169.167969 310.355469 " fill-opacity="1" fill-rule="nonzero"/></svg>