<svg xmlns="http://www.w3.org/2000/svg" xmlns:xlink="http://www.w3.org/1999/xlink" width="500" zoomAndPan="magnify" viewBox="0 0 375 374.999991" height="500" preserveAspectRatio="xMidYMid meet" version="1.0"><path fill="#866042" d="M 0.183594 93.8125 C 62.621094 77.179688 125.0625 77.179688 187.5 93.8125 C 249.9375 110.441406 312.378906 110.441406 374.816406 93.8125 L 374.816406 280.917969 C 312.378906 297.546875 249.9375 297.546875 187.5 280.917969 C 125.0625 264.285156 62.621094 264.285156 0.183594 280.917969 Z M 0.183594 93.8125 " fill-opacity="1" fill-rule="nonzero"/><path fill="#dbd0c0" d="M 0.183594 93.8125 C 14.144531 90.09375 28.105469 87.203125 42.066406 85.148438 C 90.546875 102.222656 139.023438 129.320312 187.5 166.445312 C 235.980469 155.148438 284.457031 133.824219 332.933594 102.476562 C 346.898438 100.417969 360.859375 97.53125 374.820312 93.8125 L 374.820312 114.734375 C 326.34375 151.855469 277.863281 178.957031 229.386719 196.03125 C 277.863281 227.378906 326.34375 248.703125 374.820312 260 L 374.820312 280.921875 C 360.859375 284.640625 346.898438 287.527344 332.933594 289.582031 C 284.457031 272.507812 235.980469 245.410156 187.5 208.285156 C 139.023438 219.582031 90.546875 240.90625 42.066406 272.253906 C 28.105469 274.3125 14.144531 277.199219 0.183594 280.917969 L 0.183594 260 C 48.660156 222.875 97.136719 195.777344 145.617188 178.703125 C 97.136719 147.351562 48.660156 126.027344 0.183594 114.730469 Z M 0.183594 93.8125 " fill-opacity="1" fill-rule="nonzero"/><path fill="#866042" d="M 0.183594 93.8125 C 62.621094 108.363281 125.0625 139.546875 187.5 187.363281 C 178.191406 184.882812 168.882812 182.773438 159.578125 181.035156 C 106.445312 144.566406 53.3125 120.140625 0.179688 107.757812 Z M 187.5 173.417969 C 240.632812 161.035156 293.761719 136.609375 346.894531 100.140625 C 356.203125 98.402344 365.511719 96.292969 374.820312 93.8125 C 312.378906 141.628906 249.941406 172.8125 187.5 187.363281 Z M 374.816406 280.917969 C 312.378906 266.363281 249.9375 235.179688 187.5 187.363281 C 196.808594 189.84375 206.117188 191.953125 215.421875 193.691406 C 268.554688 230.160156 321.6875 254.585938 374.820312 266.96875 Z M 187.5 201.308594 C 134.367188 213.691406 81.238281 238.117188 28.105469 274.585938 C 18.796875 276.324219 9.488281 278.4375 0.179688 280.914062 C 62.621094 233.097656 125.058594 201.914062 187.5 187.363281 Z M 187.5 201.308594 " fill-opacity="1" fill-rule="nonzero"/><path fill="#dbd0c0" d="M 156.28125 86.882812 C 166.6875 88.730469 177.09375 91.039062 187.5 93.8125 C 197.90625 96.582031 208.3125 98.894531 218.71875 100.742188 L 218.71875 163.109375 C 270.753906 172.347656 322.785156 170.039062 374.816406 156.179688 L 374.816406 218.546875 C 322.785156 232.40625 270.753906 234.71875 218.71875 225.476562 L 218.71875 287.847656 C 208.3125 285.996094 197.90625 283.6875 187.5 280.917969 C 177.09375 278.144531 166.6875 275.835938 156.28125 273.988281 L 156.28125 211.617188 C 104.246094 202.378906 52.214844 204.6875 0.183594 218.546875 L 0.183594 156.179688 C 52.214844 142.320312 104.246094 140.011719 156.28125 149.25 Z M 156.28125 86.882812 " fill-opacity="1" fill-rule="nonzero"/><path fill="#866042" d="M 168.769531 89.320312 C 175.011719 90.652344 181.257812 92.148438 187.5 93.8125 C 193.742188 95.472656 199.988281 96.972656 206.230469 98.300781 L 206.230469 173.144531 C 262.425781 185.117188 318.621094 183.621094 374.816406 168.652344 L 374.816406 206.074219 C 318.621094 221.042969 262.425781 222.539062 206.230469 210.566406 L 206.230469 285.40625 C 199.988281 284.078125 193.742188 282.578125 187.5 280.917969 C 181.257812 279.253906 175.011719 277.757812 168.769531 276.425781 L 168.769531 201.582031 C 112.574219 189.609375 56.378906 191.105469 0.183594 206.074219 L 0.183594 168.652344 C 56.378906 153.683594 112.574219 152.1875 168.769531 164.164062 Z M 168.769531 89.320312 " fill-opacity="1" fill-rule="nonzero"/></svg>