<svg xmlns="http://www.w3.org/2000/svg" xmlns:xlink="http://www.w3.org/1999/xlink" width="500" zoomAndPan="magnify" viewBox="0 0 375 374.999991" height="500" preserveAspectRatio="xMidYMid meet" version="1.0"><defs><clipPath id="859b818716"><path d="M 131.25 304.921875 L 243.75 304.921875 L 243.75 358.921875 L 131.25 358.921875 Z M 131.25 304.921875 " clip-rule="nonzero"/></clipPath><clipPath id="5e37db62fe"><path d="M 76.640625 0 L 298.640625 0 L 298.640625 375 L 76.640625 375 Z M 76.640625 0 " clip-rule="nonzero"/></clipPath></defs><g clip-path="url(#859b818716)"><path fill="#00d8ff" d="M 131.25 304.921875 L 243.75 304.921875 L 243.75 358.921875 L 131.25 358.921875 L 131.25 304.921875 " fill-opacity="1" fill-rule="nonzero"/></g><g clip-path="url(#5e37db62fe)"><path fill="#ff4800" d="M 255.910156 0 L 119.371094 0 C 95.820312 0 76.703125 19.089844 76.703125 42.613281 L 76.703125 332.386719 C 76.703125 355.910156 95.820312 375 119.371094 375 L 255.910156 375 C 279.460938 375 298.578125 355.910156 298.578125 332.386719 L 298.578125 42.613281 C 298.578125 19.089844 279.460938 0 255.910156 0 Z M 187.640625 357.953125 C 173.476562 357.953125 162.039062 346.535156 162.039062 332.386719 C 162.039062 318.238281 173.476562 306.816406 187.640625 306.816406 C 201.804688 306.816406 213.242188 318.238281 213.242188 332.386719 C 213.242188 346.535156 201.804688 357.953125 187.640625 357.953125 Z M 264.441406 289.773438 L 110.839844 289.773438 L 110.839844 51.136719 L 264.441406 51.136719 Z M 264.441406 289.773438 " fill-opacity="1" fill-rule="nonzero"/></g></svg>