<svg xmlns="http://www.w3.org/2000/svg" xmlns:xlink="http://www.w3.org/1999/xlink" width="500" zoomAndPan="magnify" viewBox="0 0 375 374.999991" height="500" preserveAspectRatio="xMidYMid meet" version="1.0"><defs><clipPath id="ed7cfdcd44"><path d="M 2 118 L 374 118 L 374 280 L 2 280 Z M 2 118 " clip-rule="nonzero"/></clipPath><clipPath id="56fe646e28"><path d="M -83.050781 99.128906 L 315.84375 -43.863281 L 445.171875 316.90625 L 46.277344 459.898438 Z M -83.050781 99.128906 " clip-rule="nonzero"/></clipPath><clipPath id="e289d71d0e"><path d="M -83.050781 99.128906 L 315.84375 -43.863281 L 445.171875 316.90625 L 46.277344 459.898438 Z M -83.050781 99.128906 " clip-rule="nonzero"/></clipPath><clipPath id="1d529bb834"><path d="M 2 118 L 374 118 L 374 252 L 2 252 Z M 2 118 " clip-rule="nonzero"/></clipPath><clipPath id="deb15f42fa"><path d="M -83.050781 99.128906 L 315.84375 -43.863281 L 445.171875 316.90625 L 46.277344 459.898438 Z M -83.050781 99.128906 " clip-rule="nonzero"/></clipPath><clipPath id="32ee1b61fc"><path d="M -83.050781 99.128906 L 315.84375 -43.863281 L 445.171875 316.90625 L 46.277344 459.898438 Z M -83.050781 99.128906 " clip-rule="nonzero"/></clipPath><clipPath id="03f2a86a03"><path d="M 2 15 L 374 15 L 374 148 L 2 148 Z M 2 15 " clip-rule="nonzero"/></clipPath><clipPath id="29a8c0298c"><path d="M -83.050781 99.128906 L 315.84375 -43.863281 L 445.171875 316.90625 L 46.277344 459.898438 Z M -83.050781 99.128906 " clip-rule="nonzero"/></clipPath><clipPath id="aa9a164d86"><path d="M -83.050781 99.128906 L 315.84375 -43.863281 L 445.171875 316.90625 L 46.277344 459.898438 Z M -83.050781 99.128906 " clip-rule="nonzero"/></clipPath><clipPath id="d23684f607"><path d="M 75 39 L 297 39 L 297 293 L 75 293 Z M 75 39 " clip-rule="nonzero"/></clipPath><clipPath id="4af4b47491"><path d="M -83.050781 99.128906 L 315.84375 -43.863281 L 445.171875 316.90625 L 46.277344 459.898438 Z M -83.050781 99.128906 " clip-rule="nonzero"/></clipPath><clipPath id="2b3cc11713"><path d="M -83.050781 99.128906 L 315.84375 -43.863281 L 445.171875 316.90625 L 46.277344 459.898438 Z M -83.050781 99.128906 " clip-rule="nonzero"/></clipPath><clipPath id="faa021f6dd"><path d="M 2 147 L 374 147 L 374 280 L 2 280 Z M 2 147 " clip-rule="nonzero"/></clipPath><clipPath id="9c94de6cb9"><path d="M -83.050781 99.128906 L 315.84375 -43.863281 L 445.171875 316.90625 L 46.277344 459.898438 Z M -83.050781 99.128906 " clip-rule="nonzero"/></clipPath><clipPath id="624831d23a"><path d="M -83.050781 99.128906 L 315.84375 -43.863281 L 445.171875 316.90625 L 46.277344 459.898438 Z M -83.050781 99.128906 " clip-rule="nonzero"/></clipPath><clipPath id="97d8ebdddf"><path d="M 2 208 L 374 208 L 374 347 L 2 347 Z M 2 208 " clip-rule="nonzero"/></clipPath><clipPath id="a0bcb0bc89"><path d="M -83.050781 99.128906 L 315.84375 -43.863281 L 445.171875 316.90625 L 46.277344 459.898438 Z M -83.050781 99.128906 " clip-rule="nonzero"/></clipPath><clipPath id="2114965ed8"><path d="M -83.050781 99.128906 L 315.84375 -43.863281 L 445.171875 316.90625 L 46.277344 459.898438 Z M -83.050781 99.128906 " clip-rule="nonzero"/></clipPath><clipPath id="3728facaeb"><path d="M 2 236 L 374 236 L 374 347 L 2 347 Z M 2 236 " clip-rule="nonzero"/></clipPath><clipPath id="face2542ce"><path d="M -83.050781 99.128906 L 315.84375 -43.863281 L 445.171875 316.90625 L 46.277344 459.898438 Z M -83.050781 99.128906 " clip-rule="nonzero"/></clipPath><clipPath id="0a21dc91b9"><path d="M -83.050781 99.128906 L 315.84375 -43.863281 L 445.171875 316.90625 L 46.277344 459.898438 Z M -83.050781 99.128906 " clip-rule="nonzero"/></clipPath><clipPath id="1772474db0"><path d="M 242 147 L 374 147 L 374 319 L 242 319 Z M 242 147 " clip-rule="nonzero"/></clipPath><clipPath id="7bd3842e15"><path d="M -83.050781 99.128906 L 315.84375 -43.863281 L 445.171875 316.90625 L 46.277344 459.898438 Z M -83.050781 99.128906 " clip-rule="nonzero"/></clipPath><clipPath id="46714fc576"><path d="M -83.050781 99.128906 L 315.84375 -43.863281 L 445.171875 316.90625 L 46.277344 459.898438 Z M -83.050781 99.128906 " clip-rule="nonzero"/></clipPath><clipPath id="fb82d0d802"><path d="M 2 144 L 134 144 L 134 320 L 2 320 Z M 2 144 " clip-rule="nonzero"/></clipPath><clipPath id="4cb9fb0cd5"><path d="M -83.050781 99.128906 L 315.84375 -43.863281 L 445.171875 316.90625 L 46.277344 459.898438 Z M -83.050781 99.128906 " clip-rule="nonzero"/></clipPath><clipPath id="975f5e25ce"><path d="M -83.050781 99.128906 L 315.84375 -43.863281 L 445.171875 316.90625 L 46.277344 459.898438 Z M -83.050781 99.128906 " clip-rule="nonzero"/></clipPath><clipPath id="78b80c63a8"><path d="M 130 75 L 248 75 L 248 198 L 130 198 Z M 130 75 " clip-rule="nonzero"/></clipPath><clipPath id="2589520783"><path d="M -83.050781 99.128906 L 315.84375 -43.863281 L 445.171875 316.90625 L 46.277344 459.898438 Z M -83.050781 99.128906 " clip-rule="nonzero"/></clipPath><clipPath id="0e2bed776f"><path d="M -83.050781 99.128906 L 315.84375 -43.863281 L 445.171875 316.90625 L 46.277344 459.898438 Z M -83.050781 99.128906 " clip-rule="nonzero"/></clipPath></defs><g clip-path="url(#ed7cfdcd44)"><g clip-path="url(#56fe646e28)"><g clip-path="url(#e289d71d0e)"><path fill="#010101" d="M 373.4375 118.777344 L 2.105469 119.746094 L 2.480469 148.15625 L 188.128906 279.195312 L 373.5 147.1875 L 373.4375 118.777344 " fill-opacity="1" fill-rule="nonzero"/></g></g></g><g clip-path="url(#1d529bb834)"><g clip-path="url(#deb15f42fa)"><g clip-path="url(#32ee1b61fc)"><path fill="#010101" d="M 373.4375 118.777344 L 2.105469 119.746094 L 2.480469 148.15625 L 188.066406 251.410156 L 373.5 147.1875 L 373.4375 118.777344 " fill-opacity="1" fill-rule="nonzero"/></g></g></g><g clip-path="url(#03f2a86a03)"><g clip-path="url(#29a8c0298c)"><g clip-path="url(#aa9a164d86)"><path fill="#ff4800" d="M 373.5 146.667969 L 2.167969 147.632812 L 2.414062 119.222656 L 187.546875 15.007812 L 373.4375 118.261719 L 373.5 146.667969 " fill-opacity="1" fill-rule="nonzero"/></g></g></g><g clip-path="url(#d23684f607)"><g clip-path="url(#4af4b47491)"><g clip-path="url(#2b3cc11713)"><path fill="#00d8ff" d="M 289.859375 289.769531 L 296.070312 45.257812 L 82.160156 39.917969 L 75.90625 292.246094 L 289.859375 289.769531 " fill-opacity="1" fill-rule="nonzero"/></g></g></g><g clip-path="url(#faa021f6dd)"><g clip-path="url(#9c94de6cb9)"><g clip-path="url(#624831d23a)"><path fill="#010101" d="M 188.066406 251.410156 L 2.480469 148.15625 L 188.128906 279.195312 L 373.5 147.1875 L 188.066406 251.410156 " fill-opacity="1" fill-rule="nonzero"/></g></g></g><g clip-path="url(#97d8ebdddf)"><g clip-path="url(#a0bcb0bc89)"><g clip-path="url(#2114965ed8)"><path fill="#010101" d="M 187.972656 208.175781 L 2.546875 319.636719 L 2.558594 324.253906 C 2.582031 336.804688 12.789062 346.953125 25.355469 346.921875 L 351.207031 346.074219 C 363.761719 346.039062 373.914062 335.835938 373.890625 323.285156 L 373.878906 318.667969 L 187.972656 208.175781 " fill-opacity="1" fill-rule="nonzero"/></g></g></g><g clip-path="url(#3728facaeb)"><g clip-path="url(#face2542ce)"><g clip-path="url(#0a21dc91b9)"><path fill="#ff4800" d="M 188.035156 236.433594 L 2.546875 319.636719 L 2.558594 324.253906 C 2.582031 336.804688 12.789062 346.953125 25.355469 346.921875 L 351.207031 346.074219 C 363.761719 346.039062 373.914062 335.835938 373.890625 323.285156 L 373.878906 318.667969 L 188.035156 236.433594 " fill-opacity="1" fill-rule="nonzero"/></g></g></g><g clip-path="url(#1772474db0)"><g clip-path="url(#7bd3842e15)"><g clip-path="url(#46714fc576)"><path fill="#ff4800" d="M 373.878906 318.667969 L 373.5 147.1875 L 242.417969 240.535156 Z M 373.878906 318.667969 " fill-opacity="1" fill-rule="nonzero"/></g></g></g><g clip-path="url(#fb82d0d802)"><g clip-path="url(#4cb9fb0cd5)"><g clip-path="url(#975f5e25ce)"><path fill="#ff4800" d="M 2.480469 148.15625 L 2.433594 144.800781 C 2.273438 145.894531 2.167969 147.011719 2.167969 148.15625 L 2.546875 319.636719 L 133.71875 240.792969 L 2.480469 148.15625 " fill-opacity="1" fill-rule="nonzero"/></g></g></g><g clip-path="url(#78b80c63a8)"><g clip-path="url(#2589520783)"><g clip-path="url(#0e2bed776f)"><path fill="#010101" d="M 198.921875 119.304688 L 199.140625 123.09375 L 199.703125 132.574219 L 200.894531 152.828125 C 199.148438 154.75 197.398438 156.234375 195.648438 157.292969 C 193.890625 158.347656 191.8125 158.949219 189.402344 159.089844 C 184.816406 159.363281 181.421875 157.800781 179.222656 154.394531 C 177.019531 150.992188 175.707031 145.632812 175.273438 138.3125 C 175.1875 136.8125 175.167969 135.390625 175.207031 134.023438 C 175.308594 130.324219 175.878906 127.128906 176.921875 124.414062 C 177.226562 123.609375 177.554688 122.832031 177.945312 122.113281 C 178.257812 121.527344 178.609375 120.992188 178.976562 120.484375 C 179.515625 119.730469 180.113281 119.058594 180.761719 118.480469 C 182.683594 116.777344 185.054688 115.835938 187.894531 115.664062 C 189.925781 115.546875 191.773438 115.65625 193.417969 116 C 194.832031 116.296875 196.355469 116.789062 197.988281 117.457031 C 198.269531 117.574219 198.542969 117.679688 198.832031 117.808594 Z M 244.820312 116.582031 C 244.632812 115.953125 244.429688 115.335938 244.226562 114.71875 C 243.816406 113.449219 243.371094 112.207031 242.882812 110.992188 C 242.464844 109.949219 242.015625 108.921875 241.539062 107.921875 C 238.171875 100.839844 233.738281 94.867188 228.242188 89.984375 C 222.835938 85.09375 216.511719 81.429688 209.28125 78.972656 C 202.035156 76.523438 194.339844 75.535156 186.1875 76.019531 C 177.980469 76.507812 170.320312 78.515625 163.203125 82.054688 C 156.085938 85.59375 150.0625 90.203125 145.140625 95.886719 C 140.089844 101.667969 136.242188 108.328125 133.617188 115.851562 C 133.425781 116.394531 133.265625 116.953125 133.09375 117.503906 C 132.6875 118.777344 132.316406 120.066406 132.003906 121.371094 C 131.855469 122.007812 131.722656 122.648438 131.589844 123.296875 C 131.332031 124.566406 131.101562 125.84375 130.917969 127.144531 C 130.492188 130.242188 130.289062 133.421875 130.324219 136.683594 C 130.34375 137.804688 130.378906 138.929688 130.445312 140.0625 C 130.96875 149.003906 132.925781 157.164062 136.316406 164.542969 C 139.703125 171.917969 144.171875 178.113281 149.726562 183.132812 C 155.328125 188.191406 161.816406 191.964844 169.199219 194.460938 C 176.578125 196.953125 184.511719 197.945312 192.992188 197.441406 C 198.046875 197.144531 202.6875 196.609375 206.917969 195.847656 C 211.15625 195.085938 215.402344 194.089844 219.652344 192.859375 L 218.851562 179.382812 C 215.035156 180.769531 210.632812 181.96875 205.652344 182.984375 C 200.667969 184 196.210938 184.628906 192.277344 184.863281 C 186.355469 185.214844 180.660156 184.507812 175.214844 182.734375 C 169.761719 180.964844 164.910156 178.207031 160.644531 174.460938 C 156.378906 170.671875 152.847656 165.816406 150.058594 159.886719 C 147.273438 153.964844 145.644531 147.066406 145.183594 139.1875 C 145.113281 138.046875 145.09375 136.929688 145.089844 135.808594 C 145.089844 132.515625 145.359375 129.324219 145.929688 126.253906 C 146.167969 124.941406 146.476562 123.664062 146.824219 122.394531 C 147.003906 121.746094 147.183594 121.097656 147.390625 120.457031 C 147.542969 119.976562 147.699219 119.488281 147.863281 119.019531 C 148.160156 118.179688 148.476562 117.371094 148.804688 116.570312 C 150.914062 111.410156 153.648438 106.972656 157.007812 103.273438 C 160.804688 99.097656 165.285156 95.691406 170.453125 93.058594 C 175.617188 90.429688 181.144531 88.9375 187.023438 88.59375 C 193.183594 88.226562 198.96875 88.859375 204.359375 90.488281 C 209.753906 92.125 214.539062 94.8125 218.714844 98.566406 C 222.574219 102.042969 225.730469 106.484375 228.207031 111.863281 C 228.335938 112.152344 228.476562 112.433594 228.609375 112.730469 C 229.003906 113.648438 229.371094 114.601562 229.722656 115.578125 C 229.941406 116.1875 230.15625 116.804688 230.359375 117.441406 C 230.742188 118.652344 231.074219 119.902344 231.382812 121.183594 C 232.082031 124.128906 232.589844 127.265625 232.886719 130.601562 C 232.964844 131.4375 233.03125 132.28125 233.082031 133.140625 C 233.316406 137.082031 233.152344 141.210938 232.597656 145.542969 C 232.039062 149.882812 231.035156 153.925781 229.582031 157.683594 L 217.761719 158.386719 L 216.183594 131.597656 L 215.625 122.117188 L 215.402344 118.328125 L 215.289062 116.429688 L 215.066406 112.640625 L 214.421875 101.679688 L 198.289062 102.636719 L 198.542969 106.945312 C 197.167969 105.773438 195.273438 104.6875 192.839844 103.691406 C 190.40625 102.699219 187.660156 102.292969 184.59375 102.476562 C 181.035156 102.6875 177.492188 103.734375 173.976562 105.613281 C 170.453125 107.496094 167.511719 109.992188 165.136719 113.109375 C 164.492188 113.945312 163.894531 114.808594 163.328125 115.707031 C 162.550781 116.949219 161.871094 118.273438 161.242188 119.636719 C 160.945312 120.277344 160.640625 120.921875 160.371094 121.589844 C 159.992188 122.5625 159.644531 123.550781 159.320312 124.578125 C 159.234375 124.867188 159.15625 125.171875 159.078125 125.472656 C 158.28125 128.382812 157.832031 131.578125 157.753906 135.058594 C 157.714844 136.507812 157.738281 138.003906 157.832031 139.554688 C 158.453125 150.117188 161.292969 158.375 166.34375 164.328125 C 171.394531 170.28125 177.691406 173.035156 185.242188 172.585938 C 189.882812 172.3125 193.398438 171.582031 195.792969 170.394531 C 198.1875 169.207031 200.65625 167.652344 203.191406 165.734375 L 204.625 171.089844 L 239.804688 169.003906 C 242.332031 164.433594 244.316406 158.753906 245.773438 151.949219 C 247.238281 145.144531 247.777344 138.5 247.398438 132.011719 C 247.351562 131.25 247.273438 130.507812 247.210938 129.753906 C 246.921875 126.480469 246.441406 123.339844 245.769531 120.332031 C 245.480469 119.058594 245.171875 117.808594 244.820312 116.582031 " fill-opacity="1" fill-rule="nonzero"/></g></g></g></svg>