<svg xmlns="http://www.w3.org/2000/svg" xmlns:xlink="http://www.w3.org/1999/xlink" width="500" zoomAndPan="magnify" viewBox="0 0 375 374.999991" height="500" preserveAspectRatio="xMidYMid meet" version="1.0"><defs><clipPath id="42e03b3cf5"><path d="M 5.113281 0 L 369.613281 0 L 369.613281 375 L 5.113281 375 Z M 5.113281 0 " clip-rule="nonzero"/></clipPath></defs><g clip-path="url(#42e03b3cf5)"><path fill="#ff4800" d="M 224.253906 133.15625 C 219.929688 132.066406 214.027344 130.996094 207.554688 130.996094 C 172.027344 130.996094 144.03125 166.011719 144.03125 207.511719 C 144.03125 227.972656 153.191406 240.914062 170.949219 240.914062 C 190.878906 240.914062 211.875 215.585938 216.683594 184.347656 Z M 272.167969 355.683594 C 239.859375 370.214844 211.875 375.070312 173.113281 375.070312 C 83.710938 375.070312 5.121094 310.941406 5.121094 205.351562 C 5.121094 95.445312 85.347656 0.0898438 206.484375 0.0898438 C 301.777344 0.0898438 369.621094 65.261719 369.621094 155.796875 C 369.621094 234.972656 325.460938 284.546875 267.328125 284.546875 C 242.003906 284.546875 223.710938 271.078125 221.023438 243.066406 L 219.929688 243.066406 C 202.707031 270.011719 179.027344 284.546875 149.964844 284.546875 C 115.488281 284.546875 89.664062 258.148438 89.664062 213.96875 C 89.664062 147.703125 138.644531 88.441406 216.167969 88.441406 C 239.859375 88.441406 266.777344 94.359375 280.234375 101.367188 L 264.09375 201.59375 C 258.695312 233.371094 262.472656 247.914062 277.535156 248.460938 C 300.683594 249.523438 329.761719 219.902344 329.761719 157.40625 C 329.761719 86.828125 284.554688 32.953125 201.09375 32.953125 C 118.1875 32.953125 46.585938 97.050781 46.585938 200.511719 C 46.585938 291.015625 103.652344 341.65625 183.859375 341.65625 C 211.324219 341.65625 240.953125 335.726562 262.472656 324.960938 L 272.167969 355.683594 " fill-opacity="1" fill-rule="nonzero"/></g></svg>