<svg xmlns="http://www.w3.org/2000/svg" xmlns:xlink="http://www.w3.org/1999/xlink" width="500" zoomAndPan="magnify" viewBox="0 0 375 374.999991" height="500" preserveAspectRatio="xMidYMid meet" version="1.0"><path fill="#ff4800" d="M 189.105469 0.984375 C 95.210938 0.0273438 18.3125 75.425781 17.347656 169.402344 C 16.390625 263.371094 91.734375 340.328125 185.632812 341.28125 C 279.539062 342.246094 356.425781 266.847656 357.390625 172.878906 C 358.351562 78.898438 283.011719 1.9375 189.105469 0.972656 " fill-opacity="1" fill-rule="nonzero"/><path fill="#00d8ff" d="M 284.820312 342.773438 C 276.34375 348.96875 267.261719 354.375 257.679688 358.882812 C 256.230469 359.578125 254.757812 360.238281 253.285156 360.878906 C 232.476562 369.957031 209.460938 374.898438 185.296875 374.648438 C 161.121094 374.398438 138.222656 368.992188 117.597656 359.492188 C 116.136719 358.820312 114.675781 358.125 113.246094 357.410156 C 103.753906 352.699219 94.777344 347.105469 86.441406 340.746094 C 88.25 307.863281 106.015625 279.3125 132.042969 262.605469 C 147.773438 252.507812 166.523438 246.746094 186.59375 246.9375 C 189.660156 246.972656 192.691406 247.144531 195.679688 247.449219 C 212.285156 249.117188 227.667969 254.890625 240.824219 263.722656 C 252.644531 271.652344 262.660156 282.066406 270.140625 294.191406 C 278.921875 308.414062 284.203125 325.015625 284.820312 342.773438 " fill-opacity="1" fill-rule="nonzero"/><path fill="#6f3a27" d="M 240.8125 263.722656 C 239.1875 275.175781 234.023438 285.5 226.457031 293.519531 C 216.324219 304.289062 201.902344 310.949219 185.945312 310.789062 C 160.382812 310.527344 139.089844 292.8125 133.234375 269.0625 C 132.714844 266.960938 132.3125 264.804688 132.042969 262.605469 C 147.773438 252.507812 166.511719 246.746094 186.59375 246.949219 C 189.660156 246.984375 192.691406 247.144531 195.679688 247.449219 C 196.199219 247.503906 196.71875 247.558594 197.226562 247.621094 C 197.550781 247.65625 197.863281 247.6875 198.179688 247.742188 C 198.535156 247.773438 198.894531 247.828125 199.238281 247.882812 C 199.457031 247.902344 199.683594 247.9375 199.898438 247.96875 C 200.214844 248.011719 200.539062 248.066406 200.863281 248.109375 C 201.113281 248.152344 201.363281 248.195312 201.621094 248.230469 C 201.839844 248.261719 202.054688 248.292969 202.269531 248.347656 C 202.640625 248.402344 202.996094 248.46875 203.363281 248.519531 C 204.933594 248.8125 206.503906 249.140625 208.050781 249.496094 C 208.398438 249.570312 208.746094 249.660156 209.09375 249.734375 C 209.285156 249.789062 209.480469 249.832031 209.675781 249.898438 C 210.042969 249.984375 210.421875 250.070312 210.78125 250.179688 C 210.84375 250.179688 210.898438 250.199219 210.941406 250.210938 C 211.410156 250.332031 211.875 250.449219 212.328125 250.589844 C 212.828125 250.71875 213.304688 250.863281 213.78125 251.003906 C 214.332031 251.164062 214.871094 251.328125 215.425781 251.5 C 215.847656 251.628906 216.269531 251.773438 216.691406 251.914062 C 216.960938 252 217.234375 252.097656 217.492188 252.183594 C 217.9375 252.335938 218.378906 252.488281 218.8125 252.636719 C 219.355469 252.832031 219.886719 253.019531 220.40625 253.222656 C 220.449219 253.246094 220.480469 253.257812 220.511719 253.265625 C 221.066406 253.460938 221.605469 253.679688 222.148438 253.882812 C 222.546875 254.058594 222.949219 254.210938 223.359375 254.382812 C 224.433594 254.828125 225.472656 255.269531 226.511719 255.738281 C 226.964844 255.953125 227.421875 256.160156 227.863281 256.375 C 228.277344 256.5625 228.6875 256.753906 229.097656 256.960938 C 229.464844 257.144531 229.835938 257.320312 230.203125 257.515625 C 230.550781 257.675781 230.886719 257.859375 231.21875 258.035156 C 231.4375 258.140625 231.652344 258.25 231.871094 258.371094 C 232.769531 258.835938 233.644531 259.324219 234.5 259.8125 C 234.816406 259.984375 235.140625 260.179688 235.441406 260.351562 C 235.636719 260.472656 235.832031 260.582031 236.027344 260.6875 L 236.761719 261.132812 C 237.011719 261.285156 237.261719 261.445312 237.511719 261.597656 C 237.664062 261.695312 237.824219 261.792969 237.988281 261.890625 C 238.453125 262.171875 238.90625 262.453125 239.351562 262.757812 C 239.847656 263.070312 240.335938 263.398438 240.8125 263.722656 " fill-opacity="1" fill-rule="nonzero"/><path fill="#6f3a27" d="M 211.050781 219.9375 L 210.5625 267.535156 C 210.433594 279.574219 200.496094 289.335938 188.46875 289.214844 L 183.855469 289.164062 C 171.828125 289.042969 162.09375 279.085938 162.226562 267.046875 L 162.710938 219.453125 C 162.832031 207.414062 172.769531 197.675781 184.796875 197.804688 L 189.398438 197.847656 C 201.425781 197.964844 211.171875 207.914062 211.050781 219.9375 " fill-opacity="1" fill-rule="nonzero"/><path fill="#9e392b" d="M 211.050781 219.9375 L 210.792969 245.128906 C 203.558594 249.0625 195.917969 251.304688 188.175781 251.21875 C 179.050781 251.132812 170.367188 248.5 162.464844 243.992188 L 162.710938 219.453125 C 162.832031 207.414062 172.769531 197.671875 184.796875 197.804688 L 189.398438 197.847656 C 201.425781 197.964844 211.171875 207.914062 211.050781 219.9375 " fill-opacity="1" fill-rule="nonzero"/><path fill="#6f3a27" d="M 246 201.953125 C 246 201.953125 257.367188 198.203125 264.738281 185.65625 C 272.738281 172.015625 267.890625 163.414062 266.351562 161.550781 C 262.140625 156.449219 255.535156 159.632812 254.441406 161.421875 C 253.339844 163.21875 237.371094 191.550781 246 201.953125 " fill-opacity="1" fill-rule="nonzero"/><path fill="#9e392b" d="M 257.484375 165.949219 C 257.484375 165.949219 264.652344 166.945312 262.019531 177.035156 C 259.390625 187.121094 252.710938 191.054688 243.636719 196.136719 C 234.566406 201.207031 248.433594 167.910156 257.484375 165.949219 " fill-opacity="1" fill-rule="nonzero"/><path fill="#6f3a27" d="M 131.066406 200.773438 C 131.066406 200.773438 119.777344 196.796875 112.671875 184.097656 C 104.945312 170.292969 109.96875 161.800781 111.546875 159.96875 C 115.855469 154.953125 122.394531 158.269531 123.457031 160.089844 C 124.515625 161.898438 139.914062 190.554688 131.066406 200.773438 " fill-opacity="1" fill-rule="nonzero"/><path fill="#9e392b" d="M 120.328125 164.550781 C 120.328125 164.550781 113.140625 165.398438 115.5625 175.539062 C 117.976562 185.667969 124.582031 189.742188 133.546875 195.007812 C 142.519531 200.261719 129.324219 166.699219 120.328125 164.550781 " fill-opacity="1" fill-rule="nonzero"/><path fill="#351f16" d="M 121.453125 77.722656 C 121.941406 85.566406 120.707031 157.878906 120.707031 157.878906 L 257.550781 159.277344 C 257.550781 159.277344 265.421875 96.519531 258.363281 79.660156 C 251.304688 62.792969 244.625 78.980469 244.625 78.980469 C 244.625 78.980469 235.195312 64.15625 212.546875 73.769531 C 212.546875 73.769531 209.058594 64.339844 194.421875 67.265625 C 194.421875 67.265625 177.273438 50.117188 166.835938 64.09375 C 166.835938 64.09375 151.269531 52.011719 144.644531 64.949219 C 144.644531 64.949219 120.109375 56.574219 121.453125 77.722656 " fill-opacity="1" fill-rule="nonzero"/><path fill="#6f3a27" d="M 257.550781 159.277344 C 257.972656 117.746094 227.679688 83.769531 189.898438 83.390625 C 152.101562 83 121.128906 116.347656 120.707031 157.878906 C 120.285156 199.40625 150.46875 243.136719 188.25 243.515625 C 223.773438 243.882812 257.128906 200.457031 257.550781 159.277344 " fill-opacity="1" fill-rule="nonzero"/><path fill="#351f16" d="M 257.214844 95.902344 L 197.582031 75.242188 L 191.457031 75.1875 L 188.359375 75.144531 L 182.230469 75.089844 L 122.191406 94.515625 L 120.566406 157.878906 C 122.136719 143.792969 134.800781 107.105469 146.644531 113.183594 C 156.269531 118.125 179.492188 120.347656 187.882812 121.007812 L 187.882812 121.191406 C 187.882812 121.191406 188.445312 121.167969 189.429688 121.117188 C 190.417969 121.191406 190.980469 121.222656 190.980469 121.222656 L 190.992188 121.039062 C 199.390625 120.550781 222.65625 118.808594 232.367188 114.0625 C 244.34375 108.234375 256.261719 145.15625 257.550781 159.277344 L 257.214844 95.902344 " fill-opacity="1" fill-rule="nonzero"/></svg>