<svg xmlns="http://www.w3.org/2000/svg" xmlns:xlink="http://www.w3.org/1999/xlink" width="500" zoomAndPan="magnify" viewBox="0 0 375 374.999991" height="500" preserveAspectRatio="xMidYMid meet" version="1.0"><defs><clipPath id="id1"><path d="M 32 28.691406 L 37 28.691406 L 37 69 L 32 69 Z M 32 28.691406 " clip-rule="nonzero"/></clipPath><clipPath id="id2"><path d="M 324 314 L 330 314 L 330 345.941406 L 324 345.941406 Z M 324 314 " clip-rule="nonzero"/></clipPath><clipPath id="id3"><path d="M 1.265625 176 L 127 176 L 127 333 L 1.265625 333 Z M 1.265625 176 " clip-rule="nonzero"/></clipPath></defs><path fill="rgb(2.749634%, 3.919983%, 5.488586%)" d="M 342.847656 113.753906 C 342.847656 104.382812 335.242188 96.792969 325.851562 96.792969 L 50.3125 96.792969 C 40.921875 96.792969 33.308594 104.382812 33.308594 113.753906 L 33.308594 169.152344 C 33.308594 169.441406 33.339844 169.71875 33.355469 170 C 33.332031 170.554688 33.308594 171.097656 33.308594 171.667969 L 33.308594 179.371094 C 33.308594 209.667969 57.410156 232.984375 87.144531 232.984375 L 289.019531 232.984375 C 318.753906 232.984375 342.847656 209.667969 342.847656 179.371094 L 342.847656 171.667969 C 342.847656 171.097656 342.824219 170.554688 342.808594 170 C 342.824219 169.71875 342.847656 169.441406 342.847656 169.152344 L 342.847656 113.753906 " fill-opacity="1" fill-rule="nonzero"/><path fill="rgb(90.589905%, 29.798889%, 23.529053%)" d="M 50.3125 99.03125 C 42.175781 99.03125 35.566406 105.632812 35.566406 113.753906 L 35.566406 169.152344 C 35.566406 169.300781 35.578125 169.441406 35.585938 169.59375 L 35.613281 169.972656 L 35.589844 170.453125 C 35.582031 170.859375 35.566406 171.25 35.566406 171.667969 L 35.566406 179.371094 C 35.566406 208.175781 58.222656 230.746094 87.144531 230.746094 L 289.019531 230.746094 C 317.941406 230.746094 340.605469 208.175781 340.605469 179.371094 L 340.605469 171.667969 C 340.605469 171.226562 340.578125 170.808594 340.566406 170.378906 L 340.554688 169.984375 L 340.578125 169.570312 C 340.59375 169.429688 340.605469 169.289062 340.605469 169.152344 L 340.605469 113.753906 C 340.605469 105.632812 333.988281 99.03125 325.851562 99.03125 Z M 289.019531 235.234375 L 87.144531 235.234375 C 55.6875 235.234375 31.054688 210.695312 31.054688 179.371094 L 31.054688 171.667969 C 31.054688 171.199219 31.070312 170.757812 31.085938 170.300781 L 31.097656 170.035156 L 31.085938 169.882812 C 31.070312 169.644531 31.054688 169.402344 31.054688 169.152344 L 31.054688 113.753906 C 31.054688 103.15625 39.691406 94.539062 50.3125 94.539062 L 325.851562 94.539062 C 336.472656 94.539062 345.105469 103.15625 345.105469 113.753906 L 345.105469 169.152344 C 345.105469 169.390625 345.089844 169.617188 345.078125 169.847656 L 345.066406 170.023438 L 345.078125 170.226562 C 345.089844 170.707031 345.105469 171.175781 345.105469 171.667969 L 345.105469 179.371094 C 345.105469 210.695312 320.476562 235.234375 289.019531 235.234375 " fill-opacity="1" fill-rule="nonzero"/><path fill="rgb(2.749634%, 3.919983%, 5.488586%)" d="M 342.847656 113.753906 C 342.847656 104.382812 335.242188 96.792969 325.851562 96.792969 L 50.3125 96.792969 C 40.921875 96.792969 33.308594 104.382812 33.308594 113.753906 L 33.308594 169.152344 C 33.308594 169.441406 33.339844 169.71875 33.355469 170 C 33.332031 170.554688 33.308594 171.097656 33.308594 171.667969 L 33.308594 179.371094 C 33.308594 209.667969 57.410156 232.984375 87.144531 232.984375 L 289.019531 232.984375 C 318.753906 232.984375 342.847656 209.667969 342.847656 179.371094 L 342.847656 171.667969 C 342.847656 171.097656 342.824219 170.554688 342.808594 170 C 342.824219 169.71875 342.847656 169.441406 342.847656 169.152344 L 342.847656 113.753906 " fill-opacity="1" fill-rule="nonzero"/><path fill="rgb(90.589905%, 29.798889%, 23.529053%)" d="M 50.3125 99.03125 C 42.175781 99.03125 35.566406 105.632812 35.566406 113.753906 L 35.566406 169.152344 C 35.566406 169.300781 35.578125 169.441406 35.585938 169.59375 L 35.613281 169.972656 L 35.589844 170.453125 C 35.582031 170.859375 35.566406 171.25 35.566406 171.667969 L 35.566406 179.371094 C 35.566406 208.175781 58.222656 230.746094 87.144531 230.746094 L 289.019531 230.746094 C 317.941406 230.746094 340.605469 208.175781 340.605469 179.371094 L 340.605469 171.667969 C 340.605469 171.226562 340.578125 170.808594 340.566406 170.378906 L 340.554688 169.984375 L 340.578125 169.570312 C 340.59375 169.429688 340.605469 169.289062 340.605469 169.152344 L 340.605469 113.753906 C 340.605469 105.632812 333.988281 99.03125 325.851562 99.03125 Z M 289.019531 235.234375 L 87.144531 235.234375 C 55.6875 235.234375 31.054688 210.695312 31.054688 179.371094 L 31.054688 171.667969 C 31.054688 171.199219 31.070312 170.757812 31.085938 170.300781 L 31.097656 170.035156 L 31.085938 169.882812 C 31.070312 169.644531 31.054688 169.402344 31.054688 169.152344 L 31.054688 113.753906 C 31.054688 103.15625 39.691406 94.539062 50.3125 94.539062 L 325.851562 94.539062 C 336.472656 94.539062 345.105469 103.15625 345.105469 113.753906 L 345.105469 169.152344 C 345.105469 169.390625 345.089844 169.617188 345.078125 169.847656 L 345.066406 170.023438 L 345.078125 170.226562 C 345.089844 170.707031 345.105469 171.175781 345.105469 171.667969 L 345.105469 179.371094 C 345.105469 210.695312 320.476562 235.234375 289.019531 235.234375 " fill-opacity="1" fill-rule="nonzero"/><path fill="rgb(2.749634%, 3.919983%, 5.488586%)" d="M 129.871094 96.792969 L 129.871094 89.453125 C 129.871094 81.992188 136.902344 75.929688 145.597656 75.929688 L 230.566406 75.929688 C 239.261719 75.929688 246.296875 81.992188 246.296875 89.453125 L 246.296875 96.792969 L 261.492188 96.792969 L 261.492188 81.230469 C 261.492188 70.300781 252.621094 61.433594 241.667969 61.433594 L 134.496094 61.433594 C 123.546875 61.433594 114.671875 70.300781 114.671875 81.230469 L 114.671875 96.792969 L 129.871094 96.792969 " fill-opacity="1" fill-rule="nonzero"/><path fill="rgb(90.589905%, 29.798889%, 23.529053%)" d="M 248.550781 94.539062 L 259.25 94.539062 L 259.25 81.230469 C 259.25 71.554688 251.351562 63.6875 241.667969 63.6875 L 134.496094 63.6875 C 124.8125 63.6875 116.929688 71.554688 116.929688 81.230469 L 116.929688 94.539062 L 127.613281 94.539062 L 127.613281 89.453125 C 127.613281 80.75 135.675781 73.679688 145.597656 73.679688 L 230.566406 73.679688 C 240.476562 73.679688 248.550781 80.75 248.550781 89.453125 Z M 263.75 99.03125 L 244.039062 99.03125 L 244.039062 89.453125 C 244.039062 83.230469 237.992188 78.183594 230.566406 78.183594 L 145.597656 78.183594 C 138.160156 78.183594 132.125 83.230469 132.125 89.453125 L 132.125 99.03125 L 112.417969 99.03125 L 112.417969 81.230469 C 112.417969 69.074219 122.316406 59.195312 134.496094 59.195312 L 241.667969 59.195312 C 253.847656 59.195312 263.75 69.074219 263.75 81.230469 L 263.75 99.03125 " fill-opacity="1" fill-rule="nonzero"/><path fill="rgb(2.749634%, 3.919983%, 5.488586%)" d="M 289.019531 232.984375 L 87.144531 232.984375 C 74.40625 232.984375 62.722656 228.707031 53.507812 221.433594 L 53.507812 289.542969 C 53.507812 298.917969 61.113281 306.507812 70.503906 306.507812 L 305.660156 306.507812 C 315.039062 306.507812 322.65625 298.917969 322.65625 289.542969 L 322.65625 221.433594 C 313.445312 228.707031 301.746094 232.984375 289.019531 232.984375 " fill-opacity="1" fill-rule="nonzero"/><path fill="rgb(90.589905%, 29.798889%, 23.529053%)" d="M 55.761719 225.863281 L 55.761719 289.542969 C 55.761719 297.664062 62.378906 304.269531 70.503906 304.269531 L 305.660156 304.269531 C 313.785156 304.269531 320.402344 297.664062 320.402344 289.542969 L 320.402344 225.863281 C 311.175781 232.011719 300.414062 235.234375 289.019531 235.234375 L 87.144531 235.234375 C 75.75 235.234375 64.992188 232.011719 55.761719 225.863281 Z M 305.660156 308.757812 L 70.503906 308.757812 C 59.894531 308.757812 51.25 300.144531 51.25 289.542969 L 51.25 216.792969 L 54.902344 219.675781 C 64.089844 226.910156 75.230469 230.746094 87.144531 230.746094 L 289.019531 230.746094 C 300.933594 230.746094 312.074219 226.910156 321.265625 219.675781 L 324.914062 216.792969 L 324.914062 289.542969 C 324.914062 300.144531 316.269531 308.757812 305.660156 308.757812 " fill-opacity="1" fill-rule="nonzero"/><path fill="rgb(2.749634%, 3.919983%, 5.488586%)" d="M 201.023438 244.824219 C 201.023438 251.363281 195.710938 256.675781 189.160156 256.675781 C 182.609375 256.675781 177.285156 251.363281 177.285156 244.824219 L 177.285156 221.15625 C 177.285156 214.617188 182.609375 209.300781 189.160156 209.300781 C 195.710938 209.300781 201.023438 214.617188 201.023438 221.15625 L 201.023438 244.824219 " fill-opacity="1" fill-rule="nonzero"/><path fill="rgb(90.589905%, 29.798889%, 23.529053%)" d="M 189.160156 211.554688 C 183.847656 211.554688 179.539062 215.855469 179.539062 221.15625 L 179.539062 244.824219 C 179.539062 250.113281 183.847656 254.425781 189.160156 254.425781 C 194.457031 254.425781 198.765625 250.113281 198.765625 244.824219 L 198.765625 221.15625 C 198.765625 215.855469 194.457031 211.554688 189.160156 211.554688 Z M 189.160156 258.917969 C 181.367188 258.917969 175.027344 252.589844 175.027344 244.824219 L 175.027344 221.15625 C 175.027344 213.375 181.367188 207.050781 189.160156 207.050781 C 196.941406 207.050781 203.277344 213.375 203.277344 221.15625 L 203.277344 244.824219 C 203.277344 252.589844 196.941406 258.917969 189.160156 258.917969 " fill-opacity="1" fill-rule="nonzero"/><g clip-path="url(#id1)"><path fill="rgb(90.589905%, 29.798889%, 23.529053%)" d="M 34.511719 68.734375 C 33.175781 68.734375 32.097656 67.660156 32.097656 66.316406 L 32.097656 31.339844 C 32.097656 30.007812 33.175781 28.929688 34.511719 28.929688 C 35.84375 28.929688 36.929688 30.007812 36.929688 31.339844 L 36.929688 66.316406 C 36.929688 67.660156 35.84375 68.734375 34.511719 68.734375 " fill-opacity="1" fill-rule="nonzero"/></g><path fill="rgb(90.589905%, 29.798889%, 23.529053%)" d="M 52.039062 51.246094 L 16.988281 51.246094 C 15.65625 51.246094 14.570312 50.164062 14.570312 48.832031 C 14.570312 47.5 15.65625 46.417969 16.988281 46.417969 L 52.039062 46.417969 C 53.378906 46.417969 54.457031 47.5 54.457031 48.832031 C 54.457031 50.164062 53.378906 51.246094 52.039062 51.246094 " fill-opacity="1" fill-rule="nonzero"/><path fill="rgb(90.589905%, 29.798889%, 23.529053%)" d="M 74.320312 76.96875 L 48.03125 76.96875 C 46.703125 76.96875 45.613281 75.894531 45.613281 74.550781 C 45.613281 73.222656 46.703125 72.136719 48.03125 72.136719 L 74.320312 72.136719 C 75.648438 72.136719 76.738281 73.222656 76.738281 74.550781 C 76.738281 75.894531 75.648438 76.96875 74.320312 76.96875 " fill-opacity="1" fill-rule="nonzero"/><path fill="rgb(90.589905%, 29.798889%, 23.529053%)" d="M 61.175781 90.085938 C 59.84375 90.085938 58.765625 89.011719 58.765625 87.671875 L 58.765625 61.433594 C 58.765625 60.105469 59.84375 59.03125 61.175781 59.03125 C 62.519531 59.03125 63.597656 60.105469 63.597656 61.433594 L 63.597656 87.671875 C 63.597656 89.011719 62.519531 90.085938 61.175781 90.085938 " fill-opacity="1" fill-rule="nonzero"/><path fill="rgb(90.589905%, 29.798889%, 23.529053%)" d="M 354 324.496094 C 352.65625 324.496094 351.582031 323.40625 351.582031 322.078125 L 351.582031 287.101562 C 351.582031 285.761719 352.65625 284.683594 354 284.683594 C 355.332031 284.683594 356.410156 285.761719 356.410156 287.101562 L 356.410156 322.078125 C 356.410156 323.40625 355.332031 324.496094 354 324.496094 " fill-opacity="1" fill-rule="nonzero"/><path fill="rgb(90.589905%, 29.798889%, 23.529053%)" d="M 371.515625 307 L 336.472656 307 C 335.128906 307 334.050781 305.925781 334.050781 304.585938 C 334.050781 303.253906 335.128906 302.167969 336.472656 302.167969 L 371.515625 302.167969 C 372.859375 302.167969 373.9375 303.253906 373.9375 304.585938 C 373.9375 305.925781 372.859375 307 371.515625 307 " fill-opacity="1" fill-rule="nonzero"/><path fill="rgb(90.589905%, 29.798889%, 23.529053%)" d="M 340.476562 332.730469 L 314.191406 332.730469 C 312.847656 332.730469 311.769531 331.644531 311.769531 330.316406 C 311.769531 328.984375 312.847656 327.898438 314.191406 327.898438 L 340.476562 327.898438 C 341.808594 327.898438 342.898438 328.984375 342.898438 330.316406 C 342.898438 331.644531 341.808594 332.730469 340.476562 332.730469 " fill-opacity="1" fill-rule="nonzero"/><g clip-path="url(#id2)"><path fill="rgb(90.589905%, 29.798889%, 23.529053%)" d="M 327.335938 345.835938 C 325.992188 345.835938 324.914062 344.761719 324.914062 343.433594 L 324.914062 317.195312 C 324.914062 315.867188 325.992188 314.78125 327.335938 314.78125 C 328.664062 314.78125 329.742188 315.867188 329.742188 317.195312 L 329.742188 343.433594 C 329.742188 344.761719 328.664062 345.835938 327.335938 345.835938 " fill-opacity="1" fill-rule="nonzero"/></g><path fill="rgb(90.589905%, 29.798889%, 23.529053%)" d="M 322.605469 113.71875 L 250.085938 113.71875 C 248.753906 113.71875 247.675781 112.640625 247.675781 111.300781 C 247.675781 109.972656 248.753906 108.898438 250.085938 108.898438 L 322.605469 108.898438 C 323.9375 108.898438 325.027344 109.972656 325.027344 111.300781 C 325.027344 112.640625 323.9375 113.71875 322.605469 113.71875 " fill-opacity="1" fill-rule="nonzero"/><path fill="rgb(90.589905%, 29.798889%, 23.529053%)" d="M 240.414062 113.71875 L 218.058594 113.71875 C 216.726562 113.71875 215.648438 112.640625 215.648438 111.300781 C 215.648438 109.972656 216.726562 108.898438 218.058594 108.898438 L 240.414062 108.898438 C 241.757812 108.898438 242.835938 109.972656 242.835938 111.300781 C 242.835938 112.640625 241.757812 113.71875 240.414062 113.71875 " fill-opacity="1" fill-rule="nonzero"/><path fill="rgb(2.749634%, 3.919983%, 5.488586%)" d="M 102.0625 330.316406 L 3.679688 313.957031 L 26.160156 179.21875 L 124.558594 195.578125 L 102.0625 330.316406 " fill-opacity="1" fill-rule="nonzero"/><g clip-path="url(#id3)"><path fill="rgb(90.589905%, 29.798889%, 23.529053%)" d="M 6.273438 312.109375 L 100.210938 327.722656 L 121.960938 197.425781 L 28.015625 181.8125 Z M 102.074219 332.566406 C 101.949219 332.566406 101.820312 332.554688 101.695312 332.527344 L 3.308594 316.171875 C 2.078125 315.96875 1.246094 314.816406 1.457031 313.578125 L 23.9375 178.855469 C 24.144531 177.625 25.296875 176.804688 26.53125 177.007812 L 124.925781 193.363281 C 125.511719 193.453125 126.042969 193.78125 126.382812 194.273438 C 126.738281 194.753906 126.878906 195.363281 126.777344 195.957031 L 104.292969 330.679688 C 104.101562 331.78125 103.152344 332.566406 102.074219 332.566406 " fill-opacity="1" fill-rule="nonzero"/></g><path fill="rgb(2.749634%, 3.919983%, 5.488586%)" d="M 37.597656 197.664062 L 107.742188 209.328125 " fill-opacity="1" fill-rule="nonzero"/><path fill="rgb(90.589905%, 29.798889%, 23.529053%)" d="M 107.753906 211.566406 C 107.625 211.566406 107.5 211.566406 107.375 211.542969 L 37.230469 199.878906 C 35.996094 199.675781 35.171875 198.511719 35.375 197.285156 C 35.578125 196.070312 36.734375 195.234375 37.96875 195.4375 L 108.121094 207.101562 C 109.351562 207.304688 110.175781 208.46875 109.972656 209.695312 C 109.78125 210.796875 108.832031 211.566406 107.753906 211.566406 " fill-opacity="1" fill-rule="nonzero"/><path fill="rgb(2.749634%, 3.919983%, 5.488586%)" d="M 34.28125 217.550781 L 104.421875 229.214844 " fill-opacity="1" fill-rule="nonzero"/><path fill="rgb(90.589905%, 29.798889%, 23.529053%)" d="M 104.433594 231.464844 C 104.304688 231.464844 104.179688 231.464844 104.050781 231.441406 L 33.90625 219.777344 C 32.679688 219.574219 31.847656 218.410156 32.054688 217.183594 C 32.257812 215.957031 33.417969 215.132812 34.652344 215.335938 L 104.800781 227 C 106.015625 227.203125 106.851562 228.367188 106.652344 229.59375 C 106.460938 230.695312 105.511719 231.464844 104.433594 231.464844 " fill-opacity="1" fill-rule="nonzero"/><path fill="rgb(2.749634%, 3.919983%, 5.488586%)" d="M 30.957031 237.449219 L 101.113281 249.113281 " fill-opacity="1" fill-rule="nonzero"/><path fill="rgb(90.589905%, 29.798889%, 23.529053%)" d="M 101.113281 251.363281 C 100.984375 251.363281 100.859375 251.351562 100.730469 251.339844 L 30.585938 239.675781 C 29.363281 239.460938 28.53125 238.308594 28.734375 237.082031 C 28.9375 235.855469 30.09375 235.019531 31.328125 235.234375 L 101.480469 246.898438 C 102.707031 247.101562 103.53125 248.253906 103.328125 249.480469 C 103.152344 250.582031 102.1875 251.363281 101.113281 251.363281 " fill-opacity="1" fill-rule="nonzero"/><path fill="rgb(2.749634%, 3.919983%, 5.488586%)" d="M 27.636719 257.347656 L 97.777344 269.011719 " fill-opacity="1" fill-rule="nonzero"/><path fill="rgb(90.589905%, 29.798889%, 23.529053%)" d="M 97.792969 271.261719 C 97.664062 271.261719 97.539062 271.25 97.421875 271.226562 L 27.265625 259.5625 C 26.042969 259.359375 25.210938 258.207031 25.414062 256.980469 C 25.617188 255.753906 26.773438 254.917969 28.007812 255.132812 L 98.160156 266.796875 C 99.386719 267 100.210938 268.152344 100.007812 269.378906 C 99.820312 270.480469 98.867188 271.261719 97.792969 271.261719 " fill-opacity="1" fill-rule="nonzero"/><path fill="rgb(2.749634%, 3.919983%, 5.488586%)" d="M 24.320312 277.246094 L 94.457031 288.910156 " fill-opacity="1" fill-rule="nonzero"/><path fill="rgb(90.589905%, 29.798889%, 23.529053%)" d="M 94.46875 291.164062 C 94.34375 291.164062 94.21875 291.148438 94.089844 291.125 L 23.949219 279.460938 C 22.71875 279.257812 21.886719 278.09375 22.09375 276.867188 C 22.296875 275.652344 23.457031 274.816406 24.691406 275.019531 L 94.839844 286.683594 C 96.066406 286.886719 96.890625 288.050781 96.6875 289.277344 C 96.511719 290.378906 95.546875 291.164062 94.46875 291.164062 " fill-opacity="1" fill-rule="nonzero"/><path fill="rgb(2.749634%, 3.919983%, 5.488586%)" d="M 20.996094 297.132812 L 91.148438 308.808594 " fill-opacity="1" fill-rule="nonzero"/><path fill="rgb(90.589905%, 29.798889%, 23.529053%)" d="M 91.148438 311.046875 C 91.023438 311.046875 90.898438 311.046875 90.769531 311.023438 L 20.625 299.359375 C 19.398438 299.15625 18.570312 297.992188 18.773438 296.777344 C 18.976562 295.550781 20.136719 294.71875 21.367188 294.917969 L 91.519531 306.582031 C 92.746094 306.785156 93.570312 307.949219 93.367188 309.175781 C 93.191406 310.277344 92.226562 311.046875 91.148438 311.046875 " fill-opacity="1" fill-rule="nonzero"/></svg>