<svg xmlns="http://www.w3.org/2000/svg" xmlns:xlink="http://www.w3.org/1999/xlink" width="500" zoomAndPan="magnify" viewBox="0 0 375 374.999991" height="500" preserveAspectRatio="xMidYMid meet" version="1.0"><defs><clipPath id="cd8985cc11"><path d="M 122.855469 208.511719 L 251.855469 208.511719 L 251.855469 375 L 122.855469 375 Z M 122.855469 208.511719 " clip-rule="nonzero"/></clipPath><clipPath id="ab4f56149c"><path d="M 224 208 L 367.78125 208 L 367.78125 375 L 224 375 Z M 224 208 " clip-rule="nonzero"/></clipPath><clipPath id="2c33933da7"><path d="M 7.03125 208 L 151 208 L 151 375 L 7.03125 375 Z M 7.03125 208 " clip-rule="nonzero"/></clipPath><clipPath id="8a9700f164"><path d="M 156.953125 226 L 217.859375 226 L 217.859375 375 L 156.953125 375 Z M 156.953125 226 " clip-rule="nonzero"/></clipPath></defs><g clip-path="url(#cd8985cc11)"><path fill="#010101" d="M 122.855469 208.511719 L 251.855469 208.511719 L 251.855469 375.011719 L 122.855469 375.011719 L 122.855469 208.511719 " fill-opacity="1" fill-rule="nonzero"/></g><path fill="#ff4800" d="M 126.132812 143.171875 C 123.222656 141.324219 117.460938 143.136719 114.109375 141.105469 C 111.492188 139.511719 109.847656 136.785156 108.457031 134.054688 C 104.046875 125.359375 101.429688 115.761719 100.824219 106.039062 C 100.273438 97.453125 104.300781 93.679688 112.609375 93.167969 C 112.296875 93.1875 112.410156 66.507812 112.535156 64.070312 C 113.011719 55.101562 113.871094 45.652344 117.074219 37.175781 C 122.035156 24.082031 133.035156 16.738281 146.46875 14.210938 C 155.378906 12.546875 164.65625 13.515625 172.65625 8.40625 C 178.894531 4.398438 182.960938 1.359375 190.664062 1.011719 C 208.433594 0.222656 225.070312 4.726562 239.4375 15.621094 C 264.601562 34.703125 260.425781 65.519531 259.660156 93.480469 C 263.484375 92.085938 268.078125 93.113281 270.933594 96.003906 C 275.269531 100.34375 273.933594 107.25 273.53125 112.722656 C 272.964844 120.304688 271.554688 127.644531 268.773438 134.734375 C 267.730469 137.40625 266.394531 140.152344 263.960938 141.652344 C 260.480469 143.796875 253.914062 140.648438 252.613281 144.546875 C 243.132812 172.890625 216.796875 209.128906 182.941406 205.503906 C 168.628906 203.964844 157.757812 195.210938 148.460938 184.886719 C 138.433594 173.769531 131.421875 159.984375 127.746094 145.5 C 127.46875 144.402344 126.902344 143.667969 126.132812 143.171875 " fill-opacity="1" fill-rule="nonzero"/><g clip-path="url(#ab4f56149c)"><path fill="#ff4800" d="M 224.539062 375.277344 C 233.453125 319.339844 242.308594 263.546875 251.113281 208.285156 C 265.386719 214.546875 348.859375 242.671875 353.339844 245.125 C 364.925781 251.5 368.734375 261.460938 367.578125 274.679688 C 365.566406 297.917969 363.351562 364.769531 363.351562 375.277344 C 316.648438 375.277344 270.878906 375.277344 224.539062 375.277344 " fill-opacity="1" fill-rule="nonzero"/></g><g clip-path="url(#2c33933da7)"><path fill="#ff4800" d="M 150.273438 375.277344 C 141.359375 319.339844 132.503906 263.546875 123.699219 208.285156 C 109.425781 214.546875 25.953125 242.671875 21.472656 245.125 C 9.886719 251.5 6.078125 261.460938 7.234375 274.679688 C 9.246094 297.917969 11.460938 364.769531 11.460938 375.277344 C 58.164062 375.277344 103.933594 375.277344 150.273438 375.277344 " fill-opacity="1" fill-rule="nonzero"/></g><g clip-path="url(#8a9700f164)"><path fill="#00d8ff" d="M 211.507812 244.285156 C 219.304688 241.792969 220.203125 229.949219 212.441406 226.796875 C 210.832031 226.15625 208.160156 226.578125 206.476562 226.558594 C 193.28125 226.320312 180.050781 226.304688 166.855469 226.578125 C 164.585938 226.632812 162.152344 226.742188 160.265625 228.023438 C 158.746094 229.070312 157.777344 230.769531 157.300781 232.546875 C 156.054688 237.253906 158.472656 242.765625 163.25 244.285156 C 169.472656 246.28125 173.664062 246.261719 173.1875 254.265625 C 172.855469 260.066406 157.742188 375.277344 157.742188 375.277344 C 167.476562 375.277344 207.28125 375.277344 217.015625 375.277344 C 217.015625 375.277344 201.917969 260.066406 201.570312 254.265625 C 201.09375 246.261719 205.304688 246.28125 211.507812 244.285156 " fill-opacity="1" fill-rule="nonzero"/></g></svg>