<svg xmlns="http://www.w3.org/2000/svg" xmlns:xlink="http://www.w3.org/1999/xlink" width="500" zoomAndPan="magnify" viewBox="0 0 375 374.999991" height="500" preserveAspectRatio="xMidYMid meet" version="1.0"><defs><clipPath id="id1"><path d="M 0.00390625 63.742188 L 375 63.742188 L 375 313.488281 L 0.00390625 313.488281 Z M 0.00390625 63.742188 " clip-rule="nonzero"/></clipPath><clipPath id="id2"><path d="M 19.554688 63.742188 L 355.5 63.742188 L 355.5 313.488281 L 19.554688 313.488281 Z M 19.554688 63.742188 " clip-rule="nonzero"/></clipPath><clipPath id="id3"><path d="M 30.082031 63.742188 L 344.785156 63.742188 L 344.785156 313.488281 L 30.082031 313.488281 Z M 30.082031 63.742188 " clip-rule="nonzero"/></clipPath><clipPath id="id4"><path d="M 179.726562 265.574219 L 194.953125 265.574219 L 194.953125 313.488281 L 179.726562 313.488281 Z M 179.726562 265.574219 " clip-rule="nonzero"/></clipPath><clipPath id="id5"><path d="M 185 63.742188 L 189 63.742188 L 189 65 L 185 65 Z M 185 63.742188 " clip-rule="nonzero"/></clipPath></defs><g clip-path="url(#id1)"><path fill="rgb(14.898682%, 14.898682%, 14.898682%)" d="M 375.003906 313.488281 L 227.429688 63.746094 L 146.148438 63.746094 L 0.00390625 313.488281 L 375.003906 313.488281 " fill-opacity="1" fill-rule="nonzero"/></g><g clip-path="url(#id2)"><path fill="rgb(90.589905%, 29.798889%, 23.529053%)" d="M 355.320312 313.488281 L 223.167969 63.742188 L 150.402344 63.742188 L 19.640625 313.488281 L 355.320312 313.488281 " fill-opacity="1" fill-rule="nonzero"/></g><g clip-path="url(#id3)"><path fill="rgb(14.898682%, 14.898682%, 14.898682%)" d="M 344.726562 313.488281 L 220.871094 63.742188 L 152.695312 63.742188 L 30.210938 313.488281 L 344.726562 313.488281 " fill-opacity="1" fill-rule="nonzero"/></g><path fill="rgb(90.589905%, 29.798889%, 23.529053%)" d="M 184.308594 102.207031 L 184.160156 109.246094 L 189.59375 109.25 L 189.40625 102.207031 L 184.308594 102.207031 " fill-opacity="1" fill-rule="nonzero"/><path fill="rgb(90.589905%, 29.798889%, 23.529053%)" d="M 183.734375 129.273438 L 183.496094 140.484375 L 190.410156 140.492188 L 190.117188 129.277344 L 183.734375 129.273438 " fill-opacity="1" fill-rule="nonzero"/><path fill="rgb(90.589905%, 29.798889%, 23.529053%)" d="M 183.320312 148.648438 L 183.003906 163.496094 L 191.011719 163.507812 L 190.625 148.652344 L 183.320312 148.648438 " fill-opacity="1" fill-rule="nonzero"/><path fill="rgb(90.589905%, 29.798889%, 23.529053%)" d="M 184.050781 114.226562 L 183.867188 122.992188 L 189.953125 122.996094 L 189.722656 114.230469 L 184.050781 114.226562 " fill-opacity="1" fill-rule="nonzero"/><path fill="rgb(90.589905%, 29.798889%, 23.529053%)" d="M 182.769531 174.535156 L 182.332031 195.128906 L 191.839844 195.144531 L 191.300781 174.546875 L 182.769531 174.535156 " fill-opacity="1" fill-rule="nonzero"/><path fill="rgb(90.589905%, 29.798889%, 23.529053%)" d="M 184.515625 92.382812 L 184.394531 98.160156 L 189.304688 98.160156 L 189.152344 92.382812 L 184.515625 92.382812 " fill-opacity="1" fill-rule="nonzero"/><path fill="rgb(90.589905%, 29.798889%, 23.529053%)" d="M 181.351562 241.347656 L 193.050781 241.371094 L 192.253906 210.902344 L 182 210.886719 L 181.351562 241.347656 " fill-opacity="1" fill-rule="nonzero"/><g clip-path="url(#id4)"><path fill="rgb(90.589905%, 29.798889%, 23.529053%)" d="M 194.9375 313.488281 L 193.6875 265.671875 L 180.835938 265.644531 L 179.820312 313.488281 L 194.9375 313.488281 " fill-opacity="1" fill-rule="nonzero"/></g><g clip-path="url(#id5)"><path fill="rgb(90.589905%, 29.798889%, 23.529053%)" d="M 185.109375 64.410156 L 188.417969 64.410156 L 188.402344 63.742188 L 185.125 63.742188 L 185.109375 64.410156 " fill-opacity="1" fill-rule="nonzero"/></g><path fill="rgb(90.589905%, 29.798889%, 23.529053%)" d="M 185.070312 66.226562 L 185.007812 69.277344 L 188.546875 69.277344 L 188.464844 66.226562 L 185.070312 66.226562 " fill-opacity="1" fill-rule="nonzero"/><path fill="rgb(90.589905%, 29.798889%, 23.529053%)" d="M 184.691406 84.199219 L 184.585938 89.027344 L 189.066406 89.027344 L 188.9375 84.199219 L 184.691406 84.199219 " fill-opacity="1" fill-rule="nonzero"/><path fill="rgb(90.589905%, 29.798889%, 23.529053%)" d="M 184.835938 77.285156 L 184.75 81.378906 L 188.863281 81.378906 L 188.757812 77.285156 L 184.835938 77.285156 " fill-opacity="1" fill-rule="nonzero"/><path fill="rgb(90.589905%, 29.798889%, 23.529053%)" d="M 184.964844 71.359375 L 184.886719 74.875 L 188.695312 74.875 L 188.601562 71.359375 L 184.964844 71.359375 " fill-opacity="1" fill-rule="nonzero"/></svg>