<svg xmlns="http://www.w3.org/2000/svg" xmlns:xlink="http://www.w3.org/1999/xlink" width="500" zoomAndPan="magnify" viewBox="0 0 375 374.999991" height="500" preserveAspectRatio="xMidYMid meet" version="1.0"><defs><g/><clipPath id="id1"><path d="M 95.070312 106.136719 L 279.570312 106.136719 L 279.570312 290.636719 L 95.070312 290.636719 Z M 95.070312 106.136719 " clip-rule="nonzero"/></clipPath></defs><rect x="-37.5" width="450" fill="rgb(100%, 100%, 100%)" y="-37.499999" height="449.999989" fill-opacity="1"/><rect x="-37.5" width="450" fill="rgb(100%, 100%, 100%)" y="-37.499999" height="449.999989" fill-opacity="1"/><rect x="-37.5" width="450" fill="rgb(100%, 100%, 100%)" y="-37.499999" height="449.999989" fill-opacity="1"/><rect x="-37.5" width="450" fill="rgb(100%, 100%, 100%)" y="-37.499999" height="449.999989" fill-opacity="1"/><g clip-path="url(#id1)"><path fill="rgb(0%, 0%, 0%)" d="M 95.070312 106.136719 L 95.070312 290.636719 L 279.570312 290.636719 L 279.570312 106.136719 Z M 274.859375 285.925781 L 99.78125 285.925781 L 99.78125 110.847656 L 274.855469 110.847656 L 274.855469 285.925781 Z M 274.859375 285.925781 " fill-opacity="1" fill-rule="nonzero"/></g><g fill="rgb(0%, 0%, 0%)" fill-opacity="1"><g transform="translate(139.85325, 110.531078)"><g><path d="M 36.207031 -28.6875 C 40.457031 -30.757812 42.523438 -34.667969 42.523438 -39.441406 C 42.523438 -48.691406 36.359375 -54.332031 24.628906 -54.332031 L 7.03125 -54.332031 L 7.03125 0 L 29.402344 0 C 40.871094 0 46.433594 -6.054688 46.433594 -15.226562 C 46.433594 -22.972656 42.335938 -26.996094 36.207031 -28.6875 Z M 24.738281 -44.96875 C 29.777344 -44.96875 32.148438 -42.335938 32.148438 -38.726562 C 32.148438 -35.042969 30.042969 -32.183594 25.230469 -32.183594 L 17.898438 -32.183594 L 17.898438 -44.96875 Z M 27.296875 -9.664062 L 17.898438 -9.664062 L 17.898438 -23.5 L 27.070312 -23.5 C 33.425781 -23.5 35.492188 -20.078125 35.492188 -16.46875 C 35.492188 -12.933594 33.386719 -9.664062 27.296875 -9.664062 Z M 27.296875 -9.664062 "/></g></g></g><g fill="rgb(0%, 0%, 0%)" fill-opacity="1"><g transform="translate(185.284747, 110.531078)"><g><path d="M 38.539062 -44.402344 L 38.539062 -54.332031 L 7.03125 -54.332031 L 7.03125 0 L 38.539062 0 L 38.539062 -9.964844 L 18.386719 -9.964844 L 18.386719 -22.257812 L 36.246094 -22.257812 L 36.246094 -32.070312 L 18.386719 -32.070312 L 18.386719 -44.402344 Z M 38.539062 -44.402344 "/></g></g></g><g fill="rgb(0%, 0%, 0%)" fill-opacity="1"><g transform="translate(224.400478, 110.531078)"><g><path d="M 44.140625 -54.332031 L 44.140625 -15.714844 L 19.925781 -54.332031 L 7.03125 -54.332031 L 7.03125 0 L 18.273438 0 L 18.273438 -38.839844 L 42.335938 0 L 55.382812 0 L 55.382812 -54.332031 Z M 44.140625 -54.332031 "/></g></g></g><g fill="rgb(0%, 0%, 0%)" fill-opacity="1"><g transform="translate(175.034789, 179.266344)"><g><path d="M 7.03125 0 L 26.691406 0 C 44.023438 0 52.597656 -10.902344 52.597656 -27.179688 C 52.597656 -43.421875 44.023438 -54.324219 26.691406 -54.324219 L 7.03125 -54.324219 Z M 18.308594 -9.960938 L 18.308594 -44.398438 L 26.128906 -44.398438 C 36.128906 -44.398438 40.714844 -38.160156 40.714844 -27.179688 C 40.714844 -16.203125 36.128906 -9.960938 26.128906 -9.960938 Z M 18.308594 -9.960938 "/></g></g></g><g fill="rgb(0%, 0%, 0%)" fill-opacity="1"><g transform="translate(231.162391, 179.266344)"><g><path d="M 25.113281 0.75 C 36.957031 0.75 45.378906 -5.152344 45.378906 -15.488281 C 45.378906 -26.503906 35.714844 -29.625 27.480469 -32.105469 C 21.316406 -33.949219 15.976562 -35.226562 15.976562 -39.777344 C 15.976562 -43.949219 19.851562 -45.867188 24.398438 -45.867188 C 29.511719 -45.867188 33.160156 -43.496094 34.851562 -38.273438 L 45.078125 -40.789062 C 42.894531 -51.203125 33.273438 -55.078125 23.722656 -55.078125 C 12.820312 -55.078125 4.550781 -49.363281 4.550781 -39.363281 C 4.550781 -29.210938 13.082031 -26.316406 21.054688 -23.835938 C 27.671875 -21.804688 33.683594 -20.226562 33.722656 -14.886719 C 33.761719 -10.488281 30.113281 -8.457031 25.300781 -8.457031 C 19.625 -8.457031 15.414062 -11.355469 13.835938 -17.59375 L 2.667969 -15.039062 C 4.324219 -4.851562 13.421875 0.75 25.113281 0.75 Z M 25.113281 0.75 "/></g></g></g><g fill="rgb(0%, 0%, 0%)" fill-opacity="1"><g transform="translate(20.896709, 313.890561)"><g><path d="M 6.71875 0 L 5.546875 0 L 5.546875 -15.609375 L 0.109375 -15.609375 L 0.109375 -16.703125 L 12.15625 -16.703125 L 12.15625 -15.609375 L 6.71875 -15.609375 Z M 6.71875 0 "/></g></g></g><g fill="rgb(0%, 0%, 0%)" fill-opacity="1"><g transform="translate(33.157243, 313.890561)"><g><path d="M 14.46875 0 L 13.296875 0 L 13.296875 -8.21875 L 3.53125 -8.21875 L 3.53125 0 L 2.359375 0 L 2.359375 -16.703125 L 3.53125 -16.703125 L 3.53125 -9.296875 L 13.296875 -9.296875 L 13.296875 -16.703125 L 14.46875 -16.703125 Z M 14.46875 0 "/></g></g></g><g fill="rgb(0%, 0%, 0%)" fill-opacity="1"><g transform="translate(49.988337, 313.890561)"><g><path d="M 2.359375 0 L 2.359375 -16.703125 L 3.53125 -16.703125 L 3.53125 0 Z M 2.359375 0 "/></g></g></g><g fill="rgb(0%, 0%, 0%)" fill-opacity="1"><g transform="translate(55.884358, 313.890561)"><g><path d="M 14.515625 0 L 13.34375 0 L 3.4375 -14.828125 L 3.34375 -14.828125 C 3.4375 -13.066406 3.484375 -11.734375 3.484375 -10.828125 L 3.484375 0 L 2.359375 0 L 2.359375 -16.703125 L 3.53125 -16.703125 L 13.421875 -1.890625 L 13.484375 -1.890625 C 13.421875 -3.265625 13.390625 -4.570312 13.390625 -5.8125 L 13.390625 -16.703125 L 14.515625 -16.703125 Z M 14.515625 0 "/></g></g></g><g fill="rgb(0%, 0%, 0%)" fill-opacity="1"><g transform="translate(72.761157, 313.890561)"><g><path d="M 13.59375 0 L 12.171875 0 L 5.765625 -8.828125 L 3.53125 -6.859375 L 3.53125 0 L 2.359375 0 L 2.359375 -16.703125 L 3.53125 -16.703125 L 3.53125 -8.015625 L 5.390625 -9.875 L 11.9375 -16.703125 L 13.421875 -16.703125 L 6.578125 -9.640625 Z M 13.59375 0 "/></g></g></g><g fill="rgb(0%, 0%, 0%)" fill-opacity="1"><g transform="translate(86.358571, 313.890561)"><g/></g></g><g fill="rgb(0%, 0%, 0%)" fill-opacity="1"><g transform="translate(92.437415, 313.890561)"><g><path d="M 16.40625 -8.375 C 16.40625 -5.726562 15.742188 -3.628906 14.421875 -2.078125 C 13.097656 -0.535156 11.269531 0.234375 8.9375 0.234375 C 6.613281 0.234375 4.785156 -0.535156 3.453125 -2.078125 C 2.128906 -3.628906 1.46875 -5.738281 1.46875 -8.40625 C 1.46875 -11.0625 2.132812 -13.148438 3.46875 -14.671875 C 4.8125 -16.203125 6.640625 -16.96875 8.953125 -16.96875 C 11.285156 -16.96875 13.109375 -16.195312 14.421875 -14.65625 C 15.742188 -13.125 16.40625 -11.03125 16.40625 -8.375 Z M 2.75 -8.375 C 2.75 -5.976562 3.28125 -4.128906 4.34375 -2.828125 C 5.40625 -1.523438 6.9375 -0.875 8.9375 -0.875 C 10.945312 -0.875 12.484375 -1.519531 13.546875 -2.8125 C 14.609375 -4.101562 15.140625 -5.957031 15.140625 -8.375 C 15.140625 -10.78125 14.609375 -12.625 13.546875 -13.90625 C 12.484375 -15.195312 10.953125 -15.84375 8.953125 -15.84375 C 6.972656 -15.84375 5.441406 -15.191406 4.359375 -13.890625 C 3.285156 -12.597656 2.75 -10.757812 2.75 -8.375 Z M 2.75 -8.375 "/></g></g></g><g fill="rgb(0%, 0%, 0%)" fill-opacity="1"><g transform="translate(110.319737, 313.890561)"><g><path d="M 14.65625 -16.703125 L 14.65625 -5.890625 C 14.65625 -3.972656 14.097656 -2.472656 12.984375 -1.390625 C 11.867188 -0.304688 10.316406 0.234375 8.328125 0.234375 C 6.390625 0.234375 4.878906 -0.304688 3.796875 -1.390625 C 2.710938 -2.484375 2.171875 -4 2.171875 -5.9375 L 2.171875 -16.703125 L 3.34375 -16.703125 L 3.34375 -5.890625 C 3.34375 -4.285156 3.785156 -3.035156 4.671875 -2.140625 C 5.566406 -1.242188 6.832031 -0.796875 8.46875 -0.796875 C 10.0625 -0.796875 11.296875 -1.234375 12.171875 -2.109375 C 13.046875 -2.992188 13.484375 -4.21875 13.484375 -5.78125 L 13.484375 -16.703125 Z M 14.65625 -16.703125 "/></g></g></g><g fill="rgb(0%, 0%, 0%)" fill-opacity="1"><g transform="translate(127.15083, 313.890561)"><g><path d="M 6.71875 0 L 5.546875 0 L 5.546875 -15.609375 L 0.109375 -15.609375 L 0.109375 -16.703125 L 12.15625 -16.703125 L 12.15625 -15.609375 L 6.71875 -15.609375 Z M 6.71875 0 "/></g></g></g><g fill="rgb(0%, 0%, 0%)" fill-opacity="1"><g transform="translate(139.411364, 313.890561)"><g><path d="M 11.59375 -4.3125 C 11.59375 -2.914062 11.078125 -1.804688 10.046875 -0.984375 C 9.023438 -0.171875 7.664062 0.234375 5.96875 0.234375 C 3.925781 0.234375 2.359375 0.00390625 1.265625 -0.453125 L 1.265625 -1.609375 C 2.472656 -1.097656 4.007812 -0.84375 5.875 -0.84375 C 7.25 -0.84375 8.335938 -1.15625 9.140625 -1.78125 C 9.941406 -2.414062 10.34375 -3.242188 10.34375 -4.265625 C 10.34375 -4.898438 10.207031 -5.421875 9.9375 -5.828125 C 9.675781 -6.242188 9.242188 -6.625 8.640625 -6.96875 C 8.035156 -7.3125 7.148438 -7.679688 5.984375 -8.078125 C 4.273438 -8.660156 3.09375 -9.289062 2.4375 -9.96875 C 1.789062 -10.65625 1.46875 -11.566406 1.46875 -12.703125 C 1.46875 -13.953125 1.957031 -14.972656 2.9375 -15.765625 C 3.914062 -16.554688 5.175781 -16.953125 6.71875 -16.953125 C 8.289062 -16.953125 9.765625 -16.65625 11.140625 -16.0625 L 10.71875 -15.046875 C 9.332031 -15.628906 8.007812 -15.921875 6.75 -15.921875 C 5.507812 -15.921875 4.523438 -15.632812 3.796875 -15.0625 C 3.066406 -14.488281 2.703125 -13.710938 2.703125 -12.734375 C 2.703125 -12.117188 2.8125 -11.613281 3.03125 -11.21875 C 3.257812 -10.820312 3.628906 -10.460938 4.140625 -10.140625 C 4.648438 -9.828125 5.523438 -9.445312 6.765625 -9 C 8.066406 -8.550781 9.046875 -8.113281 9.703125 -7.6875 C 10.359375 -7.269531 10.835938 -6.789062 11.140625 -6.25 C 11.441406 -5.71875 11.59375 -5.070312 11.59375 -4.3125 Z M 11.59375 -4.3125 "/></g></g></g><g fill="rgb(0%, 0%, 0%)" fill-opacity="1"><g transform="translate(152.163225, 313.890561)"><g><path d="M 2.359375 0 L 2.359375 -16.703125 L 3.53125 -16.703125 L 3.53125 0 Z M 2.359375 0 "/></g></g></g><g fill="rgb(0%, 0%, 0%)" fill-opacity="1"><g transform="translate(158.059246, 313.890561)"><g><path d="M 15.046875 -8.515625 C 15.046875 -5.710938 14.3125 -3.59375 12.84375 -2.15625 C 11.375 -0.71875 9.210938 0 6.359375 0 L 2.359375 0 L 2.359375 -16.703125 L 6.875 -16.703125 C 9.539062 -16.703125 11.566406 -16.003906 12.953125 -14.609375 C 14.347656 -13.222656 15.046875 -11.191406 15.046875 -8.515625 Z M 13.78125 -8.46875 C 13.78125 -10.863281 13.171875 -12.664062 11.953125 -13.875 C 10.742188 -15.082031 8.960938 -15.6875 6.609375 -15.6875 L 3.53125 -15.6875 L 3.53125 -1.03125 L 6.296875 -1.03125 C 11.285156 -1.03125 13.78125 -3.507812 13.78125 -8.46875 Z M 13.78125 -8.46875 "/></g></g></g><g fill="rgb(0%, 0%, 0%)" fill-opacity="1"><g transform="translate(174.581818, 313.890561)"><g><path d="M 11.5 0 L 2.359375 0 L 2.359375 -16.703125 L 11.5 -16.703125 L 11.5 -15.640625 L 3.53125 -15.640625 L 3.53125 -9.3125 L 11.046875 -9.3125 L 11.046875 -8.234375 L 3.53125 -8.234375 L 3.53125 -1.078125 L 11.5 -1.078125 Z M 11.5 0 "/></g></g></g><g fill="rgb(0%, 0%, 0%)" fill-opacity="1"><g transform="translate(157.106942, 281.234352)"><g><path d="M 8.40625 0 L 7.734375 0 L 2 -8.59375 L 1.9375 -8.59375 C 1.988281 -7.570312 2.015625 -6.800781 2.015625 -6.28125 L 2.015625 0 L 1.375 0 L 1.375 -9.6875 L 2.046875 -9.6875 L 7.78125 -1.09375 L 7.8125 -1.09375 C 7.769531 -1.894531 7.75 -2.648438 7.75 -3.359375 L 7.75 -9.6875 L 8.40625 -9.6875 Z M 8.40625 0 "/></g></g></g><g fill="rgb(0%, 0%, 0%)" fill-opacity="1"><g transform="translate(166.881441, 281.234352)"><g><path d="M 7.15625 -3.609375 C 7.15625 -2.429688 6.867188 -1.515625 6.296875 -0.859375 C 5.734375 -0.203125 4.953125 0.125 3.953125 0.125 C 3.316406 0.125 2.757812 -0.0234375 2.28125 -0.328125 C 1.800781 -0.628906 1.429688 -1.0625 1.171875 -1.625 C 0.910156 -2.195312 0.78125 -2.859375 0.78125 -3.609375 C 0.78125 -4.785156 1.066406 -5.703125 1.640625 -6.359375 C 2.210938 -7.015625 2.992188 -7.34375 3.984375 -7.34375 C 4.972656 -7.34375 5.75 -7.007812 6.3125 -6.34375 C 6.875 -5.675781 7.15625 -4.765625 7.15625 -3.609375 Z M 1.484375 -3.609375 C 1.484375 -2.617188 1.695312 -1.847656 2.125 -1.296875 C 2.5625 -0.742188 3.175781 -0.46875 3.96875 -0.46875 C 4.769531 -0.46875 5.382812 -0.742188 5.8125 -1.296875 C 6.25 -1.847656 6.46875 -2.617188 6.46875 -3.609375 C 6.46875 -4.597656 6.25 -5.363281 5.8125 -5.90625 C 5.375 -6.457031 4.753906 -6.734375 3.953125 -6.734375 C 3.160156 -6.734375 2.550781 -6.460938 2.125 -5.921875 C 1.695312 -5.378906 1.484375 -4.609375 1.484375 -3.609375 Z M 1.484375 -3.609375 "/></g></g></g><g fill="rgb(0%, 0%, 0%)" fill-opacity="1"><g transform="translate(174.822802, 281.234352)"><g><path d="M 3.109375 -0.453125 C 3.523438 -0.453125 3.882812 -0.488281 4.1875 -0.5625 L 4.1875 -0.03125 C 3.875 0.0703125 3.507812 0.125 3.09375 0.125 C 2.457031 0.125 1.988281 -0.0390625 1.6875 -0.375 C 1.382812 -0.71875 1.234375 -1.253906 1.234375 -1.984375 L 1.234375 -6.625 L 0.171875 -6.625 L 0.171875 -7.015625 L 1.234375 -7.3125 L 1.5625 -8.9375 L 1.90625 -8.9375 L 1.90625 -7.203125 L 4.015625 -7.203125 L 4.015625 -6.625 L 1.90625 -6.625 L 1.90625 -2.078125 C 1.90625 -1.523438 2 -1.113281 2.1875 -0.84375 C 2.382812 -0.582031 2.691406 -0.453125 3.109375 -0.453125 Z M 3.109375 -0.453125 "/></g></g></g><g fill="rgb(0%, 0%, 0%)" fill-opacity="1"><g transform="translate(179.362613, 281.234352)"><g/></g></g><g fill="rgb(0%, 0%, 0%)" fill-opacity="1"><g transform="translate(182.883283, 281.234352)"><g><path d="M 5.578125 0 L 5.40625 -1.140625 L 5.359375 -1.140625 C 4.992188 -0.671875 4.617188 -0.34375 4.234375 -0.15625 C 3.859375 0.03125 3.410156 0.125 2.890625 0.125 C 2.179688 0.125 1.628906 -0.0507812 1.234375 -0.40625 C 0.847656 -0.769531 0.65625 -1.269531 0.65625 -1.90625 C 0.65625 -2.613281 0.945312 -3.160156 1.53125 -3.546875 C 2.113281 -3.929688 2.957031 -4.140625 4.0625 -4.171875 L 5.4375 -4.203125 L 5.4375 -4.6875 C 5.4375 -5.363281 5.296875 -5.875 5.015625 -6.21875 C 4.742188 -6.570312 4.296875 -6.75 3.671875 -6.75 C 3.003906 -6.75 2.316406 -6.566406 1.609375 -6.203125 L 1.359375 -6.765625 C 2.148438 -7.140625 2.929688 -7.328125 3.703125 -7.328125 C 4.492188 -7.328125 5.082031 -7.117188 5.46875 -6.703125 C 5.863281 -6.296875 6.0625 -5.65625 6.0625 -4.78125 L 6.0625 0 Z M 2.921875 -0.46875 C 3.691406 -0.46875 4.296875 -0.6875 4.734375 -1.125 C 5.179688 -1.5625 5.40625 -2.171875 5.40625 -2.953125 L 5.40625 -3.65625 L 4.15625 -3.609375 C 3.144531 -3.554688 2.421875 -3.394531 1.984375 -3.125 C 1.554688 -2.863281 1.34375 -2.453125 1.34375 -1.890625 C 1.34375 -1.441406 1.476562 -1.09375 1.75 -0.84375 C 2.03125 -0.59375 2.421875 -0.46875 2.921875 -0.46875 Z M 2.921875 -0.46875 "/></g></g></g><g fill="rgb(0%, 0%, 0%)" fill-opacity="1"><g transform="translate(190.063604, 281.234352)"><g><path d="M 1.859375 0 L 1.203125 0 L 1.203125 -10.296875 L 1.859375 -10.296875 Z M 1.859375 0 "/></g></g></g><g fill="rgb(0%, 0%, 0%)" fill-opacity="1"><g transform="translate(193.127654, 281.234352)"><g><path d="M 6.953125 0 L 5.390625 -4.8125 C 5.285156 -5.132812 5.15625 -5.613281 5 -6.25 L 4.953125 -6.25 L 4.8125 -5.765625 L 4.515625 -4.796875 L 2.90625 0 L 2.265625 0 L 0.203125 -7.203125 L 0.90625 -7.203125 L 2.0625 -3.03125 C 2.332031 -2 2.507812 -1.238281 2.59375 -0.75 L 2.625 -0.75 C 2.882812 -1.78125 3.078125 -2.46875 3.203125 -2.8125 L 4.6875 -7.203125 L 5.28125 -7.203125 L 6.6875 -2.828125 C 7.007812 -1.785156 7.203125 -1.097656 7.265625 -0.765625 L 7.3125 -0.765625 C 7.34375 -1.046875 7.519531 -1.8125 7.84375 -3.0625 L 8.9375 -7.203125 L 9.609375 -7.203125 L 7.65625 0 Z M 6.953125 0 "/></g></g></g><g fill="rgb(0%, 0%, 0%)" fill-opacity="1"><g transform="translate(202.928624, 281.234352)"><g><path d="M 5.578125 0 L 5.40625 -1.140625 L 5.359375 -1.140625 C 4.992188 -0.671875 4.617188 -0.34375 4.234375 -0.15625 C 3.859375 0.03125 3.410156 0.125 2.890625 0.125 C 2.179688 0.125 1.628906 -0.0507812 1.234375 -0.40625 C 0.847656 -0.769531 0.65625 -1.269531 0.65625 -1.90625 C 0.65625 -2.613281 0.945312 -3.160156 1.53125 -3.546875 C 2.113281 -3.929688 2.957031 -4.140625 4.0625 -4.171875 L 5.4375 -4.203125 L 5.4375 -4.6875 C 5.4375 -5.363281 5.296875 -5.875 5.015625 -6.21875 C 4.742188 -6.570312 4.296875 -6.75 3.671875 -6.75 C 3.003906 -6.75 2.316406 -6.566406 1.609375 -6.203125 L 1.359375 -6.765625 C 2.148438 -7.140625 2.929688 -7.328125 3.703125 -7.328125 C 4.492188 -7.328125 5.082031 -7.117188 5.46875 -6.703125 C 5.863281 -6.296875 6.0625 -5.65625 6.0625 -4.78125 L 6.0625 0 Z M 2.921875 -0.46875 C 3.691406 -0.46875 4.296875 -0.6875 4.734375 -1.125 C 5.179688 -1.5625 5.40625 -2.171875 5.40625 -2.953125 L 5.40625 -3.65625 L 4.15625 -3.609375 C 3.144531 -3.554688 2.421875 -3.394531 1.984375 -3.125 C 1.554688 -2.863281 1.34375 -2.453125 1.34375 -1.890625 C 1.34375 -1.441406 1.476562 -1.09375 1.75 -0.84375 C 2.03125 -0.59375 2.421875 -0.46875 2.921875 -0.46875 Z M 2.921875 -0.46875 "/></g></g></g><g fill="rgb(0%, 0%, 0%)" fill-opacity="1"><g transform="translate(210.108945, 281.234352)"><g><path d="M 0 -7.203125 L 0.671875 -7.203125 L 2.203125 -3.15625 C 2.660156 -1.914062 2.953125 -1.082031 3.078125 -0.65625 L 3.125 -0.65625 C 3.300781 -1.21875 3.601562 -2.066406 4.03125 -3.203125 L 5.546875 -7.203125 L 6.21875 -7.203125 L 3 1.171875 C 2.738281 1.847656 2.519531 2.304688 2.34375 2.546875 C 2.164062 2.785156 1.957031 2.960938 1.71875 3.078125 C 1.488281 3.203125 1.207031 3.265625 0.875 3.265625 C 0.613281 3.265625 0.332031 3.21875 0.03125 3.125 L 0.03125 2.546875 C 0.28125 2.617188 0.554688 2.65625 0.859375 2.65625 C 1.078125 2.65625 1.269531 2.601562 1.4375 2.5 C 1.613281 2.394531 1.769531 2.226562 1.90625 2 C 2.050781 1.78125 2.210938 1.425781 2.390625 0.9375 C 2.578125 0.457031 2.695312 0.144531 2.75 0 Z M 0 -7.203125 "/></g></g></g><g fill="rgb(0%, 0%, 0%)" fill-opacity="1"><g transform="translate(216.329678, 281.234352)"><g><path d="M 5.671875 -1.875 C 5.671875 -1.226562 5.425781 -0.734375 4.9375 -0.390625 C 4.445312 -0.046875 3.75 0.125 2.84375 0.125 C 1.882812 0.125 1.125 -0.0195312 0.5625 -0.3125 L 0.5625 -1.015625 C 1.28125 -0.660156 2.039062 -0.484375 2.84375 -0.484375 C 3.550781 -0.484375 4.085938 -0.597656 4.453125 -0.828125 C 4.828125 -1.066406 5.015625 -1.382812 5.015625 -1.78125 C 5.015625 -2.132812 4.867188 -2.4375 4.578125 -2.6875 C 4.285156 -2.9375 3.800781 -3.179688 3.125 -3.421875 C 2.40625 -3.679688 1.898438 -3.90625 1.609375 -4.09375 C 1.316406 -4.28125 1.097656 -4.488281 0.953125 -4.71875 C 0.804688 -4.957031 0.734375 -5.25 0.734375 -5.59375 C 0.734375 -6.125 0.957031 -6.546875 1.40625 -6.859375 C 1.863281 -7.179688 2.5 -7.34375 3.3125 -7.34375 C 4.09375 -7.34375 4.828125 -7.195312 5.515625 -6.90625 L 5.28125 -6.296875 C 4.570312 -6.585938 3.914062 -6.734375 3.3125 -6.734375 C 2.726562 -6.734375 2.257812 -6.632812 1.90625 -6.4375 C 1.5625 -6.25 1.390625 -5.984375 1.390625 -5.640625 C 1.390625 -5.265625 1.523438 -4.960938 1.796875 -4.734375 C 2.066406 -4.515625 2.585938 -4.265625 3.359375 -3.984375 C 4.015625 -3.753906 4.488281 -3.546875 4.78125 -3.359375 C 5.070312 -3.171875 5.289062 -2.957031 5.4375 -2.71875 C 5.59375 -2.476562 5.671875 -2.195312 5.671875 -1.875 Z M 5.671875 -1.875 "/></g></g></g><g fill="rgb(0%, 0%, 0%)" fill-opacity="1"><g transform="translate(222.643059, 281.234352)"><g/></g></g><g fill="rgb(0%, 0%, 0%)" fill-opacity="1"><g transform="translate(226.163729, 281.234352)"><g><path d="M 3.109375 -0.453125 C 3.523438 -0.453125 3.882812 -0.488281 4.1875 -0.5625 L 4.1875 -0.03125 C 3.875 0.0703125 3.507812 0.125 3.09375 0.125 C 2.457031 0.125 1.988281 -0.0390625 1.6875 -0.375 C 1.382812 -0.71875 1.234375 -1.253906 1.234375 -1.984375 L 1.234375 -6.625 L 0.171875 -6.625 L 0.171875 -7.015625 L 1.234375 -7.3125 L 1.5625 -8.9375 L 1.90625 -8.9375 L 1.90625 -7.203125 L 4.015625 -7.203125 L 4.015625 -6.625 L 1.90625 -6.625 L 1.90625 -2.078125 C 1.90625 -1.523438 2 -1.113281 2.1875 -0.84375 C 2.382812 -0.582031 2.691406 -0.453125 3.109375 -0.453125 Z M 3.109375 -0.453125 "/></g></g></g><g fill="rgb(0%, 0%, 0%)" fill-opacity="1"><g transform="translate(230.70354, 281.234352)"><g><path d="M 6.21875 0 L 6.21875 -4.671875 C 6.21875 -5.390625 6.066406 -5.910156 5.765625 -6.234375 C 5.460938 -6.566406 4.988281 -6.734375 4.34375 -6.734375 C 3.488281 -6.734375 2.859375 -6.515625 2.453125 -6.078125 C 2.054688 -5.648438 1.859375 -4.945312 1.859375 -3.96875 L 1.859375 0 L 1.203125 0 L 1.203125 -10.296875 L 1.859375 -10.296875 L 1.859375 -7.03125 L 1.828125 -6.109375 L 1.875 -6.109375 C 2.144531 -6.535156 2.484375 -6.847656 2.890625 -7.046875 C 3.304688 -7.242188 3.816406 -7.34375 4.421875 -7.34375 C 6.054688 -7.34375 6.875 -6.460938 6.875 -4.703125 L 6.875 0 Z M 6.21875 0 "/></g></g></g><g fill="rgb(0%, 0%, 0%)" fill-opacity="1"><g transform="translate(238.697843, 281.234352)"><g><path d="M 7.15625 -3.609375 C 7.15625 -2.429688 6.867188 -1.515625 6.296875 -0.859375 C 5.734375 -0.203125 4.953125 0.125 3.953125 0.125 C 3.316406 0.125 2.757812 -0.0234375 2.28125 -0.328125 C 1.800781 -0.628906 1.429688 -1.0625 1.171875 -1.625 C 0.910156 -2.195312 0.78125 -2.859375 0.78125 -3.609375 C 0.78125 -4.785156 1.066406 -5.703125 1.640625 -6.359375 C 2.210938 -7.015625 2.992188 -7.34375 3.984375 -7.34375 C 4.972656 -7.34375 5.75 -7.007812 6.3125 -6.34375 C 6.875 -5.675781 7.15625 -4.765625 7.15625 -3.609375 Z M 1.484375 -3.609375 C 1.484375 -2.617188 1.695312 -1.847656 2.125 -1.296875 C 2.5625 -0.742188 3.175781 -0.46875 3.96875 -0.46875 C 4.769531 -0.46875 5.382812 -0.742188 5.8125 -1.296875 C 6.25 -1.847656 6.46875 -2.617188 6.46875 -3.609375 C 6.46875 -4.597656 6.25 -5.363281 5.8125 -5.90625 C 5.375 -6.457031 4.753906 -6.734375 3.953125 -6.734375 C 3.160156 -6.734375 2.550781 -6.460938 2.125 -5.921875 C 1.695312 -5.378906 1.484375 -4.609375 1.484375 -3.609375 Z M 1.484375 -3.609375 "/></g></g></g><g fill="rgb(0%, 0%, 0%)" fill-opacity="1"><g transform="translate(246.639204, 281.234352)"><g><path d="M 1.78125 -7.203125 L 1.78125 -2.53125 C 1.78125 -1.8125 1.929688 -1.285156 2.234375 -0.953125 C 2.535156 -0.628906 3.007812 -0.46875 3.65625 -0.46875 C 4.507812 -0.46875 5.132812 -0.679688 5.53125 -1.109375 C 5.9375 -1.546875 6.140625 -2.25 6.140625 -3.21875 L 6.140625 -7.203125 L 6.796875 -7.203125 L 6.796875 0 L 6.234375 0 L 6.125 -1 L 6.078125 -1 C 5.609375 -0.25 4.773438 0.125 3.578125 0.125 C 1.941406 0.125 1.125 -0.75 1.125 -2.5 L 1.125 -7.203125 Z M 1.78125 -7.203125 "/></g></g></g><g fill="rgb(0%, 0%, 0%)" fill-opacity="1"><g transform="translate(254.633507, 281.234352)"><g><path d="M 6.828125 -7.203125 L 6.828125 -6.734375 L 5.328125 -6.65625 C 5.722656 -6.15625 5.921875 -5.609375 5.921875 -5.015625 C 5.921875 -4.328125 5.691406 -3.765625 5.234375 -3.328125 C 4.773438 -2.898438 4.15625 -2.6875 3.375 -2.6875 C 3.050781 -2.6875 2.820312 -2.703125 2.6875 -2.734375 C 2.425781 -2.585938 2.226562 -2.421875 2.09375 -2.234375 C 1.957031 -2.054688 1.890625 -1.863281 1.890625 -1.65625 C 1.890625 -1.425781 1.972656 -1.257812 2.140625 -1.15625 C 2.316406 -1.050781 2.613281 -1 3.03125 -1 L 4.28125 -1 C 5.0625 -1 5.660156 -0.835938 6.078125 -0.515625 C 6.492188 -0.203125 6.703125 0.257812 6.703125 0.875 C 6.703125 1.632812 6.394531 2.222656 5.78125 2.640625 C 5.164062 3.054688 4.285156 3.265625 3.140625 3.265625 C 2.234375 3.265625 1.53125 3.085938 1.03125 2.734375 C 0.539062 2.390625 0.296875 1.90625 0.296875 1.28125 C 0.296875 0.78125 0.445312 0.367188 0.75 0.046875 C 1.0625 -0.273438 1.476562 -0.5 2 -0.625 C 1.789062 -0.71875 1.617188 -0.847656 1.484375 -1.015625 C 1.359375 -1.179688 1.296875 -1.378906 1.296875 -1.609375 C 1.296875 -2.085938 1.601562 -2.507812 2.21875 -2.875 C 1.789062 -3.039062 1.457031 -3.304688 1.21875 -3.671875 C 0.988281 -4.046875 0.875 -4.472656 0.875 -4.953125 C 0.875 -5.671875 1.101562 -6.25 1.5625 -6.6875 C 2.019531 -7.125 2.640625 -7.34375 3.421875 -7.34375 C 3.890625 -7.34375 4.253906 -7.296875 4.515625 -7.203125 Z M 1 1.21875 C 1 2.207031 1.734375 2.703125 3.203125 2.703125 C 5.085938 2.703125 6.03125 2.097656 6.03125 0.890625 C 6.03125 0.460938 5.878906 0.148438 5.578125 -0.046875 C 5.285156 -0.242188 4.8125 -0.34375 4.15625 -0.34375 L 2.96875 -0.34375 C 1.65625 -0.34375 1 0.175781 1 1.21875 Z M 1.546875 -4.953125 C 1.546875 -4.398438 1.710938 -3.96875 2.046875 -3.65625 C 2.390625 -3.351562 2.84375 -3.203125 3.40625 -3.203125 C 4 -3.203125 4.457031 -3.351562 4.78125 -3.65625 C 5.101562 -3.957031 5.265625 -4.398438 5.265625 -4.984375 C 5.265625 -5.597656 5.097656 -6.054688 4.765625 -6.359375 C 4.441406 -6.671875 3.984375 -6.828125 3.390625 -6.828125 C 2.816406 -6.828125 2.363281 -6.660156 2.03125 -6.328125 C 1.707031 -5.992188 1.546875 -5.535156 1.546875 -4.953125 Z M 1.546875 -4.953125 "/></g></g></g><g fill="rgb(0%, 0%, 0%)" fill-opacity="1"><g transform="translate(261.721179, 281.234352)"><g><path d="M 6.21875 0 L 6.21875 -4.671875 C 6.21875 -5.390625 6.066406 -5.910156 5.765625 -6.234375 C 5.460938 -6.566406 4.988281 -6.734375 4.34375 -6.734375 C 3.488281 -6.734375 2.859375 -6.515625 2.453125 -6.078125 C 2.054688 -5.648438 1.859375 -4.945312 1.859375 -3.96875 L 1.859375 0 L 1.203125 0 L 1.203125 -10.296875 L 1.859375 -10.296875 L 1.859375 -7.03125 L 1.828125 -6.109375 L 1.875 -6.109375 C 2.144531 -6.535156 2.484375 -6.847656 2.890625 -7.046875 C 3.304688 -7.242188 3.816406 -7.34375 4.421875 -7.34375 C 6.054688 -7.34375 6.875 -6.460938 6.875 -4.703125 L 6.875 0 Z M 6.21875 0 "/></g></g></g><g fill="rgb(0%, 0%, 0%)" fill-opacity="1"><g transform="translate(269.715482, 281.234352)"><g><path d="M 1.078125 -0.515625 C 1.078125 -0.953125 1.253906 -1.171875 1.609375 -1.171875 C 1.960938 -1.171875 2.140625 -0.953125 2.140625 -0.515625 C 2.140625 -0.0859375 1.960938 0.125 1.609375 0.125 C 1.253906 0.125 1.078125 -0.0859375 1.078125 -0.515625 Z M 1.078125 -0.515625 "/></g></g></g></svg>