<svg xmlns="http://www.w3.org/2000/svg" xmlns:xlink="http://www.w3.org/1999/xlink" width="500" zoomAndPan="magnify" viewBox="0 0 375 374.999991" height="500" preserveAspectRatio="xMidYMid meet" version="1.0"><defs><g/><clipPath id="id1"><path d="M 95.070312 106.136719 L 279.570312 106.136719 L 279.570312 290.636719 L 95.070312 290.636719 Z M 95.070312 106.136719 " clip-rule="nonzero"/></clipPath></defs><rect x="-37.5" width="450" fill="rgb(100%, 100%, 100%)" y="-37.499999" height="449.999989" fill-opacity="1"/><rect x="-37.5" width="450" fill="rgb(100%, 100%, 100%)" y="-37.499999" height="449.999989" fill-opacity="1"/><rect x="-37.5" width="450" fill="rgb(100%, 100%, 100%)" y="-37.499999" height="449.999989" fill-opacity="1"/><rect x="-37.5" width="450" fill="rgb(100%, 100%, 100%)" y="-37.499999" height="449.999989" fill-opacity="1"/><g clip-path="url(#id1)"><path fill="rgb(3.529358%, 3.529358%, 3.529358%)" d="M 95.070312 106.136719 L 95.070312 290.636719 L 279.570312 290.636719 L 279.570312 106.136719 Z M 274.859375 285.925781 L 99.78125 285.925781 L 99.78125 110.847656 L 274.855469 110.847656 L 274.855469 285.925781 Z M 274.859375 285.925781 " fill-opacity="1" fill-rule="nonzero"/></g><g fill="rgb(3.529358%, 3.529358%, 3.529358%)" fill-opacity="1"><g transform="translate(139.85325, 110.531078)"><g><path d="M 36.207031 -28.6875 C 40.457031 -30.757812 42.523438 -34.667969 42.523438 -39.441406 C 42.523438 -48.691406 36.359375 -54.332031 24.628906 -54.332031 L 7.03125 -54.332031 L 7.03125 0 L 29.402344 0 C 40.871094 0 46.433594 -6.054688 46.433594 -15.226562 C 46.433594 -22.972656 42.335938 -26.996094 36.207031 -28.6875 Z M 24.738281 -44.96875 C 29.777344 -44.96875 32.148438 -42.335938 32.148438 -38.726562 C 32.148438 -35.042969 30.042969 -32.183594 25.230469 -32.183594 L 17.898438 -32.183594 L 17.898438 -44.96875 Z M 27.296875 -9.664062 L 17.898438 -9.664062 L 17.898438 -23.5 L 27.070312 -23.5 C 33.425781 -23.5 35.492188 -20.078125 35.492188 -16.46875 C 35.492188 -12.933594 33.386719 -9.664062 27.296875 -9.664062 Z M 27.296875 -9.664062 "/></g></g></g><g fill="rgb(3.529358%, 3.529358%, 3.529358%)" fill-opacity="1"><g transform="translate(185.284747, 110.531078)"><g><path d="M 38.539062 -44.402344 L 38.539062 -54.332031 L 7.03125 -54.332031 L 7.03125 0 L 38.539062 0 L 38.539062 -9.964844 L 18.386719 -9.964844 L 18.386719 -22.257812 L 36.246094 -22.257812 L 36.246094 -32.070312 L 18.386719 -32.070312 L 18.386719 -44.402344 Z M 38.539062 -44.402344 "/></g></g></g><g fill="rgb(3.529358%, 3.529358%, 3.529358%)" fill-opacity="1"><g transform="translate(224.400478, 110.531078)"><g><path d="M 44.140625 -54.332031 L 44.140625 -15.714844 L 19.925781 -54.332031 L 7.03125 -54.332031 L 7.03125 0 L 18.273438 0 L 18.273438 -38.839844 L 42.335938 0 L 55.382812 0 L 55.382812 -54.332031 Z M 44.140625 -54.332031 "/></g></g></g><g fill="rgb(3.529358%, 3.529358%, 3.529358%)" fill-opacity="1"><g transform="translate(175.034789, 179.266344)"><g><path d="M 7.03125 0 L 26.691406 0 C 44.023438 0 52.597656 -10.902344 52.597656 -27.179688 C 52.597656 -43.421875 44.023438 -54.324219 26.691406 -54.324219 L 7.03125 -54.324219 Z M 18.308594 -9.960938 L 18.308594 -44.398438 L 26.128906 -44.398438 C 36.128906 -44.398438 40.714844 -38.160156 40.714844 -27.179688 C 40.714844 -16.203125 36.128906 -9.960938 26.128906 -9.960938 Z M 18.308594 -9.960938 "/></g></g></g><g fill="rgb(3.529358%, 3.529358%, 3.529358%)" fill-opacity="1"><g transform="translate(231.162391, 179.266344)"><g><path d="M 25.113281 0.75 C 36.957031 0.75 45.378906 -5.152344 45.378906 -15.488281 C 45.378906 -26.503906 35.714844 -29.625 27.480469 -32.105469 C 21.316406 -33.949219 15.976562 -35.226562 15.976562 -39.777344 C 15.976562 -43.949219 19.851562 -45.867188 24.398438 -45.867188 C 29.511719 -45.867188 33.160156 -43.496094 34.851562 -38.273438 L 45.078125 -40.789062 C 42.894531 -51.203125 33.273438 -55.078125 23.722656 -55.078125 C 12.820312 -55.078125 4.550781 -49.363281 4.550781 -39.363281 C 4.550781 -29.210938 13.082031 -26.316406 21.054688 -23.835938 C 27.671875 -21.804688 33.683594 -20.226562 33.722656 -14.886719 C 33.761719 -10.488281 30.113281 -8.457031 25.300781 -8.457031 C 19.625 -8.457031 15.414062 -11.355469 13.835938 -17.59375 L 2.667969 -15.039062 C 4.324219 -4.851562 13.421875 0.75 25.113281 0.75 Z M 25.113281 0.75 "/></g></g></g></svg>