<svg xmlns="http://www.w3.org/2000/svg" xmlns:xlink="http://www.w3.org/1999/xlink" width="500" zoomAndPan="magnify" viewBox="0 0 375 374.999991" height="500" preserveAspectRatio="xMidYMid meet" version="1.0"><path fill="#866042" d="M 172.667969 45.019531 C 156.132812 45.019531 138.675781 48.117188 122.179688 53.980469 C 102.421875 61 65.066406 76.71875 36.855469 103.105469 C 8.214844 129.898438 1.148438 155.671875 4.082031 170.875 C 9.582031 199.359375 36.960938 218.859375 57.773438 233.207031 C 42.574219 242.511719 26.058594 255.332031 19.445312 269.953125 C 13.203125 283.742188 12.871094 297.945312 18.476562 309.945312 C 22.660156 318.90625 29.808594 325.550781 37.59375 327.71875 C 42.984375 329.21875 48.554688 329.980469 54.148438 329.980469 C 76.253906 329.980469 98.058594 317.917969 111.074219 298.507812 C 113.027344 295.601562 114.707031 292.574219 116.148438 289.476562 C 116.941406 290.421875 117.765625 291.316406 118.613281 292.117188 C 125.714844 298.847656 134.179688 298.84375 136.964844 298.84375 C 145.542969 298.84375 151.582031 295.125 155.941406 290.507812 C 159.578125 292.925781 163.855469 294.21875 168.464844 294.21875 C 169.019531 294.21875 169.597656 294.210938 170.144531 294.144531 C 179.371094 293.019531 189.324219 284.011719 189.324219 284.011719 C 189.710938 284.347656 190.097656 284.660156 190.511719 284.96875 C 194.429688 287.925781 199.359375 289.363281 205.574219 289.363281 C 206.605469 289.363281 207.671875 289.335938 208.746094 289.261719 C 216.339844 288.75 222.066406 286.933594 225.664062 285.417969 C 229.285156 284.097656 234.527344 281.761719 239.769531 277.910156 C 241.039062 276.976562 242.25 275.992188 243.378906 274.953125 C 245.6875 276.355469 248.292969 277.367188 251.121094 277.941406 C 252.5 278.222656 253.941406 278.359375 255.425781 278.359375 C 259.328125 278.359375 263.554688 277.40625 268.324219 275.445312 C 272.199219 274.109375 277.792969 271.714844 283.371094 267.617188 C 296.300781 258.109375 302.59375 246.8125 302.058594 234.0625 C 302.042969 233.667969 302.015625 233.273438 301.984375 232.871094 C 303.894531 232.664062 305.867188 232.566406 307.898438 232.566406 C 310.414062 232.566406 313.070312 232.734375 315.769531 233.046875 C 333.472656 235.117188 337.277344 243.46875 337.210938 246.238281 C 337.097656 246.964844 335.839844 248.132812 334.660156 248.859375 C 327.171875 253.492188 324.054688 259.503906 325.382812 266.734375 C 326.800781 274.558594 333.371094 280.042969 341.355469 280.042969 C 342.878906 280.042969 344.207031 279.851562 345.3125 279.664062 C 354.804688 278.0625 372.894531 266.28125 373.726562 245.105469 C 374.214844 232.816406 369.179688 220.238281 359.925781 210.605469 C 348.296875 198.507812 331.242188 191.847656 311.902344 191.847656 L 311.449219 191.847656 C 303.464844 191.894531 295.710938 192.988281 288.257812 195.109375 L 288.027344 193.429688 C 287.574219 190.246094 287.402344 189.050781 287.765625 186.28125 C 288.089844 183.796875 289.609375 179.300781 290.34375 177.136719 C 291.375 174.105469 292.128906 171.921875 291.867188 168.683594 C 291.363281 162.367188 286.113281 151.640625 269.660156 151.519531 L 269.195312 151.519531 C 254.574219 151.519531 245.539062 155.769531 242.347656 164.148438 C 241.949219 165.195312 241.476562 166.574219 240.988281 168.164062 C 237.574219 164.570312 232.085938 161.742188 223.679688 161.683594 L 223.199219 161.683594 C 221.457031 161.683594 219.792969 161.753906 218.214844 161.871094 C 239.308594 142.328125 252.75 114.265625 245.902344 87.378906 C 239.242188 61.253906 211.179688 45.019531 172.667969 45.019531 Z M 172.652344 59.792969 C 202.265625 59.792969 226.464844 70.863281 231.609375 91.042969 C 239.132812 120.554688 213.503906 155.847656 180.699219 168.539062 C 163.652344 175.136719 148.316406 177.28125 136.515625 177.28125 C 128.046875 177.28125 121.390625 176.167969 117.234375 174.800781 C 105.925781 171.089844 99.285156 163.644531 97.667969 159.4375 C 97.035156 157.789062 95.9375 155.015625 97.667969 154.058594 C 97.964844 153.894531 98.21875 153.78125 98.476562 153.78125 C 99.160156 153.78125 99.960938 154.484375 102 156.738281 C 104.367188 159.351562 113.003906 165.8125 128.992188 165.8125 C 131.242188 165.8125 133.652344 165.699219 136.195312 165.410156 C 190.339844 159.335938 222.949219 117.261719 212.648438 94.625 C 208.863281 86.3125 195.582031 80.40625 176.277344 80.40625 C 158.785156 80.40625 136.34375 85.269531 111.554688 97.625 C 47.902344 129.339844 44.457031 155.476562 43.914062 165.410156 C 42.425781 192.722656 77.621094 207.101562 96.667969 227.421875 C 96.917969 227.6875 97.160156 227.953125 97.40625 228.21875 C 100.976562 226.253906 104.734375 224.1875 108.421875 222.160156 C 118.027344 216.882812 127.066406 211.9375 131.296875 209.636719 C 138 199.898438 151.613281 189.152344 161.433594 189.152344 C 177.136719 189.152344 171.726562 211.707031 171.726562 211.707031 C 171.726562 211.707031 172.050781 210.65625 172.480469 210.648438 C 172.820312 210.640625 173.921875 208.894531 176.625 208.894531 C 177.433594 208.894531 178.375 209.054688 179.496094 209.460938 C 184.484375 211.285156 183.351562 214.789062 183.378906 215.144531 C 183.441406 215.832031 177.496094 235.890625 175.015625 248.746094 C 173.835938 254.875 174.523438 259.339844 174.871094 259.339844 C 175.359375 259.339844 176.351562 257.773438 177.277344 256.09375 L 177.261719 256.050781 C 177.261719 256.050781 177.953125 254.792969 179.117188 252.515625 C 179.265625 252.210938 179.351562 252.019531 179.351562 252.019531 C 179.351562 252.019531 179.363281 252.035156 179.363281 252.035156 C 180.730469 249.347656 182.652344 245.417969 184.875 240.527344 C 189.230469 230.921875 205.859375 193.867188 207.269531 189.761719 C 208.679688 185.65625 209.421875 181.410156 210.109375 179.601562 C 210.792969 177.820312 216.46875 176.46875 223.1875 176.46875 L 223.546875 176.46875 C 230.421875 176.519531 231.105469 179.441406 231.160156 180.050781 C 231.210938 180.65625 227.886719 188.785156 227.128906 194.53125 C 226.371094 200.273438 227.101562 203.160156 227.722656 207.984375 C 228.140625 211.144531 230.109375 215.144531 232.433594 219.679688 C 239.535156 208.058594 252.054688 185.828125 253.265625 179.601562 C 254.089844 175.347656 255.414062 171.261719 256.105469 169.453125 C 256.789062 167.671875 262.472656 166.308594 269.179688 166.308594 L 269.527344 166.308594 C 276.402344 166.359375 277.101562 169.292969 277.152344 169.902344 C 277.207031 170.511719 273.882812 178.640625 273.125 184.382812 C 272.367188 190.128906 273.09375 192.996094 273.71875 197.820312 C 274.253906 201.949219 277.457031 207.515625 280.617188 213.824219 C 289.265625 209.5625 299.582031 206.695312 311.496094 206.632812 L 311.871094 206.632812 C 342.441406 206.632812 359.679688 226.484375 358.96875 244.554688 C 358.433594 258.820312 345.3125 264.710938 342.878906 265.125 C 342.285156 265.230469 341.773438 265.300781 341.355469 265.300781 C 340.53125 265.300781 340.0625 265 339.890625 264.082031 C 339.714844 263.125 340.351562 262.683594 342.429688 261.398438 C 344.507812 260.117188 350.714844 255.855469 351.820312 248.105469 C 352.933594 240.359375 347.117188 221.855469 317.480469 218.390625 C 314.113281 217.996094 310.929688 217.824219 307.898438 217.824219 C 298.527344 217.824219 290.777344 219.574219 284.445312 222.21875 C 286.003906 226.246094 287.152344 230.4375 287.328125 234.667969 C 287.714844 243.960938 281.296875 250.824219 274.632812 255.730469 C 270.75 258.589844 266.582031 260.496094 263.121094 261.644531 C 260.804688 262.625 257.859375 263.617188 255.425781 263.617188 C 254.933594 263.617188 254.472656 263.578125 254.03125 263.488281 C 248.25 262.320312 245.171875 257.191406 249.105469 245.875 C 251.234375 239.75 257.359375 230.421875 267.238281 222.390625 C 264.984375 217.753906 262.46875 213.027344 261.195312 208.691406 C 258.679688 200.136719 257.902344 194.964844 257.902344 194.964844 C 257.902344 194.964844 249.742188 211.847656 239.234375 227.21875 C 238.625 228.109375 238.023438 228.972656 237.421875 229.84375 C 239.484375 234.628906 241.121094 239.710938 241.335938 244.832031 C 241.71875 254.117188 237.691406 261.132812 231.027344 266.039062 C 227.414062 268.695312 223.566406 270.535156 220.257812 271.707031 C 218.136719 272.625 213.839844 274.132812 207.734375 274.546875 C 207 274.597656 206.269531 274.632812 205.558594 274.632812 C 203.042969 274.632812 200.78125 274.273438 199.371094 273.214844 C 196.898438 271.359375 196.597656 269.039062 197.875 265.894531 C 198.960938 263.222656 207.050781 253.972656 213.851562 245.875 C 215.722656 243.640625 217.515625 241.367188 219.113281 239.25 C 219.089844 239.199219 219.082031 239.164062 219.082031 239.164062 C 219.082031 239.164062 220.3125 237.574219 222.316406 234.800781 C 219.835938 229.464844 216.683594 223.886719 215.199219 218.855469 C 212.683594 210.296875 211.921875 205.113281 211.921875 205.113281 C 211.921875 205.113281 203.660156 226.292969 195.050781 243.191406 C 188.382812 256.277344 183.933594 264.210938 181.929688 267.691406 C 181.914062 267.78125 181.902344 267.820312 181.902344 267.820312 C 181.902344 267.820312 181.609375 268.332031 181.089844 269.125 C 180.835938 269.554688 180.714844 269.777344 180.714844 269.777344 C 180.714844 269.777344 180.707031 269.75 180.699219 269.71875 C 178.464844 273.015625 173.445312 279.476562 168.464844 279.476562 C 154.777344 279.476562 159.808594 251.703125 159.808594 251.703125 C 159.808594 251.703125 155.8125 261.988281 151.300781 270.820312 C 147.628906 278.019531 144.28125 284.113281 136.964844 284.113281 C 134.847656 284.113281 131.519531 284.046875 128.746094 281.417969 C 122.460938 275.453125 117.65625 260.296875 118.597656 248.570312 C 119.398438 238.589844 120.933594 231.679688 123.035156 225.914062 C 119.269531 227.960938 114.941406 230.382812 110.523438 232.972656 C 108.261719 234.300781 105.980469 235.652344 103.738281 236.972656 C 103.8125 237.109375 103.890625 237.246094 103.957031 237.378906 C 109.582031 248.246094 111.066406 272.03125 98.8125 290.304688 C 88.875 305.125 72.015625 315.25 54.136719 315.25 C 49.964844 315.25 45.738281 314.699219 41.539062 313.527344 C 34.367188 311.53125 23.527344 296.703125 32.871094 276.039062 C 41.109375 257.828125 74.046875 240.582031 82.722656 236.292969 C 83.449219 235.890625 84.257812 235.457031 85.113281 234.988281 C 67.8125 219.855469 24.589844 199.449219 18.535156 168.089844 C 16.828125 159.265625 20.960938 138.136719 46.902344 113.875 C 68.714844 93.472656 99.066406 77.855469 127.09375 67.894531 C 142.523438 62.410156 158.226562 59.792969 172.652344 59.792969 Z M 176.304688 95.117188 C 192.113281 95.117188 198.5625 99.707031 199.3125 100.84375 C 200.351562 103.144531 200.117188 108.28125 196.109375 115.355469 C 187.519531 130.496094 165.160156 147.308594 134.574219 150.738281 C 132.664062 150.953125 130.800781 151.058594 129.019531 151.058594 C 117.582031 151.058594 112.828125 146.695312 112.785156 146.652344 C 110.128906 143.710938 105.871094 139.019531 98.507812 139.011719 C 95.761719 139.011719 93.085938 139.730469 90.550781 141.140625 C 88.390625 142.335938 77.921875 149.085938 83.894531 164.625 C 87.136719 173.058594 97.269531 183.757812 112.65625 188.804688 C 116.765625 190.15625 121.800781 191.097656 127.339844 191.601562 C 125.097656 193.828125 123.109375 196.074219 121.425781 198.210938 C 116.636719 200.824219 109.179688 204.910156 101.347656 209.214844 L 99.871094 210.011719 C 95.082031 205.796875 89.976562 201.882812 84.984375 198.039062 C 68.714844 185.523438 58.09375 176.542969 58.65625 166.191406 C 59.851562 144.3125 91.667969 123.984375 118.148438 110.789062 C 138.425781 100.6875 159.082031 95.117188 176.304688 95.117188 Z M 195.195312 178.136719 C 195.066406 178.617188 194.957031 179.117188 194.832031 179.628906 C 194.410156 181.335938 193.933594 183.257812 193.351562 184.933594 C 192.863281 186.269531 190.808594 191.023438 188.089844 197.199219 C 187.675781 196.960938 187.253906 196.738281 186.816406 196.53125 C 186.074219 192.210938 184.515625 187.769531 181.582031 183.917969 C 183.050781 183.398438 184.527344 182.847656 186.03125 182.265625 C 189.121094 181.070312 192.179688 179.695312 195.195312 178.136719 Z M 161.101562 202.472656 C 158.546875 202.472656 154.40625 204.699219 150.546875 209.011719 C 147.222656 212.738281 141.554688 222.332031 138.90625 230.363281 C 133.636719 246.320312 135.90625 262.535156 139.644531 263.515625 C 139.757812 263.546875 139.882812 263.558594 139.996094 263.558594 C 144.375 263.558594 151.253906 243.109375 154.578125 234.988281 C 156.722656 229.761719 165.058594 206.582031 163.230469 203.488281 C 162.832031 202.8125 162.085938 202.472656 161.101562 202.472656 Z M 271.964844 228.753906 C 266.425781 233.644531 263.242188 238.773438 261.847656 241.816406 C 258.292969 249.5625 258.117188 252.046875 259.195312 252.816406 C 264.367188 250.960938 272.90625 246.480469 272.980469 234.496094 C 272.992188 232.699219 272.609375 230.765625 271.964844 228.753906 Z M 93.230469 241.960938 C 92.695312 242.273438 92.199219 242.578125 91.707031 242.875 L 91.707031 242.886719 C 91.707031 242.886719 91.480469 243.019531 91.054688 243.265625 C 88.503906 244.792969 86.394531 246.058594 84.96875 246.917969 C 78.679688 250.84375 69.203125 257.230469 61.863281 264.152344 C 49.816406 275.515625 47.289062 291.289062 53.640625 294.972656 C 55 295.757812 56.789062 296.144531 58.847656 296.144531 C 65.675781 296.144531 75.507812 291.851562 83.054688 283.621094 C 93.355469 272.378906 97.609375 258.132812 93.230469 241.960938 Z M 226.96875 243.816406 C 224.832031 246.621094 222.863281 249.117188 221.171875 251.222656 C 218.261719 254.84375 210.863281 262.792969 210.863281 262.792969 C 210.863281 262.792969 209.816406 263.785156 210.269531 264.050781 C 210.417969 264.140625 210.605469 264.183594 210.820312 264.183594 C 211.527344 264.183594 212.5625 263.761719 213.675781 263.183594 C 217.78125 260.601562 226.976562 254.171875 227 244.644531 C 227 244.367188 226.992188 244.097656 226.96875 243.816406 Z M 226.96875 243.816406 " fill-opacity="1" fill-rule="nonzero"/></svg>